SourceSerifPro_3.ufo
<glyph name="parenleft" format="1">
	<unicode hex="0028"/>
	<advance width="393"/>
	<outline>
		<contour>
			<point x="205" y="278" type="curve" smooth="yes"/>
			<point x="205" y="441"/>
			<point x="236" y="557"/>
			<point x="350" y="686" type="curve"/>
			<point x="324" y="710" type="line"/>
			<point x="163" y="600"/>
			<point x="70" y="468"/>
			<point x="70" y="278" type="curve" smooth="yes"/>
			<point x="70" y="88"/>
			<point x="164" y="-42"/>
			<point x="324" y="-154" type="curve"/>
			<point x="350" y="-130" type="line"/>
			<point x="244" y="-6"/>
			<point x="205" y="115"/>
		</contour>
	</outline>
</glyph>
<glyph name="asterisk" format="1">
	<unicode hex="002A"/>
	<advance width="430"/>
	<outline>
		<contour>
			<point x="215" y="731" type="curve" smooth="yes"/>
			<point x="188" y="731"/>
			<point x="165" y="709"/>
			<point x="165" y="679" type="curve" smooth="yes"/>
			<point x="165" y="661"/>
			<point x="176" y="627"/>
			<point x="192" y="585" type="curve" smooth="yes"/>
			<point x="209" y="539" type="line"/>
			<point x="170" y="569" type="line" smooth="yes"/>
			<point x="127" y="602"/>
			<point x="100" y="626"/>
			<point x="74" y="626" type="curve" smooth="yes"/>
			<point x="44" y="626"/>
			<point x="21" y="605"/>
			<point x="21" y="576" type="curve" smooth="yes"/>
			<point x="21" y="532"/>
			<point x="51" y="521"/>
			<point x="156" y="525" type="curve" smooth="yes"/>
			<point x="205" y="527" type="line"/>
			<point x="164" y="499" type="line" smooth="yes"/>
			<point x="108" y="461"/>
			<point x="78" y="445"/>
			<point x="78" y="408" type="curve" smooth="yes"/>
			<point x="78" y="382"/>
			<point x="96" y="358"/>
			<point x="126" y="358" type="curve" smooth="yes"/>
			<point x="163" y="358"/>
			<point x="174" y="376"/>
			<point x="201" y="472" type="curve" smooth="yes"/>
			<point x="215" y="521" type="line"/>
			<point x="229" y="472" type="line" smooth="yes"/>
			<point x="255" y="381"/>
			<point x="266" y="358"/>
			<point x="305" y="358" type="curve" smooth="yes"/>
			<point x="333" y="358"/>
			<point x="354" y="382"/>
			<point x="354" y="408" type="curve" smooth="yes"/>
			<point x="354" y="437"/>
			<point x="331" y="455"/>
			<point x="266" y="499" type="curve" smooth="yes"/>
			<point x="225" y="527" type="line"/>
			<point x="274" y="525" type="line" smooth="yes"/>
			<point x="381" y="521"/>
			<point x="408" y="536"/>
			<point x="408" y="578" type="curve" smooth="yes"/>
			<point x="408" y="607"/>
			<point x="386" y="627"/>
			<point x="358" y="627" type="curve" smooth="yes"/>
			<point x="336" y="627"/>
			<point x="310" y="607"/>
			<point x="260" y="569" type="curve" smooth="yes"/>
			<point x="221" y="539" type="line"/>
			<point x="238" y="585" type="line" smooth="yes"/>
			<point x="253" y="626"/>
			<point x="265" y="656"/>
			<point x="265" y="679" type="curve" smooth="yes"/>
			<point x="265" y="707"/>
			<point x="241" y="731"/>
		</contour>
	</outline>
</glyph>
<glyph name="plus" format="1">
	<unicode hex="002B"/>
	<advance width="550"/>
	<outline>
		<contour>
			<point x="243" y="70" type="line"/>
			<point x="307" y="70" type="line"/>
			<point x="307" y="565" type="line"/>
			<point x="243" y="565" type="line"/>
		</contour>
		<contour>
			<point x="520" y="290" type="line"/>
			<point x="520" y="350" type="line"/>
			<point x="30" y="350" type="line"/>
			<point x="30" y="290" type="line"/>
		</contour>
	</outline>
</glyph>
<glyph name="comma" format="1">
	<unicode hex="002C"/>
	<advance width="300"/>
	<outline>
		<contour>
			<point x="248" y="67" type="curve" smooth="yes"/>
			<point x="248" y="99"/>
			<point x="245" y="119"/>
			<point x="232" y="151" type="curve"/>
			<point x="208" y="172"/>
			<point x="184" y="179"/>
			<point x="152" y="179" type="curve" smooth="yes"/>
			<point x="96" y="179"/>
			<point x="52" y="137"/>
			<point x="52" y="82" type="curve" smooth="yes"/>
			<point x="52" y="51"/>
			<point x="68" y="17"/>
			<point x="116" y="-6" type="curve" smooth="yes"/>
			<point x="192" y="-42" type="line"/>
			<point x="174" y="-5" type="line"/>
			<point x="154" y="-80"/>
			<point x="111" y="-119"/>
			<point x="27" y="-161" type="curve"/>
			<point x="37" y="-193" type="line"/>
			<point x="132" y="-166"/>
			<point x="248" y="-77"/>
		</contour>
	</outline>
</glyph>
<glyph name="slash" format="1">
	<unicode hex="002F"/>
	<advance width="410"/>
	<outline>
		<contour>
			<point x="22" y="-160" type="line"/>
			<point x="122" y="-160" type="line"/>
			<point x="389" y="710" type="line"/>
			<point x="289" y="710" type="line"/>
		</contour>
	</outline>
</glyph>
<glyph name="one" format="1">
	<unicode hex="0031"/>
	<advance width="560"/>
	<outline>
		<contour>
			<point x="104" y="580" type="line"/>
			<point x="104" y="540" type="line"/>
			<point x="187" y="543" type="line"/>
			<point x="187" y="207" type="line" smooth="yes"/>
			<point x="187" y="140"/>
			<point x="186" y="69"/>
			<point x="184" y="0" type="curve"/>
			<point x="383" y="0" type="line"/>
			<point x="381" y="69"/>
			<point x="380" y="140"/>
			<point x="380" y="207" type="curve" smooth="yes"/>
			<point x="380" y="484" type="line"/>
			<point x="383" y="627" type="line"/>
			<point x="371" y="636" type="line"/>
		</contour>
		<contour>
			<point x="376" y="51" type="line"/>
			<point x="195" y="51" type="line"/>
			<point x="73" y="30" type="line"/>
			<point x="73" y="0" type="line"/>
			<point x="486" y="0" type="line"/>
			<point x="486" y="30" type="line"/>
		</contour>
	</outline>
</glyph>
<glyph name="less" format="1">
	<unicode hex="003C"/>
	<advance width="550"/>
	<outline>
		<contour>
			<point x="30" y="299" type="line"/>
			<point x="471" y="81" type="line"/>
			<point x="498" y="135" type="line"/>
			<point x="77" y="333" type="line"/>
			<point x="77" y="309" type="line"/>
			<point x="498" y="507" type="line"/>
			<point x="471" y="561" type="line"/>
			<point x="30" y="343" type="line"/>
		</contour>
	</outline>
</glyph>
<glyph name="at" format="1">
	<unicode hex="0040"/>
	<advance width="913"/>
	<outline>
		<contour>
			<point x="440" y="116" type="curve" smooth="yes"/>
			<point x="408" y="116"/>
			<point x="381" y="144"/>
			<point x="381" y="205" type="curve" smooth="yes"/>
			<point x="381" y="271"/>
			<point x="398" y="328"/>
			<point x="429" y="378" type="curve" smooth="yes"/>
			<point x="452" y="414"/>
			<point x="479" y="428"/>
			<point x="499" y="428" type="curve" smooth="yes"/>
			<point x="517" y="428"/>
			<point x="533" y="418"/>
			<point x="541" y="386" type="curve"/>
			<point x="558" y="403" type="line"/>
			<point x="554" y="454"/>
			<point x="526" y="487"/>
			<point x="479" y="487" type="curve" smooth="yes"/>
			<point x="433" y="487"/>
			<point x="368" y="460"/>
			<point x="323" y="409" type="curve" smooth="yes"/>
			<point x="274" y="354"/>
			<point x="237" y="268"/>
			<point x="237" y="188" type="curve" smooth="yes"/>
			<point x="237" y="83"/>
			<point x="287" y="37"/>
			<point x="359" y="37" type="curve" smooth="yes"/>
			<point x="416" y="37"/>
			<point x="480" y="63"/>
			<point x="506" y="153" type="curve"/>
			<point x="497" y="167" type="line"/>
			<point x="478" y="127"/>
			<point x="460" y="116"/>
		</contour>
		<contour>
			<point x="515" y="622" type="curve" smooth="yes"/>
			<point x="693" y="622"/>
			<point x="824" y="504"/>
			<point x="824" y="326" type="curve" smooth="yes"/>
			<point x="824" y="169"/>
			<point x="734" y="73"/>
			<point x="666" y="73" type="curve" smooth="yes"/>
			<point x="629" y="73"/>
			<point x="619" y="93"/>
			<point x="635" y="190" type="curve"/>
			<point x="683" y="478" type="line"/>
			<point x="671" y="487" type="line"/>
			<point x="530" y="423" type="line"/>
			<point x="486" y="141" type="line"/>
			<point x="493" y="135" type="line"/>
			<point x="510" y="80"/>
			<point x="558" y="37"/>
			<point x="648" y="37" type="curve" smooth="yes"/>
			<point x="749" y="37"/>
			<point x="871" y="134"/>
			<point x="871" y="322" type="curve" smooth="yes"/>
			<point x="871" y="522"/>
			<point x="736" y="662"/>
			<point x="523" y="662" type="curve" smooth="yes"/>
			<point x="241" y="662"/>
			<point x="41" y="462"/>
			<point x="41" y="205" type="curve" smooth="yes"/>
			<point x="41" y="-33"/>
			<point x="203" y="-157"/>
			<point x="419" y="-157" type="curve" smooth="yes"/>
			<point x="518" y="-157"/>
			<point x="600" y="-130"/>
			<point x="667" y="-90" type="curve"/>
			<point x="649" y="-61" type="line"/>
			<point x="587" y="-95"/>
			<point x="507" y="-116"/>
			<point x="426" y="-116" type="curve" smooth="yes"/>
			<point x="232" y="-116"/>
			<point x="93" y="3"/>
			<point x="93" y="211" type="curve" smooth="yes"/>
			<point x="93" y="435"/>
			<point x="266" y="622"/>
		</contour>
	</outline>
</glyph>
<glyph name="E" format="1">
	<unicode hex="0045"/>
	<advance width="591"/>
	<outline>
		<contour>
			<point x="179" y="602" type="line"/>
			<point x="197" y="602" type="line"/>
			<point x="197" y="652" type="line"/>
			<point x="28" y="652" type="line"/>
			<point x="28" y="617" type="line"/>
		</contour>
		<contour>
			<point x="179" y="50" type="line"/>
			<point x="28" y="35" type="line"/>
			<point x="28" y="0" type="line"/>
			<point x="197" y="0" type="line"/>
			<point x="197" y="50" type="line"/>
		</contour>
		<contour>
			<point x="98" y="310" type="line" smooth="yes"/>
			<point x="98" y="205"/>
			<point x="98" y="101"/>
			<point x="95" y="0" type="curve"/>
			<point x="299" y="0" type="line"/>
			<point x="296" y="103"/>
			<point x="296" y="207"/>
			<point x="296" y="311" type="curve" smooth="yes"/>
			<point x="296" y="342" type="line" smooth="yes"/>
			<point x="296" y="447"/>
			<point x="296" y="551"/>
			<point x="299" y="652" type="curve"/>
			<point x="95" y="652" type="line"/>
			<point x="98" y="549"/>
			<point x="98" y="445"/>
			<point x="98" y="342" type="curve" smooth="yes"/>
		</contour>
		<contour>
			<point x="386" y="329" type="line"/>
			<point x="401" y="227" type="line"/>
			<point x="454" y="227" type="line"/>
			<point x="454" y="447" type="line"/>
			<point x="401" y="447" type="line"/>
			<point x="386" y="347" type="line"/>
		</contour>
		<contour>
			<point x="497" y="190" type="line"/>
			<point x="438" y="0" type="line"/>
			<point x="531" y="38" type="line"/>
			<point x="197" y="38" type="line"/>
			<point x="197" y="0" type="line"/>
			<point x="564" y="0" type="line"/>
			<point x="559" y="190" type="line"/>
		</contour>
		<contour>
			<point x="477" y="472" type="line"/>
			<point x="539" y="472" type="line"/>
			<point x="544" y="652" type="line"/>
			<point x="197" y="652" type="line"/>
			<point x="197" y="614" type="line"/>
			<point x="511" y="614" type="line"/>
			<point x="418" y="652" type="line"/>
		</contour>
		<contour>
			<point x="415" y="352" type="line"/>
			<point x="197" y="352" type="line"/>
			<point x="197" y="316" type="line"/>
			<point x="415" y="316" type="line"/>
		</contour>
		<contour>
			<point name="aboveUC" x="310" y="682" type="move"/>
		</contour>
		<contour>
			<point name="belowLC" x="324" y="-22" type="move"/>
		</contour>
		<contour>
			<point name="ogonek" x="452" y="0" type="move"/>
		</contour>
	</outline>
</glyph>
<glyph name="G" format="1">
	<unicode hex="0047"/>
	<advance width="672"/>
	<outline>
		<contour>
			<point x="454" y="273" type="line"/>
			<point x="537" y="273" type="line"/>
			<point x="657" y="291" type="line"/>
			<point x="657" y="326" type="line"/>
			<point x="335" y="326" type="line"/>
			<point x="335" y="291" type="line"/>
		</contour>
		<contour>
			<point x="607" y="79" type="line" smooth="yes"/>
			<point x="607" y="164"/>
			<point x="608" y="244"/>
			<point x="610" y="326" type="curve"/>
			<point x="418" y="326" type="line"/>
			<point x="420" y="242"/>
			<point x="421" y="167"/>
			<point x="421" y="84" type="curve" smooth="yes"/>
			<point x="421" y="-9" type="line"/>
			<point x="486" y="24" type="line"/>
			<point x="461" y="21"/>
			<point x="437" y="18"/>
			<point x="412" y="18" type="curve" smooth="yes"/>
			<point x="319" y="18"/>
			<point x="233" y="129"/>
			<point x="233" y="327" type="curve" smooth="yes"/>
			<point x="233" y="545"/>
			<point x="321" y="634"/>
			<point x="424" y="634" type="curve" smooth="yes"/>
			<point x="462" y="634"/>
			<point x="491" y="623"/>
			<point x="537" y="588" type="curve"/>
			<point x="537" y="628" type="line"/>
			<point x="448" y="661" type="line"/>
			<point x="514" y="457" type="line"/>
			<point x="578" y="457" type="line"/>
			<point x="584" y="627" type="line"/>
			<point x="531" y="655"/>
			<point x="467" y="672"/>
			<point x="397" y="672" type="curve" smooth="yes"/>
			<point x="175" y="672"/>
			<point x="28" y="545"/>
			<point x="28" y="328" type="curve" smooth="yes"/>
			<point x="28" y="103"/>
			<point x="174" y="-20"/>
			<point x="388" y="-20" type="curve" smooth="yes"/>
			<point x="475" y="-20"/>
			<point x="539" y="-2"/>
			<point x="607" y="38" type="curve"/>
		</contour>
		<contour>
			<point name="aboveUC" x="373" y="682" type="move"/>
		</contour>
		<contour>
			<point name="belowLC" x="398" y="-22" type="move"/>
		</contour>
	</outline>
</glyph>
<glyph name="I" format="1">
	<unicode hex="0049"/>
	<advance width="394"/>
	<outline>
		<contour>
			<point x="179" y="50" type="line"/>
			<point x="28" y="35" type="line"/>
			<point x="28" y="0" type="line"/>
			<point x="366" y="0" type="line"/>
			<point x="366" y="35" type="line"/>
			<point x="212" y="50" type="line"/>
		</contour>
		<contour>
			<point x="179" y="602" type="line"/>
			<point x="212" y="602" type="line"/>
			<point x="366" y="617" type="line"/>
			<point x="366" y="652" type="line"/>
			<point x="28" y="652" type="line"/>
			<point x="28" y="617" type="line"/>
		</contour>
		<contour>
			<point x="98" y="310" type="line" smooth="yes"/>
			<point x="98" y="205"/>
			<point x="98" y="101"/>
			<point x="95" y="0" type="curve"/>
			<point x="299" y="0" type="line"/>
			<point x="296" y="103"/>
			<point x="296" y="207"/>
			<point x="296" y="311" type="curve" smooth="yes"/>
			<point x="296" y="342" type="line" smooth="yes"/>
			<point x="296" y="447"/>
			<point x="296" y="551"/>
			<point x="299" y="652" type="curve"/>
			<point x="95" y="652" type="line"/>
			<point x="98" y="549"/>
			<point x="98" y="445"/>
			<point x="98" y="342" type="curve" smooth="yes"/>
		</contour>
		<contour>
			<point name="aboveUC" x="197" y="682" type="move"/>
		</contour>
		<contour>
			<point name="belowLC" x="197" y="-22" type="move"/>
		</contour>
		<contour>
			<point name="ogonek" x="249" y="0" type="move"/>
		</contour>
	</outline>
</glyph>
<glyph name="L" format="1">
	<unicode hex="004C"/>
	<advance width="574"/>
	<outline>
		<contour>
			<point x="180" y="50" type="line"/>
			<point x="29" y="35" type="line"/>
			<point x="28" y="0" type="line"/>
			<point x="197" y="0" type="line"/>
			<point x="198" y="50" type="line"/>
		</contour>
		<contour>
			<point x="179" y="602" type="line"/>
			<point x="222" y="602" type="line"/>
			<point x="377" y="617" type="line"/>
			<point x="377" y="652" type="line"/>
			<point x="28" y="652" type="line"/>
			<point x="28" y="617" type="line"/>
		</contour>
		<contour>
			<point x="98" y="342" type="curve" smooth="yes"/>
			<point x="98" y="275" type="line" smooth="yes"/>
			<point x="98" y="205"/>
			<point x="98" y="101"/>
			<point x="95" y="0" type="curve"/>
			<point x="299" y="0" type="line"/>
			<point x="296" y="103"/>
			<point x="296" y="207"/>
			<point x="296" y="311" type="curve" smooth="yes"/>
			<point x="296" y="370" type="line" smooth="yes"/>
			<point x="296" y="447"/>
			<point x="296" y="551"/>
			<point x="299" y="652" type="curve"/>
			<point x="95" y="652" type="line"/>
			<point x="98" y="549"/>
			<point x="98" y="445"/>
		</contour>
		<contour>
			<point x="491" y="209" type="line"/>
			<point x="428" y="0" type="line"/>
			<point x="522" y="38" type="line"/>
			<point x="198" y="38" type="line"/>
			<point x="197" y="0" type="line"/>
			<point x="554" y="0" type="line"/>
			<point x="549" y="209" type="line"/>
		</contour>
		<contour>
			<point name="aboveUC" x="202" y="682" type="move"/>
		</contour>
		<contour>
			<point name="belowLC" x="304" y="-22" type="move"/>
		</contour>
	</outline>
</glyph>
<glyph name="M" format="1">
	<unicode hex="004D"/>
	<advance width="893"/>
	<outline>
		<contour>
			<point x="8" y="0" type="line"/>
			<point x="257" y="0" type="line"/>
			<point x="257" y="35" type="line"/>
			<point x="148" y="50" type="line"/>
			<point x="123" y="50" type="line"/>
			<point x="8" y="35" type="line"/>
		</contour>
		<contour>
			<point x="22" y="617" type="line"/>
			<point x="129" y="602" type="line"/>
			<point x="147" y="602" type="line"/>
			<point x="147" y="652" type="line"/>
			<point x="22" y="652" type="line"/>
		</contour>
		<contour>
			<point x="108" y="0" type="line"/>
			<point x="160" y="0" type="line"/>
			<point x="160" y="272" type="line" smooth="yes"/>
			<point x="160" y="393"/>
			<point x="158" y="523"/>
			<point x="154" y="652" type="curve"/>
			<point x="113" y="652" type="line"/>
		</contour>
		<contour>
			<point x="351" y="0" type="line"/>
			<point x="412" y="0" type="line"/>
			<point x="638" y="652" type="line"/>
			<point x="596" y="652" type="line"/>
			<point x="443" y="211" type="line"/>
			<point x="471" y="211" type="line"/>
			<point x="313" y="652" type="line"/>
			<point x="117" y="652" type="line"/>
		</contour>
		<contour>
			<point x="527" y="0" type="line"/>
			<point x="865" y="0" type="line"/>
			<point x="865" y="35" type="line"/>
			<point x="711" y="50" type="line"/>
			<point x="678" y="50" type="line"/>
			<point x="527" y="35" type="line"/>
		</contour>
		<contour>
			<point x="594" y="0" type="curve"/>
			<point x="798" y="0" type="line"/>
			<point x="795" y="101"/>
			<point x="795" y="205"/>
			<point x="795" y="310" type="curve" smooth="yes"/>
			<point x="795" y="342" type="line" smooth="yes"/>
			<point x="795" y="445"/>
			<point x="795" y="549"/>
			<point x="798" y="652" type="curve"/>
			<point x="603" y="652" type="line"/>
			<point x="597" y="281" type="line" smooth="yes"/>
			<point x="596" y="207"/>
			<point x="597" y="103"/>
		</contour>
		<contour>
			<point x="696" y="602" type="line"/>
			<point x="714" y="602" type="line"/>
			<point x="865" y="617" type="line"/>
			<point x="865" y="652" type="line"/>
			<point x="696" y="652" type="line"/>
		</contour>
		<contour>
			<point name="aboveUC" x="441" y="682" type="move"/>
		</contour>
		<contour>
			<point name="belowLC" x="392" y="-22" type="move"/>
		</contour>
	</outline>
</glyph>
<glyph name="N" format="1">
	<unicode hex="004E"/>
	<advance width="725"/>
	<outline>
		<contour>
			<point x="14" y="0" type="line"/>
			<point x="267" y="0" type="line"/>
			<point x="267" y="35" type="line"/>
			<point x="138" y="50" type="line"/>
			<point x="106" y="50" type="line"/>
			<point x="14" y="35" type="line"/>
		</contour>
		<contour>
			<point x="511" y="0" type="line"/>
			<point x="616" y="0" type="line"/>
			<point x="616" y="200" type="line"/>
			<point x="279" y="652" type="line"/>
			<point x="24" y="652" type="line"/>
			<point x="24" y="617" type="line"/>
			<point x="128" y="602" type="line"/>
			<point x="67" y="623" type="line"/>
		</contour>
		<contour>
			<point x="92" y="0" type="line"/>
			<point x="146" y="0" type="line"/>
			<point x="138" y="652" type="line"/>
			<point x="100" y="652" type="line"/>
		</contour>
		<contour>
			<point x="448" y="617" type="line"/>
			<point x="578" y="602" type="line"/>
			<point x="609" y="602" type="line"/>
			<point x="701" y="617" type="line"/>
			<point x="701" y="652" type="line"/>
			<point x="448" y="652" type="line"/>
		</contour>
		<contour>
			<point x="578" y="44" type="line"/>
			<point x="616" y="0" type="line"/>
			<point x="624" y="652" type="line"/>
			<point x="570" y="652" type="line"/>
		</contour>
		<contour>
			<point name="aboveUC" x="358" y="682" type="move"/>
		</contour>
		<contour>
			<point name="belowLC" x="381" y="-22" type="move"/>
		</contour>
	</outline>
</glyph>
<glyph name="P" format="1">
	<unicode hex="0050"/>
	<advance width="622"/>
	<outline>
		<contour>
			<point x="179" y="602" type="line"/>
			<point x="197" y="602" type="line"/>
			<point x="197" y="652" type="line"/>
			<point x="28" y="652" type="line"/>
			<point x="28" y="617" type="line"/>
		</contour>
		<contour>
			<point x="179" y="50" type="line"/>
			<point x="28" y="35" type="line"/>
			<point x="28" y="0" type="line"/>
			<point x="386" y="0" type="line"/>
			<point x="386" y="35" type="line"/>
			<point x="235" y="50" type="line"/>
		</contour>
		<contour>
			<point x="98" y="310" type="line" smooth="yes"/>
			<point x="98" y="205"/>
			<point x="98" y="101"/>
			<point x="95" y="0" type="curve"/>
			<point x="299" y="0" type="line"/>
			<point x="296" y="103"/>
			<point x="296" y="207"/>
			<point x="296" y="281" type="curve" smooth="yes"/>
			<point x="296" y="342" type="line" smooth="yes"/>
			<point x="296" y="447"/>
			<point x="296" y="551"/>
			<point x="299" y="652" type="curve"/>
			<point x="95" y="652" type="line"/>
			<point x="98" y="549"/>
			<point x="98" y="445"/>
			<point x="98" y="342" type="curve" smooth="yes"/>
		</contour>
		<contour>
			<point x="608" y="455" type="curve" smooth="yes"/>
			<point x="608" y="582"/>
			<point x="526" y="652"/>
			<point x="301" y="652" type="curve" smooth="yes"/>
			<point x="197" y="652" type="line"/>
			<point x="197" y="614" type="line"/>
			<point x="306" y="614" type="line" smooth="yes"/>
			<point x="380" y="614"/>
			<point x="427" y="562"/>
			<point x="427" y="456" type="curve" smooth="yes"/>
			<point x="427" y="359"/>
			<point x="385" y="294"/>
			<point x="310" y="294" type="curve" smooth="yes"/>
			<point x="196" y="294" type="line"/>
			<point x="196" y="256" type="line"/>
			<point x="314" y="256" type="line" smooth="yes"/>
			<point x="536" y="256"/>
			<point x="608" y="346"/>
		</contour>
		<contour>
			<point name="aboveUC" x="300" y="682" type="move"/>
		</contour>
		<contour>
			<point name="belowLC" x="205" y="-22" type="move"/>
		</contour>
	</outline>
</glyph>
<glyph name="S" format="1">
	<unicode hex="0053"/>
	<advance width="553"/>
	<outline>
		<contour>
			<point x="238" y="23" type="curve" smooth="yes"/>
			<point x="182" y="23"/>
			<point x="146" y="33"/>
			<point x="87" y="70" type="curve"/>
			<point x="103" y="28" type="line"/>
			<point x="179" y="0" type="line"/>
			<point x="113" y="194" type="line"/>
			<point x="47" y="194" type="line"/>
			<point x="41" y="32" type="line"/>
			<point x="101" y="-5"/>
			<point x="185" y="-20"/>
			<point x="257" y="-20" type="curve" smooth="yes"/>
			<point x="441" y="-20"/>
			<point x="528" y="68"/>
			<point x="528" y="186" type="curve" smooth="yes"/>
			<point x="528" y="290"/>
			<point x="475" y="344"/>
			<point x="349" y="404" type="curve" smooth="yes"/>
			<point x="299" y="428" type="line" smooth="yes"/>
			<point x="244" y="454"/>
			<point x="217" y="483"/>
			<point x="217" y="537" type="curve" smooth="yes"/>
			<point x="217" y="592"/>
			<point x="259" y="629"/>
			<point x="327" y="629" type="curve" smooth="yes"/>
			<point x="371" y="629"/>
			<point x="395" y="614"/>
			<point x="451" y="572" type="curve"/>
			<point x="438" y="618" type="line"/>
			<point x="354" y="649" type="line"/>
			<point x="417" y="468" type="line"/>
			<point x="481" y="468" type="line"/>
			<point x="490" y="622" type="line"/>
			<point x="441" y="653"/>
			<point x="370" y="672"/>
			<point x="301" y="672" type="curve" smooth="yes"/>
			<point x="140" y="672"/>
			<point x="43" y="598"/>
			<point x="43" y="476" type="curve" smooth="yes"/>
			<point x="43" y="362"/>
			<point x="110" y="302"/>
			<point x="234" y="243" type="curve" smooth="yes"/>
			<point x="278" y="222" type="line" smooth="yes"/>
			<point x="329" y="198"/>
			<point x="349" y="171"/>
			<point x="349" y="118" type="curve" smooth="yes"/>
			<point x="349" y="63"/>
			<point x="314" y="23"/>
		</contour>
		<contour>
			<point name="aboveUC" x="285" y="682" type="move"/>
		</contour>
		<contour>
			<point name="belowLC" x="266" y="-22" type="move"/>
		</contour>
		<contour>
			<point name="baseLC" x="263" y="0" type="move"/>
		</contour>
	</outline>
</glyph>
<glyph name="X" format="1">
	<unicode hex="0058"/>
	<advance width="657"/>
	<outline>
		<contour>
			<point x="23" y="0" type="line"/>
			<point x="219" y="0" type="line"/>
			<point x="219" y="34" type="line"/>
			<point x="134" y="49" type="line"/>
			<point x="108" y="50" type="line"/>
			<point x="23" y="35" type="line"/>
		</contour>
		<contour>
			<point x="11" y="617" type="line"/>
			<point x="150" y="602" type="line"/>
			<point x="212" y="602" type="line"/>
			<point x="358" y="617" type="line"/>
			<point x="358" y="652" type="line"/>
			<point x="11" y="652" type="line"/>
		</contour>
		<contour>
			<point x="63" y="0" type="line"/>
			<point x="125" y="0" type="line"/>
			<point x="318" y="344" type="line"/>
			<point x="291" y="355" type="line"/>
		</contour>
		<contour>
			<point x="389" y="0" type="line"/>
			<point x="602" y="0" type="line"/>
			<point x="269" y="652" type="line"/>
			<point x="56" y="652" type="line"/>
		</contour>
		<contour>
			<point x="335" y="356" type="line"/>
			<point x="365" y="349" type="line"/>
			<point x="560" y="652" type="line"/>
			<point x="502" y="652" type="line"/>
		</contour>
		<contour>
			<point x="297" y="0" type="line"/>
			<point x="646" y="0" type="line"/>
			<point x="646" y="35" type="line"/>
			<point x="503" y="50" type="line"/>
			<point x="448" y="50" type="line"/>
			<point x="297" y="35" type="line"/>
		</contour>
		<contour>
			<point x="413" y="617" type="line"/>
			<point x="495" y="605" type="line"/>
			<point x="522" y="605" type="line"/>
			<point x="614" y="617" type="line"/>
			<point x="614" y="652" type="line"/>
			<point x="413" y="652" type="line"/>
		</contour>
		<contour>
			<point name="aboveUC" x="338" y="682" type="move"/>
		</contour>
		<contour>
			<point name="belowLC" x="300" y="-22" type="move"/>
		</contour>
	</outline>
</glyph>
<glyph name="Z" format="1">
	<unicode hex="005A"/>
	<advance width="568"/>
	<outline>
		<contour>
			<point x="484" y="209" type="line"/>
			<point x="413" y="0" type="line"/>
			<point x="507" y="38" type="line"/>
			<point x="117" y="38" type="line"/>
			<point x="117" y="0" type="line"/>
			<point x="540" y="0" type="line"/>
			<point x="542" y="209" type="line"/>
		</contour>
		<contour>
			<point x="98" y="453" type="line"/>
			<point x="164" y="652" type="line"/>
			<point x="72" y="614" type="line"/>
			<point x="443" y="614" type="line"/>
			<point x="443" y="652" type="line"/>
			<point x="43" y="652" type="line"/>
			<point x="32" y="453" type="line"/>
		</contour>
		<contour>
			<point x="351" y="652" type="line"/>
			<point x="20" y="50" type="line"/>
			<point x="20" y="0" type="line"/>
			<point x="211" y="0" type="line"/>
			<point x="542" y="602" type="line"/>
			<point x="542" y="652" type="line"/>
		</contour>
		<contour>
			<point name="aboveUC" x="299" y="682" type="move"/>
		</contour>
		<contour>
			<point name="belowLC" x="292" y="-22" type="move"/>
		</contour>
	</outline>
</glyph>
<glyph name="backslash" format="1">
	<unicode hex="005C"/>
	<advance width="410"/>
	<outline>
		<contour>
			<point x="388" y="-160" type="line"/>
			<point x="121" y="710" type="line"/>
			<point x="21" y="710" type="line"/>
			<point x="288" y="-160" type="line"/>
		</contour>
	</outline>
</glyph>
<glyph name="asciicircum" format="1">
	<unicode hex="005E"/>
	<advance width="550"/>
	<outline>
		<contour>
			<point x="62" y="215" type="line"/>
			<point x="113" y="181" type="line"/>
			<point x="291" y="468" type="line"/>
			<point x="258" y="468" type="line"/>
			<point x="436" y="181" type="line"/>
			<point x="487" y="215" type="line"/>
			<point x="300" y="514" type="line"/>
			<point x="249" y="514" type="line"/>
		</contour>
	</outline>
</glyph>
<glyph name="b" format="1">
	<unicode hex="0062"/>
	<advance width="623"/>
	<outline>
		<contour>
			<point x="28" y="0" type="line"/>
			<point x="233" y="-16" type="line"/>
			<point x="264" y="56" type="line"/>
			<point x="264" y="428" type="line"/>
			<point x="261" y="437" type="line"/>
			<point x="261" y="571" type="line"/>
			<point x="264" y="712" type="line"/>
			<point x="252" y="721" type="line"/>
			<point x="20" y="676" type="line"/>
			<point x="20" y="651" type="line"/>
			<point x="74" y="644" type="line"/>
			<point x="74" y="210" type="line" smooth="yes"/>
			<point x="74" y="148"/>
			<point x="73" y="45"/>
			<point x="71" y="0" type="curve"/>
			<point x="116" y="40" type="line"/>
			<point x="28" y="30" type="line"/>
		</contour>
		<contour>
			<point x="303" y="63" type="curve" smooth="yes"/>
			<point x="279" y="63"/>
			<point x="260" y="68"/>
			<point x="244" y="86" type="curve"/>
			<point x="233" y="74" type="line"/>
			<point x="268" y="16"/>
			<point x="322" y="-16"/>
			<point x="392" y="-16" type="curve" smooth="yes"/>
			<point x="516" y="-16"/>
			<point x="601" y="99"/>
			<point x="601" y="244" type="curve" smooth="yes"/>
			<point x="601" y="419"/>
			<point x="513" y="503"/>
			<point x="403" y="503" type="curve" smooth="yes"/>
			<point x="331" y="503"/>
			<point x="272" y="471"/>
			<point x="226" y="407" type="curve"/>
			<point x="237" y="398" type="line"/>
			<point x="258" y="420"/>
			<point x="276" y="427"/>
			<point x="306" y="427" type="curve" smooth="yes"/>
			<point x="360" y="427"/>
			<point x="399" y="385"/>
			<point x="399" y="249" type="curve" smooth="yes"/>
			<point x="399" y="89"/>
			<point x="355" y="63"/>
		</contour>
		<contour>
			<point name="aboveLC" x="162" y="710" type="move"/>
		</contour>
		<contour>
			<point name="belowLC" x="294" y="-22" type="move"/>
		</contour>
	</outline>
</glyph>
<glyph name="c" format="1">
	<unicode hex="0063"/>
	<advance width="523"/>
	<outline>
		<contour>
			<point x="337" y="469" type="curve" smooth="yes"/>
			<point x="364" y="469"/>
			<point x="387" y="462"/>
			<point x="417" y="449" type="curve"/>
			<point x="334" y="492" type="line"/>
			<point x="337" y="407" type="line" smooth="yes"/>
			<point x="340" y="319"/>
			<point x="381" y="293"/>
			<point x="426" y="293" type="curve" smooth="yes"/>
			<point x="463" y="293"/>
			<point x="486" y="311"/>
			<point x="499" y="351" type="curve"/>
			<point x="494" y="433"/>
			<point x="420" y="503"/>
			<point x="308" y="503" type="curve" smooth="yes"/>
			<point x="147" y="503"/>
			<point x="22" y="410"/>
			<point x="22" y="242" type="curve" smooth="yes"/>
			<point x="22" y="70"/>
			<point x="145" y="-16"/>
			<point x="281" y="-16" type="curve" smooth="yes"/>
			<point x="382" y="-16"/>
			<point x="452" y="26"/>
			<point x="495" y="105" type="curve"/>
			<point x="474" y="119" type="line"/>
			<point x="446" y="85"/>
			<point x="415" y="63"/>
			<point x="368" y="63" type="curve" smooth="yes"/>
			<point x="279" y="63"/>
			<point x="222" y="133"/>
			<point x="222" y="262" type="curve" smooth="yes"/>
			<point x="222" y="398"/>
			<point x="271" y="469"/>
		</contour>
		<contour>
			<point name="aboveLC" x="293" y="520" type="move"/>
		</contour>
		<contour>
			<point name="belowLC" x="286" y="-22" type="move"/>
		</contour>
		<contour>
			<point name="baseLC" x="286" y="0" type="move"/>
		</contour>
	</outline>
</glyph>
<glyph name="f" format="1">
	<unicode hex="0066"/>
	<advance width="365"/>
	<outline>
		<contour>
			<point x="254" y="40" type="line"/>
			<point x="120" y="40" type="line"/>
			<point x="27" y="30" type="line"/>
			<point x="27" y="0" type="line"/>
			<point x="337" y="0" type="line"/>
			<point x="337" y="30" type="line"/>
		</contour>
		<contour>
			<point x="170" y="487" type="line"/>
			<point x="170" y="446" type="line"/>
			<point x="356" y="446" type="line"/>
			<point x="356" y="487" type="line"/>
		</contour>
		<contour>
			<point x="74" y="210" type="line" smooth="yes"/>
			<point x="74" y="140"/>
			<point x="73" y="70"/>
			<point x="71" y="0" type="curve"/>
			<point x="267" y="0" type="line"/>
			<point x="265" y="70"/>
			<point x="264" y="140"/>
			<point x="264" y="210" type="curve" smooth="yes"/>
			<point x="264" y="451" type="line"/>
			<point x="256" y="561"/>
			<point x="257" y="636"/>
			<point x="289" y="688" type="curve" smooth="yes"/>
			<point x="296" y="700"/>
			<point x="325" y="716"/>
			<point x="361" y="716" type="curve" smooth="yes"/>
			<point x="373" y="716"/>
			<point x="383" y="704"/>
			<point x="393" y="692" type="curve"/>
			<point x="387" y="721" type="line"/>
			<point x="284" y="710" type="line"/>
			<point x="301" y="663" type="line" smooth="yes"/>
			<point x="324" y="598"/>
			<point x="354" y="577"/>
			<point x="396" y="577" type="curve" smooth="yes"/>
			<point x="444" y="577"/>
			<point x="472" y="609"/>
			<point x="472" y="652" type="curve"/>
			<point x="459" y="712"/>
			<point x="402" y="731"/>
			<point x="343" y="731" type="curve" smooth="yes"/>
			<point x="281" y="731"/>
			<point x="221" y="712"/>
			<point x="165" y="663" type="curve" smooth="yes"/>
			<point x="125" y="628"/>
			<point x="84" y="574"/>
			<point x="74" y="459" type="curve"/>
			<point x="138" y="493" type="line"/>
			<point x="17" y="478" type="line"/>
			<point x="17" y="446" type="line"/>
			<point x="74" y="446" type="line"/>
		</contour>
		<contour>
			<point name="aboveLC" x="293" y="740" type="move"/>
		</contour>
		<contour>
			<point name="belowLC" x="172" y="-22" type="move"/>
		</contour>
	</outline>
</glyph>
<glyph name="k" format="1">
	<unicode hex="006B"/>
	<advance width="619"/>
	<outline>
		<contour>
			<point x="489" y="447" type="line"/>
			<point x="590" y="457" type="line"/>
			<point x="590" y="487" type="line"/>
			<point x="356" y="487" type="line"/>
			<point x="356" y="457" type="line"/>
			<point x="469" y="444" type="line"/>
		</contour>
		<contour>
			<point x="485" y="487" type="line"/>
			<point x="165" y="185" type="line"/>
			<point x="165" y="149" type="line"/>
			<point x="550" y="487" type="line"/>
		</contour>
		<contour>
			<point x="20" y="676" type="line"/>
			<point x="20" y="651" type="line"/>
			<point x="74" y="644" type="line"/>
			<point x="74" y="210" type="line" smooth="yes"/>
			<point x="74" y="155"/>
			<point x="73" y="32"/>
			<point x="71" y="0" type="curve"/>
			<point x="267" y="0" type="line"/>
			<point x="265" y="32"/>
			<point x="264" y="155"/>
			<point x="264" y="220" type="curve" smooth="yes"/>
			<point x="264" y="571" type="line"/>
			<point x="267" y="712" type="line"/>
			<point x="255" y="721" type="line"/>
		</contour>
		<contour>
			<point x="211" y="40" type="line"/>
			<point x="113" y="40" type="line"/>
			<point x="27" y="30" type="line"/>
			<point x="27" y="0" type="line"/>
			<point x="308" y="0" type="line"/>
			<point x="308" y="30" type="line"/>
		</contour>
		<contour>
			<point x="578" y="16" type="line"/>
			<point x="413" y="376" type="line"/>
			<point x="280" y="259" type="line"/>
			<point x="385" y="0" type="line"/>
			<point x="617" y="0" type="line"/>
			<point x="617" y="30" type="line"/>
			<point x="473" y="50" type="line"/>
		</contour>
		<contour>
			<point name="aboveLC" x="165" y="710" type="move"/>
		</contour>
		<contour>
			<point name="belowLC" x="339" y="-22" type="move"/>
		</contour>
	</outline>
</glyph>
<glyph name="l" format="1">
	<unicode hex="006C"/>
	<advance width="334"/>
	<outline>
		<contour>
			<point x="213" y="40" type="line"/>
			<point x="116" y="40" type="line"/>
			<point x="27" y="30" type="line"/>
			<point x="27" y="0" type="line"/>
			<point x="311" y="0" type="line"/>
			<point x="311" y="30" type="line"/>
		</contour>
		<contour>
			<point x="20" y="676" type="line"/>
			<point x="20" y="651" type="line"/>
			<point x="74" y="644" type="line"/>
			<point x="74" y="210" type="line" smooth="yes"/>
			<point x="74" y="140"/>
			<point x="73" y="70"/>
			<point x="71" y="0" type="curve"/>
			<point x="267" y="0" type="line"/>
			<point x="265" y="70"/>
			<point x="264" y="140"/>
			<point x="264" y="210" type="curve" smooth="yes"/>
			<point x="264" y="571" type="line"/>
			<point x="267" y="712" type="line"/>
			<point x="255" y="721" type="line"/>
		</contour>
		<contour>
			<point name="aboveLC" x="161" y="710" type="move"/>
		</contour>
		<contour>
			<point name="belowLC" x="175" y="-22" type="move"/>
		</contour>
	</outline>
</glyph>
<glyph name="q" format="1">
	<unicode hex="0071"/>
	<advance width="594"/>
	<outline>
		<contour>
			<point x="224" y="242" type="curve" smooth="yes"/>
			<point x="224" y="381"/>
			<point x="261" y="427"/>
			<point x="320" y="427" type="curve" smooth="yes"/>
			<point x="341" y="427"/>
			<point x="361" y="421"/>
			<point x="381" y="402" type="curve"/>
			<point x="393" y="412" type="line"/>
			<point x="363" y="472"/>
			<point x="314" y="503"/>
			<point x="252" y="503" type="curve" smooth="yes"/>
			<point x="124" y="503"/>
			<point x="22" y="403"/>
			<point x="22" y="240" type="curve" smooth="yes"/>
			<point x="22" y="70"/>
			<point x="110" y="-16"/>
			<point x="220" y="-16" type="curve" smooth="yes"/>
			<point x="289" y="-16"/>
			<point x="347" y="15"/>
			<point x="388" y="74" type="curve"/>
			<point x="382" y="82" type="line"/>
			<point x="363" y="70"/>
			<point x="345" y="63"/>
			<point x="323" y="63" type="curve" smooth="yes"/>
			<point x="263" y="63"/>
			<point x="224" y="103"/>
		</contour>
		<contour>
			<point x="376" y="-182" type="line"/>
			<point x="303" y="-192" type="line"/>
			<point x="303" y="-222" type="line"/>
			<point x="584" y="-222" type="line"/>
			<point x="584" y="-192" type="line"/>
			<point x="501" y="-182" type="line"/>
		</contour>
		<contour>
			<point x="545" y="-12" type="curve" smooth="yes"/>
			<point x="545" y="358" type="line"/>
			<point x="548" y="494" type="line"/>
			<point x="536" y="503" type="line"/>
			<point x="355" y="433" type="line"/>
			<point x="355" y="62" type="line"/>
			<point x="358" y="48" type="line"/>
			<point x="358" y="-12" type="line" smooth="yes"/>
			<point x="358" y="-82"/>
			<point x="357" y="-152"/>
			<point x="355" y="-222" type="curve"/>
			<point x="548" y="-222" type="line"/>
			<point x="546" y="-152"/>
			<point x="545" y="-82"/>
		</contour>
		<contour>
			<point name="aboveLC" x="336" y="520" type="move"/>
		</contour>
		<contour>
			<point name="belowLC" x="448" y="-240" type="move"/>
		</contour>
	</outline>
</glyph>
<glyph name="v" format="1">
	<unicode hex="0076"/>
	<advance width="536"/>
	<outline>
		<contour>
			<point x="460" y="447" type="line"/>
			<point x="531" y="457" type="line"/>
			<point x="531" y="487" type="line"/>
			<point x="363" y="487" type="line"/>
			<point x="363" y="457" type="line"/>
			<point x="436" y="447" type="line"/>
		</contour>
		<contour>
			<point x="24" y="487" type="line"/>
			<point x="216" y="0" type="line"/>
			<point x="296" y="0" type="line"/>
			<point x="483" y="487" type="line"/>
			<point x="433" y="487" type="line"/>
			<point x="289" y="41" type="line"/>
			<point x="344" y="142" type="line"/>
			<point x="227" y="487" type="line"/>
		</contour>
		<contour>
			<point x="207" y="447" type="line"/>
			<point x="291" y="457" type="line"/>
			<point x="291" y="487" type="line"/>
			<point x="-10" y="487" type="line"/>
			<point x="-10" y="457" type="line"/>
			<point x="73" y="447" type="line"/>
		</contour>
		<contour>
			<point name="aboveLC" x="299" y="520" type="move"/>
		</contour>
		<contour>
			<point name="belowLC" x="262" y="-22" type="move"/>
		</contour>
	</outline>
</glyph>
<glyph name="x" format="1">
	<unicode hex="0078"/>
	<advance width="563"/>
	<outline>
		<contour>
			<point x="30" y="487" type="line"/>
			<point x="205" y="192" type="line"/>
			<point x="319" y="0" type="line"/>
			<point x="540" y="0" type="line"/>
			<point x="355" y="307" type="line"/>
			<point x="246" y="487" type="line"/>
		</contour>
		<contour>
			<point x="82" y="39" type="line"/>
			<point x="5" y="30" type="line"/>
			<point x="5" y="0" type="line"/>
			<point x="185" y="0" type="line"/>
			<point x="185" y="30" type="line"/>
			<point x="120" y="39" type="line"/>
		</contour>
		<contour>
			<point x="219" y="447" type="line"/>
			<point x="320" y="457" type="line"/>
			<point x="320" y="487" type="line"/>
			<point x="12" y="487" type="line"/>
			<point x="12" y="457" type="line"/>
			<point x="117" y="447" type="line"/>
		</contour>
		<contour>
			<point x="388" y="40" type="line"/>
			<point x="243" y="30" type="line"/>
			<point x="244" y="0" type="line"/>
			<point x="553" y="0" type="line"/>
			<point x="553" y="30" type="line"/>
			<point x="441" y="40" type="line"/>
		</contour>
		<contour>
			<point x="476" y="448" type="line"/>
			<point x="537" y="457" type="line"/>
			<point x="537" y="487" type="line"/>
			<point x="372" y="487" type="line"/>
			<point x="372" y="457" type="line"/>
			<point x="439" y="448" type="line"/>
		</contour>
		<contour>
			<point x="109" y="0" type="line"/>
			<point x="280" y="292" type="line"/>
			<point x="263" y="307" type="line"/>
			<point x="48" y="0" type="line"/>
		</contour>
		<contour>
			<point x="447" y="487" type="line"/>
			<point x="288" y="219" type="line"/>
			<point x="305" y="203" type="line"/>
			<point x="507" y="487" type="line"/>
		</contour>
		<contour>
			<point name="aboveLC" x="288" y="520" type="move"/>
		</contour>
		<contour>
			<point name="belowLC" x="258" y="-22" type="move"/>
		</contour>
	</outline>
</glyph>
<glyph name="y" format="1">
	<unicode hex="0079"/>
	<advance width="543"/>
	<outline>
		<contour>
			<point x="469" y="448" type="line"/>
			<point x="543" y="457" type="line"/>
			<point x="543" y="487" type="line"/>
			<point x="363" y="487" type="line"/>
			<point x="363" y="457" type="line"/>
			<point x="450" y="448" type="line"/>
		</contour>
		<contour>
			<point x="220" y="447" type="line"/>
			<point x="293" y="458" type="line"/>
			<point x="293" y="487" type="line"/>
			<point x="-5" y="487" type="line"/>
			<point x="-5" y="457" type="line"/>
			<point x="83" y="447" type="line"/>
		</contour>
		<contour>
			<point x="351" y="137" type="line"/>
			<point x="226" y="487" type="line"/>
			<point x="23" y="487" type="line"/>
			<point x="269" y="-81" type="line"/>
		</contour>
		<contour>
			<point x="109" y="-232" type="curve" smooth="yes"/>
			<point x="160" y="-232"/>
			<point x="240" y="-199"/>
			<point x="290" y="-67" type="curve" smooth="yes"/>
			<point x="500" y="487" type="line"/>
			<point x="449" y="487" type="line"/>
			<point x="333" y="113" type="line"/>
			<point x="275" y="-26" type="line" smooth="yes"/>
			<point x="238" y="-116"/>
			<point x="212" y="-158"/>
			<point x="162" y="-194" type="curve"/>
			<point x="173" y="-210" type="line"/>
			<point x="215" y="-181" type="line"/>
			<point x="187" y="-138" type="line" smooth="yes"/>
			<point x="164" y="-103"/>
			<point x="134" y="-80"/>
			<point x="92" y="-80" type="curve" smooth="yes"/>
			<point x="52" y="-80"/>
			<point x="10" y="-101"/>
			<point x="2" y="-151" type="curve"/>
			<point x="2" y="-196"/>
			<point x="54" y="-232"/>
		</contour>
		<contour>
			<point name="aboveLC" x="300" y="520" type="move"/>
		</contour>
		<contour>
			<point name="belowLC" x="153" y="-240" type="move"/>
		</contour>
	</outline>
</glyph>
<glyph name="cent" format="1">
	<unicode hex="00A2"/>
	<advance width="560"/>
	<outline>
		<contour>
			<point x="358" y="-45" type="line"/>
			<point x="358" y="650" type="line"/>
			<point x="308" y="650" type="line"/>
			<point x="308" y="-45" type="line"/>
		</contour>
		<contour>
			<point x="364" y="532" type="curve" smooth="yes"/>
			<point x="387" y="532"/>
			<point x="408" y="528"/>
			<point x="445" y="512" type="curve"/>
			<point x="381" y="547" type="line"/>
			<point x="400" y="436" type="line" smooth="yes"/>
			<point x="410" y="377"/>
			<point x="438" y="361"/>
			<point x="473" y="361" type="curve" smooth="yes"/>
			<point x="506" y="361"/>
			<point x="531" y="378"/>
			<point x="541" y="414" type="curve"/>
			<point x="536" y="502"/>
			<point x="461" y="566"/>
			<point x="331" y="566" type="curve" smooth="yes"/>
			<point x="151" y="566"/>
			<point x="30" y="465"/>
			<point x="30" y="305" type="curve" smooth="yes"/>
			<point x="30" y="145"/>
			<point x="169" y="46"/>
			<point x="319" y="46" type="curve" smooth="yes"/>
			<point x="422" y="46"/>
			<point x="494" y="92"/>
			<point x="534" y="163" type="curve"/>
			<point x="511" y="179" type="line"/>
			<point x="469" y="139"/>
			<point x="422" y="124"/>
			<point x="377" y="124" type="curve" smooth="yes"/>
			<point x="282" y="124"/>
			<point x="210" y="193"/>
			<point x="210" y="334" type="curve" smooth="yes"/>
			<point x="210" y="463"/>
			<point x="275" y="532"/>
		</contour>
	</outline>
</glyph>
<glyph name="copyright" format="1">
	<unicode hex="00A9"/>
	<advance width="740"/>
	<outline>
		<contour>
			<point x="79" y="326" type="curve" smooth="yes"/>
			<point x="79" y="512"/>
			<point x="215" y="632"/>
			<point x="371" y="632" type="curve" smooth="yes"/>
			<point x="527" y="632"/>
			<point x="663" y="512"/>
			<point x="663" y="326" type="curve" smooth="yes"/>
			<point x="663" y="141"/>
			<point x="527" y="20"/>
			<point x="371" y="20" type="curve" smooth="yes"/>
			<point x="215" y="20"/>
			<point x="79" y="141"/>
		</contour>
		<contour>
			<point x="30" y="326" type="curve" smooth="yes"/>
			<point x="30" y="117"/>
			<point x="191" y="-20"/>
			<point x="371" y="-20" type="curve" smooth="yes"/>
			<point x="551" y="-20"/>
			<point x="711" y="117"/>
			<point x="711" y="326" type="curve" smooth="yes"/>
			<point x="711" y="536"/>
			<point x="551" y="672"/>
			<point x="371" y="672" type="curve" smooth="yes"/>
			<point x="191" y="672"/>
			<point x="30" y="536"/>
		</contour>
		<contour>
			<point x="423" y="150" type="curve" smooth="yes"/>
			<point x="361" y="150"/>
			<point x="310" y="208"/>
			<point x="310" y="327" type="curve" smooth="yes"/>
			<point x="310" y="446"/>
			<point x="361" y="506"/>
			<point x="424" y="506" type="curve" smooth="yes"/>
			<point x="448" y="506"/>
			<point x="467" y="501"/>
			<point x="489" y="482" type="curve"/>
			<point x="438" y="525" type="line"/>
			<point x="476" y="395" type="line"/>
			<point x="515" y="395" type="line"/>
			<point x="512" y="506" type="line"/>
			<point x="480" y="524"/>
			<point x="447" y="536"/>
			<point x="397" y="536" type="curve" smooth="yes"/>
			<point x="286" y="536"/>
			<point x="181" y="470"/>
			<point x="181" y="325" type="curve" smooth="yes"/>
			<point x="181" y="186"/>
			<point x="278" y="120"/>
			<point x="391" y="120" type="curve" smooth="yes"/>
			<point x="445" y="120"/>
			<point x="487" y="135"/>
			<point x="516" y="152" type="curve"/>
			<point x="518" y="261" type="line"/>
			<point x="479" y="261" type="line"/>
			<point x="442" y="133" type="line"/>
			<point x="493" y="173" type="line"/>
			<point x="469" y="156"/>
			<point x="446" y="150"/>
		</contour>
	</outline>
</glyph>
<glyph name="degree" format="1">
	<unicode hex="00B0"/>
	<advance width="328"/>
	<outline>
		<contour>
			<point x="164" y="441" type="curve" smooth="yes"/>
			<point x="114" y="441"/>
			<point x="77" y="475"/>
			<point x="77" y="535" type="curve" smooth="yes"/>
			<point x="77" y="595"/>
			<point x="114" y="630"/>
			<point x="164" y="630" type="curve" smooth="yes"/>
			<point x="214" y="630"/>
			<point x="251" y="595"/>
			<point x="251" y="535" type="curve" smooth="yes"/>
			<point x="251" y="475"/>
			<point x="214" y="441"/>
		</contour>
		<contour>
			<point x="164" y="399" type="curve" smooth="yes"/>
			<point x="234" y="399"/>
			<point x="299" y="450"/>
			<point x="299" y="535" type="curve" smooth="yes"/>
			<point x="299" y="620"/>
			<point x="234" y="672"/>
			<point x="164" y="672" type="curve" smooth="yes"/>
			<point x="94" y="672"/>
			<point x="29" y="620"/>
			<point x="29" y="535" type="curve" smooth="yes"/>
			<point x="29" y="450"/>
			<point x="94" y="399"/>
		</contour>
	</outline>
</glyph>
<glyph name="two.sups" format="1">
	<unicode hex="00B2"/>
	<advance width="374"/>
	<outline>
		<contour>
			<point x="43" y="406" type="line"/>
			<point x="340" y="406" type="line"/>
			<point x="340" y="472" type="line"/>
			<point x="88" y="472" type="line"/>
			<point x="86" y="461" type="line"/>
			<point x="162" y="518" type="line" smooth="yes"/>
			<point x="272" y="600"/>
			<point x="335" y="641"/>
			<point x="335" y="698" type="curve" smooth="yes"/>
			<point x="335" y="758"/>
			<point x="293" y="803"/>
			<point x="197" y="803" type="curve" smooth="yes"/>
			<point x="112" y="803"/>
			<point x="41" y="770"/>
			<point x="40" y="704" type="curve"/>
			<point x="49" y="689"/>
			<point x="66" y="681"/>
			<point x="85" y="681" type="curve" smooth="yes"/>
			<point x="106" y="681"/>
			<point x="130" y="691"/>
			<point x="137" y="729" type="curve" smooth="yes"/>
			<point x="146" y="785" type="line"/>
			<point x="113" y="769" type="line"/>
			<point x="127" y="776"/>
			<point x="141" y="779"/>
			<point x="154" y="779" type="curve" smooth="yes"/>
			<point x="192" y="779"/>
			<point x="216" y="749"/>
			<point x="216" y="699" type="curve" smooth="yes"/>
			<point x="216" y="645"/>
			<point x="188" y="599"/>
			<point x="127" y="538" type="curve" smooth="yes"/>
			<point x="43" y="455" type="line"/>
		</contour>
	</outline>
</glyph>
<glyph name="Oslash" format="1">
	<unicode hex="00D8"/>
	<advance width="700"/>
	<outline>
		<contour>
			<point x="650" y="659" type="line"/>
			<point x="612" y="692" type="line"/>
			<point x="50" y="-7" type="line"/>
			<point x="88" y="-40" type="line"/>
		</contour>
		<component base="O"/>
		<contour>
			<point name="aboveUC" x="350" y="682" type="move"/>
		</contour>
	</outline>
</glyph>
<glyph name="eogonek" format="1">
	<unicode hex="0119"/>
	<advance width="526"/>
	<outline>
		<contour>
			<point x="230" y="-128" type="curve" smooth="yes"/>
			<point x="230" y="-183"/>
			<point x="271" y="-228"/>
			<point x="348" y="-228" type="curve" smooth="yes"/>
			<point x="405" y="-228"/>
			<point x="458" y="-210"/>
			<point x="492" y="-178" type="curve"/>
			<point x="485" y="-153" type="line"/>
			<point x="471" y="-157"/>
			<point x="456" y="-161"/>
			<point x="430" y="-161" type="curve" smooth="yes"/>
			<point x="387" y="-161"/>
			<point x="348" y="-133"/>
			<point x="348" y="-78" type="curve" smooth="yes"/>
			<point x="348" y="-41"/>
			<point x="369" y="-17"/>
			<point x="402" y="9" type="curve" smooth="yes"/>
			<point x="439" y="38"/>
			<point x="471" y="67"/>
			<point x="498" y="114" type="curve"/>
			<point x="477" y="128" type="line"/>
			<point x="453" y="89"/>
			<point x="420" y="63"/>
			<point x="360" y="63" type="curve" smooth="yes"/>
			<point x="283" y="63"/>
			<point x="222" y="119"/>
			<point x="222" y="262" type="curve" smooth="yes"/>
			<point x="222" y="423"/>
			<point x="246" y="469"/>
			<point x="278" y="469" type="curve" smooth="yes"/>
			<point x="305" y="469"/>
			<point x="330" y="442"/>
			<point x="330" y="365" type="curve" smooth="yes"/>
			<point x="330" y="299"/>
			<point x="317" y="278"/>
			<point x="269" y="278" type="curve" smooth="yes"/>
			<point x="101" y="278" type="line"/>
			<point x="101" y="241" type="line"/>
			<point x="501" y="241" type="line"/>
			<point x="505" y="259"/>
			<point x="506" y="273"/>
			<point x="506" y="294" type="curve" smooth="yes"/>
			<point x="506" y="409"/>
			<point x="434" y="503"/>
			<point x="291" y="503" type="curve" smooth="yes"/>
			<point x="160" y="503"/>
			<point x="22" y="419"/>
			<point x="22" y="247" type="curve" smooth="yes"/>
			<point x="22" y="82"/>
			<point x="132" y="-16"/>
			<point x="276" y="-16" type="curve" smooth="yes"/>
			<point x="299" y="-16"/>
			<point x="323" y="-17"/>
			<point x="358" y="-12" type="curve"/>
			<point x="355" y="-6" type="line"/>
			<point x="279" y="-35"/>
			<point x="230" y="-72"/>
		</contour>
		<contour>
			<point name="aboveLC" x="285" y="520" type="move"/>
		</contour>
	</outline>
</glyph>
<glyph name="Hbar" format="1">
	<unicode hex="0126"/>
	<advance width="752"/>
	<outline>
		<contour>
			<point x="544" y="602" type="line"/>
			<point x="575" y="602" type="line"/>
			<point x="724" y="617" type="line"/>
			<point x="724" y="652" type="line"/>
			<point x="395" y="652" type="line"/>
			<point x="395" y="617" type="line"/>
		</contour>
		<contour>
			<point x="544" y="50" type="line"/>
			<point x="395" y="35" type="line"/>
			<point x="395" y="0" type="line"/>
			<point x="724" y="0" type="line"/>
			<point x="724" y="35" type="line"/>
			<point x="575" y="50" type="line"/>
		</contour>
		<contour>
			<point x="458" y="311" type="line" smooth="yes"/>
			<point x="458" y="205"/>
			<point x="458" y="101"/>
			<point x="455" y="0" type="curve"/>
			<point x="659" y="0" type="line"/>
			<point x="656" y="103"/>
			<point x="656" y="207"/>
			<point x="656" y="310" type="curve" smooth="yes"/>
			<point x="656" y="342" type="line" smooth="yes"/>
			<point x="656" y="447"/>
			<point x="656" y="551"/>
			<point x="659" y="652" type="curve"/>
			<point x="455" y="652" type="line"/>
			<point x="458" y="549"/>
			<point x="458" y="445"/>
			<point x="458" y="353" type="curve" smooth="yes"/>
		</contour>
		<contour>
			<point x="96" y="310" type="line" smooth="yes"/>
			<point x="96" y="205"/>
			<point x="96" y="101"/>
			<point x="93" y="0" type="curve"/>
			<point x="297" y="0" type="line"/>
			<point x="294" y="103"/>
			<point x="294" y="207"/>
			<point x="294" y="311" type="curve" smooth="yes"/>
			<point x="294" y="353" type="line" smooth="yes"/>
			<point x="294" y="447"/>
			<point x="294" y="551"/>
			<point x="297" y="652" type="curve"/>
			<point x="93" y="652" type="line"/>
			<point x="96" y="549"/>
			<point x="96" y="445"/>
			<point x="96" y="342" type="curve" smooth="yes"/>
		</contour>
		<contour>
			<point x="172" y="602" type="line"/>
			<point x="205" y="602" type="line"/>
			<point x="357" y="617" type="line"/>
			<point x="357" y="652" type="line"/>
			<point x="28" y="652" type="line"/>
			<point x="28" y="617" type="line"/>
		</contour>
		<contour>
			<point x="172" y="50" type="line"/>
			<point x="28" y="35" type="line"/>
			<point x="28" y="0" type="line"/>
			<point x="357" y="0" type="line"/>
			<point x="357" y="35" type="line"/>
			<point x="205" y="50" type="line"/>
		</contour>
		<contour>
			<point x="557" y="299" type="line"/>
			<point x="557" y="337" type="line"/>
			<point x="175" y="337" type="line"/>
			<point x="175" y="299" type="line"/>
		</contour>
		<contour>
			<point x="18" y="456" type="line"/>
			<point x="734" y="456" type="line"/>
			<point x="734" y="493" type="line"/>
			<point x="18" y="493" type="line"/>
		</contour>
	</outline>
</glyph>
<glyph name="hbar" format="1">
	<unicode hex="0127"/>
	<advance width="624"/>
	<outline>
		<contour>
			<point x="17" y="538" type="line"/>
			<point x="393" y="538" type="line"/>
			<point x="393" y="575" type="line"/>
			<point x="17" y="575" type="line"/>
		</contour>
		<contour>
			<point x="71" y="0" type="curve"/>
			<point x="267" y="0" type="line"/>
			<point x="265" y="45"/>
			<point x="264" y="148"/>
			<point x="264" y="210" type="curve" smooth="yes"/>
			<point x="264" y="380" type="line"/>
			<point x="261" y="393" type="line"/>
			<point x="261" y="561" type="line"/>
			<point x="264" y="712" type="line"/>
			<point x="252" y="721" type="line"/>
			<point x="20" y="676" type="line"/>
			<point x="20" y="651" type="line"/>
			<point x="74" y="644" type="line"/>
			<point x="74" y="210" type="line" smooth="yes"/>
			<point x="74" y="148"/>
			<point x="73" y="45"/>
		</contour>
		<contour>
			<point x="27" y="0" type="line"/>
			<point x="303" y="0" type="line"/>
			<point x="303" y="30" type="line"/>
			<point x="211" y="40" type="line"/>
			<point x="113" y="40" type="line"/>
			<point x="27" y="30" type="line"/>
		</contour>
		<contour>
			<point x="371" y="0" type="curve"/>
			<point x="567" y="0" type="line"/>
			<point x="565" y="45"/>
			<point x="564" y="146"/>
			<point x="564" y="210" type="curve" smooth="yes"/>
			<point x="564" y="307" type="line" smooth="yes"/>
			<point x="564" y="423"/>
			<point x="500" y="477"/>
			<point x="410" y="477" type="curve" smooth="yes"/>
			<point x="325" y="477"/>
			<point x="287" y="438"/>
			<point x="214" y="335" type="curve"/>
			<point x="250" y="367" type="line"/>
			<point x="179" y="367" type="line"/>
			<point x="179" y="315" type="line"/>
			<point x="214" y="315" type="line"/>
			<point x="249" y="363"/>
			<point x="292" y="396"/>
			<point x="326" y="396" type="curve" smooth="yes"/>
			<point x="355" y="396"/>
			<point x="374" y="377"/>
			<point x="374" y="323" type="curve" smooth="yes"/>
			<point x="374" y="210" type="line" smooth="yes"/>
			<point x="374" y="146"/>
			<point x="373" y="45"/>
		</contour>
		<contour>
			<point x="330" y="0" type="line"/>
			<point x="607" y="0" type="line"/>
			<point x="607" y="30" type="line"/>
			<point x="510" y="40" type="line"/>
			<point x="413" y="40" type="line"/>
			<point x="330" y="30" type="line"/>
		</contour>
	</outline>
</glyph>
<glyph name="dotlessi" format="1">
	<unicode hex="0131"/>
	<advance width="324"/>
	<outline>
		<contour>
			<point x="71" y="0" type="curve"/>
			<point x="267" y="0" type="line"/>
			<point x="265" y="45"/>
			<point x="264" y="148"/>
			<point x="264" y="210" type="curve" smooth="yes"/>
			<point x="264" y="343" type="line"/>
			<point x="267" y="494" type="line"/>
			<point x="255" y="503" type="line"/>
			<point x="17" y="438" type="line"/>
			<point x="17" y="417" type="line"/>
			<point x="71" y="408" type="line"/>
			<point x="73" y="368"/>
			<point x="74" y="343"/>
			<point x="74" y="288" type="curve" smooth="yes"/>
			<point x="74" y="210" type="line" smooth="yes"/>
			<point x="74" y="148"/>
			<point x="73" y="45"/>
		</contour>
		<contour>
			<point x="28" y="0" type="line"/>
			<point x="307" y="0" type="line"/>
			<point x="307" y="30" type="line"/>
			<point x="211" y="40" type="line"/>
			<point x="114" y="40" type="line"/>
			<point x="28" y="30" type="line"/>
		</contour>
		<contour>
			<point name="aboveLC" x="166" y="520" type="move"/>
		</contour>
		<contour>
			<point name="belowLC" x="173" y="-22" type="move"/>
		</contour>
		<contour>
			<point name="ogonek" x="203" y="0" type="move"/>
		</contour>
	</outline>
</glyph>
<glyph name="lslash" format="1">
	<unicode hex="0142"/>
	<advance width="334"/>
	<outline>
		<contour>
			<point x="211" y="417" type="line"/>
			<point x="16" y="306" type="line"/>
			<point x="16" y="242" type="line"/>
			<point x="211" y="353" type="line"/>
		</contour>
		<contour>
			<point x="324" y="471" type="line"/>
			<point x="124" y="357" type="line"/>
			<point x="124" y="293" type="line"/>
			<point x="324" y="407" type="line"/>
		</contour>
		<component base="l"/>
	</outline>
</glyph>
<glyph name="Eng" format="1">
	<unicode hex="014A"/>
	<advance width="725"/>
	<outline>
		<contour>
			<point x="14" y="0" type="line"/>
			<point x="267" y="0" type="line"/>
			<point x="267" y="35" type="line"/>
			<point x="138" y="50" type="line"/>
			<point x="106" y="50" type="line"/>
			<point x="14" y="35" type="line"/>
		</contour>
		<contour>
			<point x="511" y="0" type="line"/>
			<point x="596" y="0" type="line"/>
			<point x="596" y="226" type="line"/>
			<point x="279" y="652" type="line"/>
			<point x="24" y="652" type="line"/>
			<point x="24" y="617" type="line"/>
			<point x="128" y="602" type="line"/>
			<point x="67" y="623" type="line"/>
		</contour>
		<contour>
			<point x="92" y="0" type="line"/>
			<point x="146" y="0" type="line"/>
			<point x="138" y="652" type="line"/>
			<point x="100" y="652" type="line"/>
		</contour>
		<contour>
			<point x="448" y="617" type="line"/>
			<point x="578" y="602" type="line"/>
			<point x="609" y="602" type="line"/>
			<point x="701" y="617" type="line"/>
			<point x="701" y="652" type="line"/>
			<point x="448" y="652" type="line"/>
		</contour>
		<contour>
			<point x="624" y="652" type="line"/>
			<point x="570" y="652" type="line"/>
			<point x="576" y="156" type="line"/>
			<point x="571" y="90" type="line"/>
			<point x="572" y="-30"/>
			<point x="540" y="-88"/>
			<point x="445" y="-144" type="curve"/>
			<point x="478" y="-148" type="line"/>
			<point x="441" y="-90" type="line" smooth="yes"/>
			<point x="411" y="-43"/>
			<point x="387" y="-24"/>
			<point x="353" y="-24" type="curve" smooth="yes"/>
			<point x="304" y="-24"/>
			<point x="266" y="-59"/>
			<point x="266" y="-108" type="curve"/>
			<point x="295" y="-154"/>
			<point x="338" y="-177"/>
			<point x="400" y="-177" type="curve" smooth="yes"/>
			<point x="481" y="-177"/>
			<point x="547" y="-128"/>
			<point x="580" y="-71" type="curve" smooth="yes"/>
			<point x="611" y="-17"/>
			<point x="615" y="33"/>
			<point x="616" y="91" type="curve" smooth="yes"/>
		</contour>
	</outline>
</glyph>
<glyph name="eng" format="1">
	<unicode hex="014B"/>
	<advance width="620"/>
	<outline>
		<contour>
			<point x="263" y="0" type="line"/>
			<point x="261" y="45"/>
			<point x="260" y="148"/>
			<point x="260" y="210" type="curve" smooth="yes"/>
			<point x="260" y="399" type="line"/>
			<point x="252" y="494" type="line"/>
			<point x="240" y="503" type="line"/>
			<point x="13" y="434" type="line"/>
			<point x="13" y="413" type="line"/>
			<point x="67" y="404" type="line"/>
			<point x="69" y="364"/>
			<point x="70" y="347"/>
			<point x="70" y="292" type="curve" smooth="yes"/>
			<point x="70" y="210" type="line" smooth="yes"/>
			<point x="70" y="148"/>
			<point x="69" y="45"/>
			<point x="67" y="0" type="curve"/>
		</contour>
		<contour>
			<point x="207" y="40" type="line"/>
			<point x="109" y="40" type="line"/>
			<point x="23" y="30" type="line"/>
			<point x="23" y="0" type="line"/>
			<point x="299" y="0" type="line"/>
			<point x="299" y="30" type="line"/>
		</contour>
		<contour>
			<point x="322" y="-232" type="curve" smooth="yes"/>
			<point x="378" y="-232"/>
			<point x="435" y="-218"/>
			<point x="493" y="-160" type="curve" smooth="yes"/>
			<point x="540" y="-113"/>
			<point x="560" y="-67"/>
			<point x="560" y="35" type="curve" smooth="yes"/>
			<point x="560" y="336" type="line" smooth="yes"/>
			<point x="560" y="445"/>
			<point x="496" y="503"/>
			<point x="409" y="503" type="curve" smooth="yes"/>
			<point x="337" y="503"/>
			<point x="289" y="477"/>
			<point x="210" y="361" type="curve"/>
			<point x="246" y="393" type="line"/>
			<point x="172" y="393" type="line"/>
			<point x="172" y="341" type="line"/>
			<point x="211" y="341" type="line"/>
			<point x="246" y="389"/>
			<point x="295" y="422"/>
			<point x="325" y="422" type="curve" smooth="yes"/>
			<point x="357" y="422"/>
			<point x="370" y="402"/>
			<point x="370" y="349" type="curve" smooth="yes"/>
			<point x="370" y="86" type="line" smooth="yes"/>
			<point x="370" y="-10"/>
			<point x="382" y="-116"/>
			<point x="372" y="-164" type="curve" smooth="yes"/>
			<point x="364" y="-203"/>
			<point x="341" y="-214"/>
			<point x="307" y="-214" type="curve"/>
			<point x="377" y="-211" type="line"/>
			<point x="354" y="-144" type="line" smooth="yes"/>
			<point x="336" y="-91"/>
			<point x="301" y="-72"/>
			<point x="259" y="-72" type="curve" smooth="yes"/>
			<point x="217" y="-72"/>
			<point x="171" y="-104"/>
			<point x="168" y="-158" type="curve"/>
			<point x="189" y="-198"/>
			<point x="233" y="-232"/>
		</contour>
	</outline>
</glyph>
<glyph name="Tbar" format="1">
	<unicode hex="0166"/>
	<advance width="646"/>
	<outline>
		<contour>
			<point x="75" y="296" type="line"/>
			<point x="571" y="296" type="line"/>
			<point x="571" y="333" type="line"/>
			<point x="75" y="333" type="line"/>
		</contour>
		<component base="T"/>
	</outline>
</glyph>
<glyph name="tbar" format="1">
	<unicode hex="0167"/>
	<advance width="372"/>
	<outline>
		<contour>
			<point x="12" y="268" type="line"/>
			<point x="351" y="268" type="line"/>
			<point x="351" y="305" type="line"/>
			<point x="12" y="305" type="line"/>
		</contour>
		<component base="t"/>
	</outline>
</glyph>
<glyph name="uogonek" format="1">
	<unicode hex="0173"/>
	<advance width="617"/>
	<outline>
		<contour>
			<point x="361" y="-127" type="curve" smooth="yes"/>
			<point x="361" y="-182"/>
			<point x="402" y="-227"/>
			<point x="479" y="-227" type="curve" smooth="yes"/>
			<point x="536" y="-227"/>
			<point x="589" y="-209"/>
			<point x="623" y="-177" type="curve"/>
			<point x="614" y="-148" type="line"/>
			<point x="600" y="-152"/>
			<point x="585" y="-156"/>
			<point x="559" y="-156" type="curve" smooth="yes"/>
			<point x="507" y="-156"/>
			<point x="477" y="-132"/>
			<point x="477" y="-76" type="curve" smooth="yes"/>
			<point x="477" y="-37"/>
			<point x="490" y="-12"/>
			<point x="526" y="8" type="curve"/>
			<point x="490" y="8" type="line"/>
			<point x="408" y="-23"/>
			<point x="361" y="-62"/>
		</contour>
		<component base="u"/>
		<contour>
			<point name="aboveLC" x="315" y="520" type="move"/>
		</contour>
	</outline>
</glyph>
<glyph name="longs" format="1">
	<unicode hex="017F"/>
	<advance width="366"/>
	<outline>
		<contour>
			<point x="254" y="40" type="line"/>
			<point x="120" y="40" type="line"/>
			<point x="27" y="30" type="line"/>
			<point x="27" y="0" type="line"/>
			<point x="337" y="0" type="line"/>
			<point x="337" y="30" type="line"/>
		</contour>
		<contour>
			<point x="74" y="210" type="line" smooth="yes"/>
			<point x="74" y="140"/>
			<point x="73" y="70"/>
			<point x="71" y="0" type="curve"/>
			<point x="267" y="0" type="line"/>
			<point x="265" y="70"/>
			<point x="264" y="140"/>
			<point x="264" y="210" type="curve" smooth="yes"/>
			<point x="264" y="451" type="line" smooth="yes"/>
			<point x="264" y="561"/>
			<point x="257" y="636"/>
			<point x="289" y="688" type="curve" smooth="yes"/>
			<point x="296" y="700"/>
			<point x="325" y="716"/>
			<point x="361" y="716" type="curve"/>
			<point x="284" y="710" type="line"/>
			<point x="301" y="663" type="line" smooth="yes"/>
			<point x="324" y="598"/>
			<point x="354" y="577"/>
			<point x="396" y="577" type="curve" smooth="yes"/>
			<point x="444" y="577"/>
			<point x="472" y="609"/>
			<point x="472" y="652" type="curve"/>
			<point x="459" y="712"/>
			<point x="402" y="731"/>
			<point x="343" y="731" type="curve" smooth="yes"/>
			<point x="281" y="731"/>
			<point x="222" y="711"/>
			<point x="165" y="663" type="curve" smooth="yes"/>
			<point x="115" y="621"/>
			<point x="74" y="558"/>
			<point x="74" y="450" type="curve" smooth="yes"/>
		</contour>
	</outline>
</glyph>
<glyph name="dotlessj" format="1">
	<unicode hex="0237"/>
	<advance width="320"/>
	<outline>
		<contour>
			<point x="70" y="86" type="line" smooth="yes"/>
			<point x="70" y="-10"/>
			<point x="82" y="-116"/>
			<point x="72" y="-164" type="curve" smooth="yes"/>
			<point x="64" y="-203"/>
			<point x="41" y="-214"/>
			<point x="7" y="-214" type="curve" smooth="yes"/>
			<point x="-12" y="-214"/>
			<point x="-28" y="-213"/>
			<point x="-75" y="-205" type="curve"/>
			<point x="4" y="-225" type="line"/>
			<point x="77" y="-211" type="line"/>
			<point x="54" y="-144" type="line" smooth="yes"/>
			<point x="34" y="-86"/>
			<point x="-5" y="-66"/>
			<point x="-47" y="-66" type="curve" smooth="yes"/>
			<point x="-92" y="-66"/>
			<point x="-129" y="-103"/>
			<point x="-132" y="-158" type="curve"/>
			<point x="-111" y="-198"/>
			<point x="-67" y="-232"/>
			<point x="22" y="-232" type="curve" smooth="yes"/>
			<point x="78" y="-232"/>
			<point x="135" y="-218"/>
			<point x="193" y="-160" type="curve" smooth="yes"/>
			<point x="240" y="-113"/>
			<point x="260" y="-67"/>
			<point x="260" y="35" type="curve" smooth="yes"/>
			<point x="260" y="343" type="line"/>
			<point x="264" y="494" type="line"/>
			<point x="252" y="503" type="line"/>
			<point x="13" y="438" type="line"/>
			<point x="13" y="417" type="line"/>
			<point x="67" y="408" type="line"/>
			<point x="69" y="368"/>
			<point x="70" y="337"/>
			<point x="70" y="282" type="curve" smooth="yes"/>
		</contour>
		<contour>
			<point name="aboveLC" x="152" y="520" type="move"/>
		</contour>
	</outline>
</glyph>
<glyph name="alphalatin" format="1">
	<unicode hex="0251"/>
	<advance width="594"/>
	<outline>
		<contour>
			<point x="220" y="-16" type="curve" smooth="yes"/>
			<point x="292" y="-16"/>
			<point x="351" y="25"/>
			<point x="382" y="96" type="curve"/>
			<point x="375" y="99" type="line"/>
			<point x="358" y="79"/>
			<point x="341" y="68"/>
			<point x="316" y="68" type="curve" smooth="yes"/>
			<point x="261" y="68"/>
			<point x="224" y="97"/>
			<point x="224" y="242" type="curve" smooth="yes"/>
			<point x="224" y="387"/>
			<point x="270" y="427"/>
			<point x="329" y="427" type="curve" smooth="yes"/>
			<point x="350" y="427"/>
			<point x="361" y="421"/>
			<point x="381" y="402" type="curve"/>
			<point x="393" y="412" type="line"/>
			<point x="363" y="472"/>
			<point x="314" y="503"/>
			<point x="252" y="503" type="curve" smooth="yes"/>
			<point x="129" y="503"/>
			<point x="32" y="403"/>
			<point x="32" y="218" type="curve" smooth="yes"/>
			<point x="32" y="66"/>
			<point x="120" y="-16"/>
		</contour>
		<contour>
			<point x="355" y="67" type="line"/>
			<point x="361" y="59" type="line"/>
			<point x="376" y="12"/>
			<point x="412" y="-16"/>
			<point x="478" y="-16" type="curve" smooth="yes"/>
			<point x="549" y="-16"/>
			<point x="588" y="8"/>
			<point x="612" y="69" type="curve"/>
			<point x="594" y="79" type="line"/>
			<point x="577" y="48"/>
			<point x="568" y="41"/>
			<point x="557" y="41" type="curve" smooth="yes"/>
			<point x="546" y="41"/>
			<point x="539" y="48"/>
			<point x="539" y="65" type="curve"/>
			<point x="539" y="358" type="line"/>
			<point x="542" y="494" type="line"/>
			<point x="530" y="503" type="line"/>
			<point x="355" y="433" type="line"/>
		</contour>
		<contour>
			<point name="aboveLC" x="323" y="520" type="move"/>
		</contour>
		<contour>
			<point name="belowLC" x="317" y="-22" type="move"/>
		</contour>
	</outline>
</glyph>
<glyph name="h.sups" format="1">
	<unicode hex="02B0"/>
	<advance width="412"/>
	<outline>
		<contour>
			<point x="268" y="731" type="curve" smooth="yes"/>
			<point x="214" y="731"/>
			<point x="181" y="705"/>
			<point x="136" y="641" type="curve"/>
			<point x="162" y="661" type="line"/>
			<point x="117" y="661" type="line"/>
			<point x="117" y="627" type="line"/>
			<point x="139" y="627" type="line"/>
			<point x="166" y="659"/>
			<point x="194" y="679"/>
			<point x="219" y="679" type="curve" smooth="yes"/>
			<point x="244" y="679"/>
			<point x="257" y="666"/>
			<point x="257" y="629" type="curve" smooth="yes"/>
			<point x="257" y="406" type="line"/>
			<point x="367" y="406" type="line"/>
			<point x="367" y="620" type="line" smooth="yes"/>
			<point x="367" y="696"/>
			<point x="328" y="731"/>
		</contour>
		<contour>
			<point x="282" y="433" type="line"/>
			<point x="222" y="426" type="line"/>
			<point x="222" y="406" type="line"/>
			<point x="401" y="406" type="line"/>
			<point x="401" y="426" type="line"/>
			<point x="335" y="433" type="line"/>
		</contour>
		<contour>
			<point x="133" y="433" type="line"/>
			<point x="80" y="433" type="line"/>
			<point x="19" y="426" type="line"/>
			<point x="19" y="406" type="line"/>
			<point x="196" y="406" type="line"/>
			<point x="196" y="426" type="line"/>
		</contour>
		<contour>
			<point x="55" y="406" type="line"/>
			<point x="165" y="406" type="line"/>
			<point x="165" y="866" type="line"/>
			<point x="157" y="872" type="line"/>
			<point x="14" y="843" type="line"/>
			<point x="14" y="827" type="line"/>
			<point x="55" y="822" type="line"/>
		</contour>
	</outline>
</glyph>
<glyph name="r.sups" format="1">
	<unicode hex="02B3"/>
	<advance width="315"/>
	<outline>
		<contour>
			<point x="220" y="682" type="curve"/>
			<point x="185" y="670" type="line"/>
			<point x="200" y="649" type="line" smooth="yes"/>
			<point x="215" y="625"/>
			<point x="231" y="614"/>
			<point x="255" y="614" type="curve" smooth="yes"/>
			<point x="292" y="614"/>
			<point x="311" y="644"/>
			<point x="311" y="683" type="curve"/>
			<point x="303" y="718"/>
			<point x="283" y="731"/>
			<point x="253" y="731" type="curve" smooth="yes"/>
			<point x="215" y="731"/>
			<point x="168" y="690"/>
			<point x="157" y="606" type="curve"/>
			<point x="165" y="627" type="line"/>
			<point x="114" y="627" type="line"/>
			<point x="114" y="589" type="line"/>
			<point x="164" y="589" type="line"/>
			<point x="174" y="635"/>
			<point x="189" y="659"/>
		</contour>
		<contour>
			<point x="155" y="433" type="line"/>
			<point x="81" y="433" type="line"/>
			<point x="17" y="426" type="line"/>
			<point x="17" y="406" type="line"/>
			<point x="218" y="406" type="line"/>
			<point x="218" y="426" type="line"/>
		</contour>
		<contour>
			<point x="165" y="406" type="line"/>
			<point x="165" y="645" type="line"/>
			<point x="159" y="725" type="line"/>
			<point x="150" y="731" type="line"/>
			<point x="12" y="687" type="line"/>
			<point x="12" y="672" type="line"/>
			<point x="55" y="667" type="line"/>
			<point x="55" y="406" type="line"/>
		</contour>
	</outline>
</glyph>
<glyph name="w.sups" format="1">
	<unicode hex="02B7"/>
	<advance width="533"/>
	<outline>
		<contour>
			<point x="475" y="694" type="line"/>
			<point x="528" y="701" type="line"/>
			<point x="528" y="719" type="line"/>
			<point x="405" y="719" type="line"/>
			<point x="405" y="701" type="line"/>
			<point x="464" y="694" type="line"/>
		</contour>
		<contour>
			<point x="97" y="694" type="line"/>
			<point x="177" y="701" type="line"/>
			<point x="177" y="719" type="line"/>
			<point x="-5" y="719" type="line"/>
			<point x="-5" y="701" type="line"/>
			<point x="60" y="694" type="line"/>
		</contour>
		<contour>
			<point x="281" y="694" type="line"/>
			<point x="311" y="694" type="line"/>
			<point x="375" y="701" type="line"/>
			<point x="375" y="719" type="line"/>
			<point x="214" y="719" type="line"/>
			<point x="214" y="701" type="line"/>
		</contour>
		<contour>
			<point x="273" y="657" type="line"/>
			<point x="253" y="615" type="line"/>
			<point x="336" y="405" type="line"/>
			<point x="383" y="405" type="line"/>
			<point x="497" y="719" type="line"/>
			<point x="463" y="719" type="line"/>
			<point x="371" y="410" type="line"/>
			<point x="403" y="498" type="line"/>
			<point x="323" y="719" type="line"/>
			<point x="266" y="719" type="line"/>
			<point x="166" y="410" type="line"/>
			<point x="198" y="498" type="line"/>
			<point x="127" y="719" type="line"/>
			<point x="14" y="719" type="line"/>
			<point x="132" y="405" type="line"/>
			<point x="179" y="405" type="line"/>
		</contour>
	</outline>
</glyph>
<glyph name="y.sups" format="1">
	<unicode hex="02B8"/>
	<advance width="353"/>
	<outline>
		<contour>
			<point x="308" y="695" type="line"/>
			<point x="357" y="701" type="line"/>
			<point x="357" y="719" type="line"/>
			<point x="233" y="719" type="line"/>
			<point x="233" y="701" type="line"/>
			<point x="295" y="695" type="line"/>
		</contour>
		<contour>
			<point x="132" y="694" type="line"/>
			<point x="188" y="701" type="line"/>
			<point x="188" y="719" type="line"/>
			<point x="-3" y="719" type="line"/>
			<point x="-3" y="701" type="line"/>
			<point x="58" y="694" type="line"/>
		</contour>
		<contour>
			<point x="225" y="489" type="line"/>
			<point x="137" y="719" type="line"/>
			<point x="18" y="719" type="line"/>
			<point x="177" y="355" type="line"/>
		</contour>
		<contour>
			<point x="99" y="280" type="curve"/>
			<point x="109" y="269" type="line"/>
			<point x="131" y="285" type="line"/>
			<point x="107" y="314" type="line" smooth="yes"/>
			<point x="91" y="333"/>
			<point x="74" y="340"/>
			<point x="57" y="340" type="curve" smooth="yes"/>
			<point x="32" y="340"/>
			<point x="13" y="329"/>
			<point x="4" y="307" type="curve"/>
			<point x="4" y="276"/>
			<point x="34" y="255"/>
			<point x="68" y="255" type="curve" smooth="yes"/>
			<point x="109" y="255"/>
			<point x="159" y="274"/>
			<point x="195" y="367" type="curve" smooth="yes"/>
			<point x="329" y="719" type="line"/>
			<point x="294" y="719" type="line"/>
			<point x="179" y="389" type="line"/>
			<point x="155" y="329"/>
			<point x="137" y="304"/>
		</contour>
	</outline>
</glyph>
<glyph name="ringhalfrightmod" format="1">
	<unicode hex="02BE"/>
	<advance width="180"/>
	<outline>
		<contour>
			<point x="20" y="554" type="line"/>
			<point x="104" y="554"/>
			<point x="160" y="601"/>
			<point x="160" y="674" type="curve" smooth="yes"/>
			<point x="160" y="747"/>
			<point x="104" y="794"/>
			<point x="20" y="794" type="curve"/>
			<point x="20" y="751" type="line"/>
			<point x="75" y="751"/>
			<point x="104" y="714"/>
			<point x="104" y="674" type="curve" smooth="yes"/>
			<point x="104" y="637"/>
			<point x="75" y="597"/>
			<point x="20" y="597" type="curve"/>
		</contour>
	</outline>
</glyph>
<glyph name="ringhalfleftmod" format="1">
	<unicode hex="02BF"/>
	<advance width="180"/>
	<outline>
		<contour>
			<point x="20" y="674" type="curve" smooth="yes"/>
			<point x="20" y="601"/>
			<point x="76" y="554"/>
			<point x="160" y="554" type="curve"/>
			<point x="160" y="597" type="line"/>
			<point x="105" y="597"/>
			<point x="76" y="637"/>
			<point x="76" y="674" type="curve" smooth="yes"/>
			<point x="76" y="714"/>
			<point x="105" y="751"/>
			<point x="160" y="751" type="curve"/>
			<point x="160" y="794" type="line"/>
			<point x="76" y="794"/>
			<point x="20" y="747"/>
		</contour>
	</outline>
</glyph>
<glyph name="l.sups" format="1">
	<unicode hex="02E1"/>
	<advance width="207"/>
	<outline>
		<contour>
			<point x="134" y="433" type="line"/>
			<point x="81" y="433" type="line"/>
			<point x="18" y="426" type="line"/>
			<point x="18" y="406" type="line"/>
			<point x="202" y="406" type="line"/>
			<point x="202" y="426" type="line"/>
		</contour>
		<contour>
			<point x="14" y="836" type="line"/>
			<point x="14" y="820" type="line"/>
			<point x="54" y="815" type="line"/>
			<point x="54" y="406" type="line"/>
			<point x="165" y="406" type="line"/>
			<point x="165" y="859" type="line"/>
			<point x="157" y="865" type="line"/>
		</contour>
	</outline>
</glyph>
<glyph name="x.sups" format="1">
	<unicode hex="02E3"/>
	<advance width="375"/>
	<outline>
		<contour>
			<point x="22" y="719" type="line"/>
			<point x="139" y="531" type="line"/>
			<point x="221" y="406" type="line"/>
			<point x="350" y="406" type="line"/>
			<point x="225" y="602" type="line"/>
			<point x="148" y="719" type="line"/>
		</contour>
		<contour>
			<point x="57" y="432" type="line"/>
			<point x="4" y="426" type="line"/>
			<point x="4" y="406" type="line"/>
			<point x="127" y="406" type="line"/>
			<point x="127" y="426" type="line"/>
			<point x="79" y="432" type="line"/>
		</contour>
		<contour>
			<point x="134" y="694" type="line"/>
			<point x="200" y="701" type="line"/>
			<point x="200" y="719" type="line"/>
			<point x="9" y="719" type="line"/>
			<point x="9" y="701" type="line"/>
			<point x="78" y="694" type="line"/>
		</contour>
		<contour>
			<point x="257" y="433" type="line"/>
			<point x="166" y="426" type="line"/>
			<point x="166" y="406" type="line"/>
			<point x="361" y="406" type="line"/>
			<point x="361" y="426" type="line"/>
			<point x="287" y="433" type="line"/>
		</contour>
		<contour>
			<point x="307" y="695" type="line"/>
			<point x="351" y="701" type="line"/>
			<point x="351" y="719" type="line"/>
			<point x="238" y="719" type="line"/>
			<point x="238" y="701" type="line"/>
			<point x="285" y="695" type="line"/>
		</contour>
		<contour>
			<point x="71" y="406" type="line"/>
			<point x="186" y="591" type="line"/>
			<point x="172" y="601" type="line"/>
			<point x="30" y="406" type="line"/>
		</contour>
		<contour>
			<point x="293" y="719" type="line"/>
			<point x="185" y="549" type="line"/>
			<point x="198" y="538" type="line"/>
			<point x="333" y="719" type="line"/>
		</contour>
	</outline>
</glyph>
<glyph name="circumflexcmb" format="1">
	<unicode hex="0302"/>
	<outline>
		<contour>
			<point x="147" y="553" type="line"/>
			<point x="169" y="575" type="line"/>
			<point x="38" y="757" type="line"/>
			<point x="-38" y="757" type="line"/>
			<point x="-169" y="575" type="line"/>
			<point x="-147" y="553" type="line"/>
			<point x="50" y="679" type="line"/>
			<point x="-50" y="679" type="line"/>
		</contour>
		<contour>
			<point name="_aboveLC" x="0" y="520" type="move"/>
		</contour>
		<contour>
			<point name="aboveLC" x="0" y="768" type="move"/>
		</contour>
	</outline>
</glyph>
<glyph name="hoicmb" format="1">
	<unicode hex="0309"/>
	<outline>
		<contour>
			<point x="-27" y="547" type="line"/>
			<point x="57" y="557"/>
			<point x="95" y="598"/>
			<point x="95" y="657" type="curve" smooth="yes"/>
			<point x="95" y="737"/>
			<point x="43" y="780"/>
			<point x="-64" y="789" type="curve"/>
			<point x="-75" y="675" type="line"/>
			<point x="-1" y="667"/>
			<point x="27" y="659"/>
			<point x="27" y="629" type="curve" smooth="yes"/>
			<point x="27" y="607"/>
			<point x="19" y="592"/>
			<point x="-34" y="576" type="curve"/>
		</contour>
		<contour>
			<point name="_aboveLC" x="0" y="520" type="move"/>
		</contour>
	</outline>
</glyph>
<glyph name="hungarumlautcmb" format="1">
	<unicode hex="030B"/>
	<outline>
		<contour>
			<point x="-109" y="570" type="line"/>
			<point x="-83" y="557" type="line"/>
			<point x="10" y="669" type="line" smooth="yes"/>
			<point x="38" y="702"/>
			<point x="50" y="725"/>
			<point x="50" y="749" type="curve" smooth="yes"/>
			<point x="50" y="781"/>
			<point x="31" y="800"/>
			<point x="1" y="800" type="curve" smooth="yes"/>
			<point x="-35" y="800"/>
			<point x="-65" y="779"/>
			<point x="-79" y="714" type="curve" smooth="yes"/>
		</contour>
		<contour>
			<point x="34" y="572" type="line"/>
			<point x="59" y="557" type="line"/>
			<point x="160" y="662" type="line" smooth="yes"/>
			<point x="190" y="693"/>
			<point x="202" y="716"/>
			<point x="202" y="743" type="curve" smooth="yes"/>
			<point x="202" y="772"/>
			<point x="187" y="794"/>
			<point x="157" y="794" type="curve" smooth="yes"/>
			<point x="124" y="794"/>
			<point x="93" y="777"/>
			<point x="74" y="713" type="curve" smooth="yes"/>
		</contour>
		<contour>
			<point name="_aboveLC" x="0" y="520" type="move"/>
		</contour>
	</outline>
</glyph>
<glyph name="horncmb" format="1">
	<unicode hex="031B"/>
	<outline>
		<contour>
			<point x="-15" y="390" type="line"/>
			<point x="79" y="391"/>
			<point x="167" y="461"/>
			<point x="167" y="559" type="curve" smooth="yes"/>
			<point x="167" y="581"/>
			<point x="164" y="594"/>
			<point x="157" y="617" type="curve"/>
			<point x="142" y="630"/>
			<point x="127" y="635"/>
			<point x="106" y="635" type="curve" smooth="yes"/>
			<point x="70" y="635"/>
			<point x="42" y="608"/>
			<point x="42" y="580" type="curve" smooth="yes"/>
			<point x="42" y="534"/>
			<point x="90" y="528"/>
			<point x="90" y="491" type="curve" smooth="yes"/>
			<point x="90" y="446"/>
			<point x="52" y="421"/>
			<point x="-18" y="416" type="curve"/>
		</contour>
		<contour>
			<point name="_hornLC" x="0" y="478" type="move"/>
		</contour>
	</outline>
</glyph>
<glyph name="ogonekcmb" format="1">
	<unicode hex="0328"/>
	<outline>
		<contour>
			<point x="-140" y="-127" type="curve" smooth="yes"/>
			<point x="-140" y="-182"/>
			<point x="-99" y="-227"/>
			<point x="-22" y="-227" type="curve" smooth="yes"/>
			<point x="35" y="-227"/>
			<point x="88" y="-209"/>
			<point x="122" y="-177" type="curve"/>
			<point x="115" y="-152" type="line"/>
			<point x="101" y="-156"/>
			<point x="86" y="-160"/>
			<point x="60" y="-160" type="curve" smooth="yes"/>
			<point x="11" y="-160"/>
			<point x="-24" y="-131"/>
			<point x="-24" y="-76" type="curve" smooth="yes"/>
			<point x="-24" y="-42"/>
			<point x="-7" y="-16"/>
			<point x="25" y="8" type="curve"/>
			<point x="9" y="8" type="line"/>
			<point x="-81" y="-28"/>
			<point x="-140" y="-65"/>
		</contour>
		<contour>
			<point name="_ogonek" x="0" y="0" type="move"/>
		</contour>
	</outline>
</glyph>
<glyph name="Gamma" format="1">
	<unicode hex="0393"/>
	<advance width="580"/>
	<outline>
		<contour>
			<point x="28" y="0" type="line"/>
			<point x="386" y="0" type="line"/>
			<point x="386" y="35" type="line"/>
			<point x="235" y="50" type="line"/>
			<point x="179" y="50" type="line"/>
			<point x="28" y="35" type="line"/>
		</contour>
		<contour>
			<point x="28" y="617" type="line"/>
			<point x="179" y="602" type="line"/>
			<point x="197" y="602" type="line"/>
			<point x="197" y="652" type="line"/>
			<point x="28" y="652" type="line"/>
		</contour>
		<contour>
			<point x="95" y="0" type="curve"/>
			<point x="299" y="0" type="line"/>
			<point x="296" y="103"/>
			<point x="296" y="207"/>
			<point x="296" y="294" type="curve" smooth="yes"/>
			<point x="296" y="342" type="line" smooth="yes"/>
			<point x="296" y="447"/>
			<point x="296" y="551"/>
			<point x="299" y="652" type="curve"/>
			<point x="95" y="652" type="line"/>
			<point x="98" y="549"/>
			<point x="98" y="445"/>
			<point x="98" y="342" type="curve" smooth="yes"/>
			<point x="98" y="293" type="line" smooth="yes"/>
			<point x="98" y="205"/>
			<point x="98" y="101"/>
		</contour>
		<contour>
			<point x="197" y="614" type="line"/>
			<point x="520" y="614" type="line"/>
			<point x="427" y="652" type="line"/>
			<point x="486" y="442" type="line"/>
			<point x="548" y="442" type="line"/>
			<point x="553" y="652" type="line"/>
			<point x="197" y="652" type="line"/>
		</contour>
	</outline>
</glyph>
<glyph name="Sigma" format="1">
	<unicode hex="03A3"/>
	<advance width="568"/>
	<outline>
		<contour>
			<point x="452" y="452" type="line"/>
			<point x="514" y="452" type="line"/>
			<point x="519" y="652" type="line"/>
			<point x="137" y="652" type="line"/>
			<point x="137" y="614" type="line"/>
			<point x="486" y="614" type="line"/>
			<point x="393" y="652" type="line"/>
		</contour>
		<contour>
			<point x="535" y="0" type="line"/>
			<point x="533" y="269" type="line"/>
			<point x="471" y="269" type="line"/>
			<point x="424" y="80" type="line"/>
			<point x="502" y="140" type="line"/>
			<point x="93" y="140" type="line"/>
			<point x="55" y="72" type="line"/>
			<point x="348" y="369" type="line"/>
			<point x="184" y="652" type="line"/>
			<point x="44" y="652" type="line"/>
			<point x="44" y="595" type="line"/>
			<point x="240" y="285" type="line"/>
			<point x="247" y="320" type="line"/>
			<point x="33" y="95" type="line"/>
			<point x="33" y="0" type="line"/>
		</contour>
	</outline>
</glyph>
<glyph name="Phi" format="1">
	<unicode hex="03A6"/>
	<advance width="824"/>
	<outline>
		<contour>
			<point x="50" y="337" type="curve" smooth="yes"/>
			<point x="50" y="197"/>
			<point x="153" y="119"/>
			<point x="342" y="119" type="curve" smooth="yes"/>
			<point x="412" y="119" type="line"/>
			<point x="412" y="158" type="line"/>
			<point x="342" y="158" type="line" smooth="yes"/>
			<point x="271" y="158"/>
			<point x="222" y="227"/>
			<point x="222" y="330" type="curve" smooth="yes"/>
			<point x="222" y="446"/>
			<point x="260" y="512"/>
			<point x="340" y="512" type="curve" smooth="yes"/>
			<point x="412" y="512" type="line"/>
			<point x="412" y="550" type="line"/>
			<point x="336" y="550" type="line" smooth="yes"/>
			<point x="141" y="550"/>
			<point x="50" y="460"/>
		</contour>
		<contour>
			<point x="256" y="627" type="line"/>
			<point x="390" y="612" type="line"/>
			<point x="433" y="612" type="line"/>
			<point x="569" y="627" type="line"/>
			<point x="569" y="662" type="line"/>
			<point x="256" y="662" type="line"/>
		</contour>
		<contour>
			<point x="256" y="0" type="line"/>
			<point x="569" y="0" type="line"/>
			<point x="569" y="35" type="line"/>
			<point x="448" y="50" type="line"/>
			<point x="397" y="50" type="line"/>
			<point x="256" y="35" type="line"/>
		</contour>
		<contour>
			<point x="323" y="0" type="curve"/>
			<point x="502" y="0" type="line"/>
			<point x="499" y="103"/>
			<point x="499" y="207"/>
			<point x="499" y="311" type="curve" smooth="yes"/>
			<point x="499" y="342" type="line" smooth="yes"/>
			<point x="499" y="450"/>
			<point x="499" y="558"/>
			<point x="502" y="662" type="curve"/>
			<point x="323" y="662" type="line"/>
			<point x="326" y="556"/>
			<point x="326" y="448"/>
			<point x="326" y="342" type="curve" smooth="yes"/>
			<point x="326" y="310" type="line" smooth="yes"/>
			<point x="326" y="205"/>
			<point x="326" y="101"/>
		</contour>
		<contour>
			<point x="412" y="119" type="line"/>
			<point x="482" y="119" type="line" smooth="yes"/>
			<point x="671" y="119"/>
			<point x="774" y="197"/>
			<point x="774" y="337" type="curve" smooth="yes"/>
			<point x="774" y="460"/>
			<point x="683" y="550"/>
			<point x="488" y="550" type="curve" smooth="yes"/>
			<point x="412" y="550" type="line"/>
			<point x="412" y="512" type="line"/>
			<point x="484" y="512" type="line" smooth="yes"/>
			<point x="564" y="512"/>
			<point x="602" y="446"/>
			<point x="602" y="330" type="curve" smooth="yes"/>
			<point x="602" y="227"/>
			<point x="553" y="158"/>
			<point x="482" y="158" type="curve" smooth="yes"/>
			<point x="412" y="158" type="line"/>
		</contour>
	</outline>
</glyph>
<glyph name="Omega" format="1">
	<unicode hex="03A9"/>
	<unicode hex="2126"/>
	<advance width="750"/>
	<outline>
		<contour>
			<point x="78" y="200" type="line"/>
			<point x="33" y="200" type="line"/>
			<point x="36" y="0" type="line"/>
			<point x="340" y="0" type="line"/>
			<point x="340" y="60" type="line"/>
			<point x="297" y="130" type="line"/>
			<point x="59" y="130" type="line"/>
			<point x="131" y="0" type="line"/>
		</contour>
		<contour>
			<point x="672" y="200" type="line"/>
			<point x="619" y="0" type="line"/>
			<point x="691" y="130" type="line"/>
			<point x="453" y="130" type="line"/>
			<point x="410" y="60" type="line"/>
			<point x="410" y="0" type="line"/>
			<point x="714" y="0" type="line"/>
			<point x="717" y="200" type="line"/>
		</contour>
		<contour>
			<point x="375" y="632" type="curve" smooth="yes"/>
			<point x="479" y="632"/>
			<point x="499" y="511"/>
			<point x="499" y="407" type="curve" smooth="yes"/>
			<point x="499" y="295"/>
			<point x="465" y="181"/>
			<point x="410" y="100" type="curve"/>
			<point x="410" y="0" type="line"/>
			<point x="475" y="0" type="line"/>
			<point x="475" y="132" type="line"/>
			<point x="578" y="177"/>
			<point x="694" y="274"/>
			<point x="694" y="408" type="curve" smooth="yes"/>
			<point x="694" y="529"/>
			<point x="607" y="672"/>
			<point x="375" y="672" type="curve" smooth="yes"/>
			<point x="143" y="672"/>
			<point x="56" y="529"/>
			<point x="56" y="413" type="curve" smooth="yes"/>
			<point x="56" y="274"/>
			<point x="173" y="177"/>
			<point x="275" y="132" type="curve"/>
			<point x="275" y="0" type="line"/>
			<point x="340" y="0" type="line"/>
			<point x="340" y="100" type="line"/>
			<point x="285" y="181"/>
			<point x="251" y="295"/>
			<point x="251" y="407" type="curve" smooth="yes"/>
			<point x="251" y="511"/>
			<point x="271" y="632"/>
		</contour>
	</outline>
</glyph>
<glyph name="beta" format="1">
	<unicode hex="03B2"/>
	<advance width="605"/>
	<outline>
		<contour>
			<point x="49" y="-189" type="line"/>
			<point x="57" y="-195" type="line"/>
			<point x="264" y="-160" type="line"/>
			<point x="225" y="120" type="line"/>
			<point x="231" y="132" type="line"/>
			<point x="237" y="592" type="line" smooth="yes"/>
			<point x="238" y="659"/>
			<point x="268" y="686"/>
			<point x="310" y="686" type="curve" smooth="yes"/>
			<point x="357" y="686"/>
			<point x="399" y="653"/>
			<point x="399" y="567" type="curve" smooth="yes"/>
			<point x="399" y="493"/>
			<point x="360" y="454"/>
			<point x="274" y="430" type="curve"/>
			<point x="286" y="341" type="line"/>
			<point x="379" y="338"/>
			<point x="418" y="287"/>
			<point x="418" y="219" type="curve" smooth="yes"/>
			<point x="418" y="145"/>
			<point x="375" y="107"/>
			<point x="318" y="107" type="curve" smooth="yes"/>
			<point x="275" y="107"/>
			<point x="248" y="125"/>
			<point x="221" y="147" type="curve"/>
			<point x="214" y="135" type="line"/>
			<point x="266" y="21"/>
			<point x="314" y="-16"/>
			<point x="401" y="-16" type="curve" smooth="yes"/>
			<point x="505" y="-16"/>
			<point x="578" y="59"/>
			<point x="578" y="167" type="curve" smooth="yes"/>
			<point x="578" y="287"/>
			<point x="490" y="360"/>
			<point x="303" y="364" type="curve"/>
			<point x="303" y="350" type="line"/>
			<point x="483" y="375"/>
			<point x="549" y="469"/>
			<point x="549" y="562" type="curve" smooth="yes"/>
			<point x="549" y="657"/>
			<point x="464" y="721"/>
			<point x="327" y="721" type="curve" smooth="yes"/>
			<point x="165" y="721"/>
			<point x="60" y="624"/>
			<point x="60" y="414" type="curve" smooth="yes"/>
			<point x="60" y="66" type="line"/>
		</contour>
	</outline>
</glyph>
<glyph name="gamma" format="1">
	<unicode hex="03B3"/>
	<advance width="557"/>
	<outline>
		<contour>
			<point x="182" y="-189" type="line"/>
			<point x="191" y="-196" type="line"/>
			<point x="371" y="-161" type="line"/>
			<point x="356" y="46" type="line"/>
			<point x="347" y="51" type="line"/>
			<point x="326" y="152"/>
			<point x="295" y="266"/>
			<point x="273" y="339" type="curve" smooth="yes"/>
			<point x="232" y="479"/>
			<point x="192" y="498"/>
			<point x="124" y="498" type="curve" smooth="yes"/>
			<point x="66" y="498"/>
			<point x="20" y="465"/>
			<point x="0" y="408" type="curve"/>
			<point x="5" y="396" type="line"/>
			<point x="18" y="396" type="line" smooth="yes"/>
			<point x="53" y="396"/>
			<point x="66" y="391"/>
			<point x="92" y="323" type="curve" smooth="yes"/>
			<point x="120" y="250"/>
			<point x="180" y="110"/>
			<point x="224" y="-73" type="curve"/>
			<point x="227" y="15" type="line"/>
		</contour>
		<contour>
			<point x="337" y="-6" type="line"/>
			<point x="412" y="118"/>
			<point x="517" y="285"/>
			<point x="517" y="406" type="curve" smooth="yes"/>
			<point x="517" y="434"/>
			<point x="515" y="450"/>
			<point x="508" y="474" type="curve"/>
			<point x="488" y="495"/>
			<point x="471" y="503"/>
			<point x="442" y="503" type="curve" smooth="yes"/>
			<point x="384" y="503"/>
			<point x="352" y="457"/>
			<point x="352" y="394" type="curve" smooth="yes"/>
			<point x="352" y="349"/>
			<point x="368" y="312"/>
			<point x="419" y="162" type="curve"/>
			<point x="424" y="348" type="line"/>
			<point x="408" y="236"/>
			<point x="371" y="126"/>
			<point x="315" y="20" type="curve"/>
		</contour>
	</outline>
</glyph>
<glyph name="delta" format="1">
	<unicode hex="03B4"/>
	<advance width="547"/>
	<outline>
		<contour>
			<point x="26" y="228" type="curve" smooth="yes"/>
			<point x="26" y="88"/>
			<point x="123" y="-16"/>
			<point x="271" y="-16" type="curve" smooth="yes"/>
			<point x="429" y="-16"/>
			<point x="521" y="98"/>
			<point x="521" y="247" type="curve" smooth="yes"/>
			<point x="521" y="363"/>
			<point x="449" y="440"/>
			<point x="341" y="507" type="curve" smooth="yes"/>
			<point x="240" y="569"/>
			<point x="196" y="615"/>
			<point x="196" y="648" type="curve" smooth="yes"/>
			<point x="196" y="680"/>
			<point x="214" y="694"/>
			<point x="261" y="694" type="curve" smooth="yes"/>
			<point x="291" y="694"/>
			<point x="311" y="690"/>
			<point x="339" y="672" type="curve"/>
			<point x="321" y="706" type="line"/>
			<point x="233" y="696" type="line"/>
			<point x="317" y="610" type="line" smooth="yes"/>
			<point x="349" y="577"/>
			<point x="378" y="561"/>
			<point x="418" y="561" type="curve" smooth="yes"/>
			<point x="467" y="561"/>
			<point x="491" y="590"/>
			<point x="491" y="624" type="curve"/>
			<point x="466" y="689"/>
			<point x="382" y="721"/>
			<point x="268" y="721" type="curve" smooth="yes"/>
			<point x="169" y="721"/>
			<point x="81" y="692"/>
			<point x="81" y="614" type="curve" smooth="yes"/>
			<point x="81" y="548"/>
			<point x="145" y="506"/>
			<point x="216" y="454" type="curve"/>
			<point x="229" y="439" type="line"/>
			<point x="308" y="384"/>
			<point x="355" y="295"/>
			<point x="355" y="148" type="curve" smooth="yes"/>
			<point x="355" y="48"/>
			<point x="335" y="20"/>
			<point x="299" y="20" type="curve" smooth="yes"/>
			<point x="253" y="20"/>
			<point x="202" y="118"/>
			<point x="202" y="281" type="curve" smooth="yes"/>
			<point x="202" y="370"/>
			<point x="217" y="417"/>
			<point x="241" y="453" type="curve"/>
			<point x="232" y="462" type="line"/>
			<point x="105" y="444"/>
			<point x="26" y="353"/>
		</contour>
	</outline>
</glyph>
<glyph name="zeta" format="1">
	<unicode hex="03B6"/>
	<advance width="464"/>
	<outline>
		<contour>
			<point x="147" y="-203" type="line"/>
			<point x="348" y="-201"/>
			<point x="452" y="-107"/>
			<point x="452" y="-7" type="curve" smooth="yes"/>
			<point x="452" y="50"/>
			<point x="424" y="103"/>
			<point x="340" y="124" type="curve" smooth="yes"/>
			<point x="291" y="136" type="line" smooth="yes"/>
			<point x="229" y="151"/>
			<point x="199" y="179"/>
			<point x="199" y="238" type="curve" smooth="yes"/>
			<point x="199" y="334"/>
			<point x="259" y="475"/>
			<point x="429" y="633" type="curve"/>
			<point x="423" y="712" type="line"/>
			<point x="46" y="717" type="line"/>
			<point x="46" y="567" type="line"/>
			<point x="344" y="586" type="line"/>
			<point x="349" y="612" type="line"/>
			<point x="209" y="495"/>
			<point x="35" y="313"/>
			<point x="35" y="186" type="curve" smooth="yes"/>
			<point x="35" y="94"/>
			<point x="87" y="36"/>
			<point x="190" y="10" type="curve" smooth="yes"/>
			<point x="256" y="-7" type="line" smooth="yes"/>
			<point x="308" y="-21"/>
			<point x="326" y="-37"/>
			<point x="326" y="-79" type="curve" smooth="yes"/>
			<point x="326" y="-112"/>
			<point x="290" y="-161"/>
			<point x="142" y="-169" type="curve"/>
		</contour>
	</outline>
</glyph>
<glyph name="theta" format="1">
	<unicode hex="03B8"/>
	<advance width="530"/>
	<outline>
		<contour>
			<point x="261" y="-16" type="curve" smooth="yes"/>
			<point x="406" y="-16"/>
			<point x="502" y="104"/>
			<point x="502" y="370" type="curve" smooth="yes"/>
			<point x="502" y="603"/>
			<point x="422" y="721"/>
			<point x="273" y="721" type="curve" smooth="yes"/>
			<point x="134" y="721"/>
			<point x="28" y="608"/>
			<point x="28" y="336" type="curve" smooth="yes"/>
			<point x="28" y="102"/>
			<point x="110" y="-16"/>
		</contour>
		<contour>
			<point x="93" y="337" type="line"/>
			<point x="441" y="337" type="line"/>
			<point x="441" y="377" type="line"/>
			<point x="93" y="377" type="line"/>
		</contour>
		<contour>
			<point x="269" y="19" type="curve" smooth="yes"/>
			<point x="225" y="19"/>
			<point x="194" y="112"/>
			<point x="194" y="366" type="curve" smooth="yes"/>
			<point x="194" y="640"/>
			<point x="218" y="686"/>
			<point x="264" y="686" type="curve" smooth="yes"/>
			<point x="306" y="686"/>
			<point x="335" y="594"/>
			<point x="335" y="347" type="curve" smooth="yes"/>
			<point x="335" y="66"/>
			<point x="312" y="19"/>
		</contour>
	</outline>
</glyph>
<glyph name="iota" format="1">
	<unicode hex="03B9"/>
	<advance width="330"/>
	<outline>
		<contour>
			<point x="198" y="-15" type="curve" smooth="yes"/>
			<point x="267" y="-15"/>
			<point x="317" y="21"/>
			<point x="332" y="57" type="curve"/>
			<point x="318" y="76" type="line"/>
			<point x="310" y="72"/>
			<point x="300" y="70"/>
			<point x="285" y="70" type="curve" smooth="yes"/>
			<point x="261" y="70"/>
			<point x="237" y="83"/>
			<point x="237" y="124" type="curve" smooth="yes"/>
			<point x="237" y="175"/>
			<point x="238" y="256"/>
			<point x="254" y="493" type="curve"/>
			<point x="246" y="499" type="line"/>
			<point x="55" y="468" type="line"/>
			<point x="70" y="115" type="line" smooth="yes"/>
			<point x="73" y="35"/>
			<point x="123" y="-15"/>
		</contour>
		<contour>
			<point name="aboveLC" x="155" y="520" type="move"/>
		</contour>
	</outline>
</glyph>
<glyph name="lambda" format="1">
	<unicode hex="03BB"/>
	<advance width="609"/>
	<outline>
		<contour>
			<point x="379" y="133" type="line" smooth="yes"/>
			<point x="391" y="17"/>
			<point x="442" y="-16"/>
			<point x="501" y="-16" type="curve" smooth="yes"/>
			<point x="566" y="-16"/>
			<point x="606" y="31"/>
			<point x="614" y="108" type="curve"/>
			<point x="605" y="124" type="line"/>
			<point x="595" y="121"/>
			<point x="575" y="118"/>
			<point x="560" y="118" type="curve" smooth="yes"/>
			<point x="504" y="118"/>
			<point x="455" y="148"/>
			<point x="425" y="239" type="curve" smooth="yes"/>
			<point x="313" y="575" type="line" smooth="yes"/>
			<point x="278" y="680"/>
			<point x="236" y="723"/>
			<point x="166" y="723" type="curve" smooth="yes"/>
			<point x="84" y="723"/>
			<point x="19" y="662"/>
			<point x="17" y="554" type="curve"/>
			<point x="27" y="545" type="line"/>
			<point x="62" y="569"/>
			<point x="114" y="589"/>
			<point x="180" y="589" type="curve" smooth="yes"/>
			<point x="248" y="589"/>
			<point x="290" y="577"/>
			<point x="308" y="524" type="curve" smooth="yes"/>
			<point x="352" y="395" type="line"/>
		</contour>
		<contour>
			<point x="16" y="0" type="line"/>
			<point x="219" y="-10" type="line"/>
			<point x="362" y="394" type="line"/>
			<point x="313" y="556" type="line"/>
			<point x="10" y="7" type="line"/>
		</contour>
	</outline>
</glyph>
<glyph name="mu" format="1">
	<unicode hex="03BC"/>
	<advance width="596"/>
	<outline>
		<contour>
			<point x="50" y="-190" type="line"/>
			<point x="58" y="-196" type="line"/>
			<point x="234" y="-161" type="line"/>
			<point x="192" y="88" type="line"/>
			<point x="229" y="103" type="line"/>
			<point x="229" y="199"/>
			<point x="232" y="284"/>
			<point x="240" y="492" type="curve"/>
			<point x="231" y="499" type="line"/>
			<point x="55" y="464" type="line"/>
			<point x="83" y="113" type="line"/>
		</contour>
		<contour>
			<point x="271" y="-16" type="curve" smooth="yes"/>
			<point x="323" y="-16"/>
			<point x="352" y="60"/>
			<point x="365" y="137" type="curve"/>
			<point x="360" y="147" type="line"/>
			<point x="343" y="115"/>
			<point x="312" y="111"/>
			<point x="283" y="111" type="curve" smooth="yes"/>
			<point x="255" y="111"/>
			<point x="236" y="124"/>
			<point x="221" y="154" type="curve"/>
			<point x="179" y="70" type="line"/>
			<point x="199" y="26"/>
			<point x="226" y="-16"/>
		</contour>
		<contour>
			<point x="478" y="-16" type="curve" smooth="yes"/>
			<point x="531" y="-16"/>
			<point x="571" y="9"/>
			<point x="598" y="55" type="curve"/>
			<point x="585" y="75" type="line"/>
			<point x="577" y="71"/>
			<point x="568" y="69"/>
			<point x="556" y="69" type="curve" smooth="yes"/>
			<point x="528" y="69"/>
			<point x="511" y="80"/>
			<point x="511" y="128" type="curve" smooth="yes"/>
			<point x="511" y="181"/>
			<point x="513" y="279"/>
			<point x="526" y="492" type="curve"/>
			<point x="517" y="499" type="line"/>
			<point x="341" y="464" type="line"/>
			<point x="356" y="114" type="line"/>
			<point x="364" y="38"/>
			<point x="410" y="-16"/>
		</contour>
	</outline>
</glyph>
<glyph name="sigma.end" format="1">
	<unicode hex="03C2"/>
	<advance width="469"/>
	<outline>
		<contour>
			<point x="138" y="-203" type="line"/>
			<point x="339" y="-201"/>
			<point x="443" y="-107"/>
			<point x="443" y="-7" type="curve" smooth="yes"/>
			<point x="443" y="50"/>
			<point x="411" y="102"/>
			<point x="326" y="126" type="curve" smooth="yes"/>
			<point x="273" y="141" type="line" smooth="yes"/>
			<point x="214" y="158"/>
			<point x="174" y="196"/>
			<point x="174" y="273" type="curve" smooth="yes"/>
			<point x="174" y="406"/>
			<point x="243" y="476"/>
			<point x="292" y="476" type="curve" smooth="yes"/>
			<point x="308" y="476"/>
			<point x="320" y="474"/>
			<point x="339" y="469" type="curve"/>
			<point x="302" y="487" type="line"/>
			<point x="225" y="484" type="line"/>
			<point x="286" y="402" type="line" smooth="yes"/>
			<point x="303" y="379"/>
			<point x="330" y="358"/>
			<point x="370" y="358" type="curve" smooth="yes"/>
			<point x="420" y="358"/>
			<point x="446" y="390"/>
			<point x="443" y="440" type="curve"/>
			<point x="421" y="475"/>
			<point x="362" y="503"/>
			<point x="301" y="503" type="curve" smooth="yes"/>
			<point x="120" y="503"/>
			<point x="26" y="393"/>
			<point x="26" y="243" type="curve" smooth="yes"/>
			<point x="26" y="101"/>
			<point x="78" y="42"/>
			<point x="184" y="12" type="curve" smooth="yes"/>
			<point x="247" y="-6" type="line" smooth="yes"/>
			<point x="300" y="-21"/>
			<point x="317" y="-37"/>
			<point x="317" y="-79" type="curve" smooth="yes"/>
			<point x="317" y="-112"/>
			<point x="281" y="-161"/>
			<point x="133" y="-169" type="curve"/>
		</contour>
	</outline>
</glyph>
<glyph name="tau" format="1">
	<unicode hex="03C4"/>
	<advance width="485"/>
	<outline>
		<contour>
			<point x="13" y="332" type="line"/>
			<point x="229" y="354" type="line"/>
			<point x="465" y="344" type="line"/>
			<point x="459" y="494" type="line"/>
			<point x="217" y="494" type="line" smooth="yes"/>
			<point x="88" y="494"/>
			<point x="40" y="457"/>
			<point x="5" y="370" type="curve"/>
		</contour>
		<contour>
			<point x="265" y="-16" type="curve" smooth="yes"/>
			<point x="336" y="-16"/>
			<point x="381" y="18"/>
			<point x="406" y="91" type="curve"/>
			<point x="394" y="108" type="line"/>
			<point x="381" y="100"/>
			<point x="365" y="95"/>
			<point x="348" y="95" type="curve" smooth="yes"/>
			<point x="311" y="95"/>
			<point x="289" y="122"/>
			<point x="286" y="182" type="curve" smooth="yes"/>
			<point x="278" y="374" type="line"/>
			<point x="208" y="374" type="line"/>
			<point x="179" y="291"/>
			<point x="140" y="191"/>
			<point x="140" y="116" type="curve" smooth="yes"/>
			<point x="140" y="18"/>
			<point x="197" y="-16"/>
		</contour>
	</outline>
</glyph>
<glyph name="upsilon" format="1">
	<unicode hex="03C5"/>
	<advance width="557"/>
	<outline>
		<contour>
			<point x="64" y="164" type="curve" smooth="yes"/>
			<point x="64" y="46"/>
			<point x="142" y="-16"/>
			<point x="284" y="-16" type="curve" smooth="yes"/>
			<point x="441" y="-16"/>
			<point x="512" y="71"/>
			<point x="512" y="279" type="curve" smooth="yes"/>
			<point x="512" y="352"/>
			<point x="503" y="414"/>
			<point x="484" y="477" type="curve"/>
			<point x="469" y="494"/>
			<point x="453" y="503"/>
			<point x="427" y="503" type="curve" smooth="yes"/>
			<point x="377" y="503"/>
			<point x="334" y="469"/>
			<point x="334" y="408" type="curve" smooth="yes"/>
			<point x="334" y="357"/>
			<point x="367" y="294"/>
			<point x="455" y="200" type="curve"/>
			<point x="455" y="302" type="line"/>
			<point x="433" y="302" type="line"/>
			<point x="440" y="269"/>
			<point x="446" y="214"/>
			<point x="446" y="174" type="curve" smooth="yes"/>
			<point x="446" y="74"/>
			<point x="401" y="31"/>
			<point x="333" y="31" type="curve" smooth="yes"/>
			<point x="268" y="31"/>
			<point x="233" y="90"/>
			<point x="233" y="159" type="curve" smooth="yes"/>
			<point x="233" y="231"/>
			<point x="260" y="313"/>
			<point x="260" y="373" type="curve" smooth="yes"/>
			<point x="260" y="454"/>
			<point x="216" y="498"/>
			<point x="142" y="498" type="curve" smooth="yes"/>
			<point x="86" y="498"/>
			<point x="47" y="475"/>
			<point x="12" y="417" type="curve"/>
			<point x="17" y="406" type="line"/>
			<point x="35" y="406" type="line" smooth="yes"/>
			<point x="73" y="406"/>
			<point x="81" y="390"/>
			<point x="81" y="337" type="curve" smooth="yes"/>
			<point x="81" y="280"/>
			<point x="64" y="230"/>
		</contour>
		<contour>
			<point name="aboveLC" x="287" y="520" type="move"/>
		</contour>
	</outline>
</glyph>
<glyph name="phi" format="1">
	<unicode hex="03C6"/>
	<advance width="774"/>
	<outline>
		<contour>
			<point x="295" y="-187" type="line"/>
			<point x="316" y="-205" type="line"/>
			<point x="475" y="-176" type="line"/>
			<point x="466" y="2" type="line"/>
			<point x="443" y="639" type="line"/>
			<point x="333" y="639" type="line"/>
			<point x="309" y="-8" type="line"/>
		</contour>
		<contour>
			<point x="379" y="-21" type="curve"/>
			<point x="393" y="4" type="line"/>
			<point x="243" y="4"/>
			<point x="199" y="91"/>
			<point x="199" y="265" type="curve" smooth="yes"/>
			<point x="199" y="424"/>
			<point x="267" y="486"/>
			<point x="371" y="486" type="curve"/>
			<point x="386" y="508" type="line"/>
			<point x="145" y="508"/>
			<point x="26" y="414"/>
			<point x="26" y="226" type="curve" smooth="yes"/>
			<point x="26" y="72"/>
			<point x="141" y="-21"/>
		</contour>
		<contour>
			<point x="400" y="-21" type="line"/>
			<point x="637" y="-21"/>
			<point x="748" y="83"/>
			<point x="748" y="246" type="curve" smooth="yes"/>
			<point x="748" y="407"/>
			<point x="654" y="508"/>
			<point x="407" y="508" type="curve"/>
			<point x="392" y="486" type="line"/>
			<point x="520" y="486"/>
			<point x="576" y="411"/>
			<point x="576" y="228" type="curve" smooth="yes"/>
			<point x="576" y="65"/>
			<point x="510" y="4"/>
			<point x="414" y="4" type="curve"/>
		</contour>
	</outline>
</glyph>
<glyph name="omega" format="1">
	<unicode hex="03C9"/>
	<advance width="779"/>
	<outline>
		<contour>
			<point x="245" y="-16" type="curve" smooth="yes"/>
			<point x="328" y="-16"/>
			<point x="395" y="37"/>
			<point x="393" y="179" type="curve"/>
			<point x="385" y="179" type="line"/>
			<point x="386" y="51"/>
			<point x="446" y="-16"/>
			<point x="527" y="-16" type="curve" smooth="yes"/>
			<point x="674" y="-16"/>
			<point x="753" y="90"/>
			<point x="753" y="225" type="curve" smooth="yes"/>
			<point x="753" y="424"/>
			<point x="635" y="497"/>
			<point x="467" y="503" type="curve"/>
			<point x="464" y="480" type="line"/>
			<point x="556" y="451"/>
			<point x="587" y="361"/>
			<point x="587" y="245" type="curve" smooth="yes"/>
			<point x="587" y="118"/>
			<point x="558" y="55"/>
			<point x="495" y="55" type="curve" smooth="yes"/>
			<point x="461" y="55"/>
			<point x="435" y="85"/>
			<point x="435" y="139" type="curve" smooth="yes"/>
			<point x="435" y="196"/>
			<point x="463" y="334"/>
			<point x="468" y="392" type="curve"/>
			<point x="456" y="399" type="line"/>
			<point x="314" y="374" type="line"/>
			<point x="318" y="293"/>
			<point x="342" y="201"/>
			<point x="342" y="130" type="curve" smooth="yes"/>
			<point x="342" y="73"/>
			<point x="320" y="55"/>
			<point x="288" y="55" type="curve" smooth="yes"/>
			<point x="233" y="55"/>
			<point x="192" y="101"/>
			<point x="192" y="255" type="curve" smooth="yes"/>
			<point x="192" y="368"/>
			<point x="218" y="454"/>
			<point x="304" y="480" type="curve"/>
			<point x="299" y="503" type="line"/>
			<point x="134" y="492"/>
			<point x="26" y="411"/>
			<point x="26" y="224" type="curve" smooth="yes"/>
			<point x="26" y="83"/>
			<point x="114" y="-16"/>
		</contour>
		<contour>
			<point name="aboveLC" x="389.5" y="520" type="move"/>
		</contour>
		<contour>
			<point name="belowLC" x="327" y="-22" type="move"/>
		</contour>
	</outline>
</glyph>
<glyph name="digamma" format="1">
	<unicode hex="03DD"/>
	<advance width="484"/>
	<outline>
		<contour>
			<point x="50" y="-186" type="line"/>
			<point x="59" y="-195" type="line"/>
			<point x="243" y="-160" type="line"/>
			<point x="231" y="103" type="line"/>
			<point x="231" y="197"/>
			<point x="234" y="280"/>
			<point x="241" y="469" type="curve"/>
			<point x="196" y="447" type="line"/>
			<point x="458" y="427" type="line"/>
			<point x="458" y="491" type="line"/>
			<point x="56" y="463" type="line"/>
			<point x="82" y="124" type="line"/>
		</contour>
		<contour>
			<point x="118" y="163" type="line"/>
			<point x="428" y="137" type="line"/>
			<point x="428" y="200" type="line"/>
			<point x="118" y="196" type="line"/>
		</contour>
		<contour>
			<point name="aboveLC" x="272" y="520" type="move"/>
		</contour>
	</outline>
</glyph>
<glyph name="sampi" format="1">
	<unicode hex="03E1"/>
	<advance width="612"/>
	<outline>
		<contour>
			<point x="72" y="270" type="line"/>
			<point x="394" y="400" type="line"/>
			<point x="389" y="427" type="line"/>
			<point x="29" y="392" type="line"/>
		</contour>
		<contour>
			<point x="370" y="-171" type="curve"/>
			<point x="397" y="-181" type="line"/>
			<point x="498" y="-57"/>
			<point x="558" y="103"/>
			<point x="558" y="254" type="curve" smooth="yes"/>
			<point x="558" y="504"/>
			<point x="344" y="711"/>
			<point x="58" y="719" type="curve"/>
			<point x="48" y="695" type="line"/>
			<point x="284" y="580"/>
			<point x="397" y="348"/>
			<point x="397" y="53" type="curve" smooth="yes"/>
			<point x="397" y="-33"/>
			<point x="386" y="-101"/>
		</contour>
		<contour>
			<point x="156" y="43" type="line"/>
			<point x="442" y="250" type="line"/>
			<point x="427" y="271" type="line"/>
			<point x="105" y="169" type="line"/>
		</contour>
	</outline>
</glyph>
<glyph name="Nje" format="1">
	<unicode hex="040A"/>
	<advance width="973"/>
	<outline>
		<contour>
			<point x="448" y="310" type="line" smooth="yes"/>
			<point x="448" y="207"/>
			<point x="448" y="103"/>
			<point x="445" y="0" type="curve"/>
			<point x="649" y="0" type="line"/>
			<point x="646" y="101"/>
			<point x="646" y="205"/>
			<point x="646" y="310" type="curve" smooth="yes"/>
			<point x="646" y="371" type="line" smooth="yes"/>
			<point x="646" y="445"/>
			<point x="646" y="549"/>
			<point x="649" y="652" type="curve"/>
			<point x="445" y="652" type="line"/>
			<point x="448" y="551"/>
			<point x="448" y="447"/>
			<point x="448" y="362" type="curve" smooth="yes"/>
		</contour>
		<contour>
			<point x="96" y="310" type="line" smooth="yes"/>
			<point x="96" y="205"/>
			<point x="96" y="101"/>
			<point x="93" y="0" type="curve"/>
			<point x="297" y="0" type="line"/>
			<point x="294" y="103"/>
			<point x="294" y="207"/>
			<point x="294" y="311" type="curve" smooth="yes"/>
			<point x="294" y="362" type="line" smooth="yes"/>
			<point x="294" y="447"/>
			<point x="294" y="551"/>
			<point x="297" y="652" type="curve"/>
			<point x="93" y="652" type="line"/>
			<point x="96" y="549"/>
			<point x="96" y="445"/>
			<point x="96" y="342" type="curve" smooth="yes"/>
		</contour>
		<contour>
			<point x="172" y="602" type="line"/>
			<point x="205" y="602" type="line"/>
			<point x="352" y="617" type="line"/>
			<point x="352" y="652" type="line"/>
			<point x="28" y="652" type="line"/>
			<point x="28" y="617" type="line"/>
		</contour>
		<contour>
			<point x="172" y="50" type="line"/>
			<point x="28" y="35" type="line"/>
			<point x="28" y="0" type="line"/>
			<point x="352" y="0" type="line"/>
			<point x="352" y="35" type="line"/>
			<point x="205" y="50" type="line"/>
		</contour>
		<contour>
			<point x="547" y="349" type="line"/>
			<point x="547" y="387" type="line"/>
			<point x="195" y="387" type="line"/>
			<point x="195" y="349" type="line"/>
		</contour>
		<contour>
			<point x="390" y="0" type="line"/>
			<point x="554" y="0" type="line"/>
			<point x="554" y="50" type="line"/>
			<point x="536" y="50" type="line"/>
			<point x="390" y="35" type="line"/>
		</contour>
		<contour>
			<point x="390" y="617" type="line"/>
			<point x="519" y="602" type="line"/>
			<point x="565" y="602" type="line"/>
			<point x="716" y="617" type="line"/>
			<point x="716" y="652" type="line"/>
			<point x="390" y="652" type="line"/>
		</contour>
		<contour>
			<point x="554" y="0" type="line"/>
			<point x="651" y="0" type="line" smooth="yes"/>
			<point x="874" y="0"/>
			<point x="959" y="77"/>
			<point x="959" y="208" type="curve" smooth="yes"/>
			<point x="959" y="313"/>
			<point x="891" y="396"/>
			<point x="679" y="396" type="curve" smooth="yes"/>
			<point x="623" y="396"/>
			<point x="583" y="392"/>
			<point x="547" y="388" type="curve"/>
			<point x="547" y="350" type="line"/>
			<point x="582" y="355"/>
			<point x="620" y="358"/>
			<point x="660" y="358" type="curve" smooth="yes"/>
			<point x="729" y="358"/>
			<point x="767" y="297"/>
			<point x="767" y="200" type="curve" smooth="yes"/>
			<point x="767" y="93"/>
			<point x="725" y="38"/>
			<point x="656" y="38" type="curve" smooth="yes"/>
			<point x="554" y="38" type="line"/>
		</contour>
	</outline>
</glyph>
<glyph name="De" format="1">
	<unicode hex="0414"/>
	<advance width="724"/>
	<outline>
		<contour>
			<point x="9" y="-200" type="line"/>
			<point x="65" y="-200" type="line"/>
			<point x="129" y="38" type="line"/>
			<point x="48" y="0" type="line"/>
			<point x="667" y="0" type="line"/>
			<point x="586" y="38" type="line"/>
			<point x="650" y="-200" type="line"/>
			<point x="706" y="-200" type="line"/>
			<point x="712" y="38" type="line"/>
			<point x="3" y="38" type="line"/>
		</contour>
		<contour>
			<point x="177" y="617" type="line"/>
			<point x="279" y="606" type="line"/>
			<point x="289" y="606" type="line"/>
			<point x="289" y="652" type="line"/>
			<point x="177" y="652" type="line"/>
		</contour>
		<contour>
			<point x="289" y="614" type="line"/>
			<point x="514" y="614" type="line"/>
			<point x="514" y="652" type="line"/>
			<point x="289" y="652" type="line"/>
		</contour>
		<contour>
			<point x="412" y="0" type="curve"/>
			<point x="616" y="0" type="line"/>
			<point x="613" y="103"/>
			<point x="613" y="207"/>
			<point x="613" y="310" type="curve" smooth="yes"/>
			<point x="613" y="342" type="line" smooth="yes"/>
			<point x="613" y="447"/>
			<point x="613" y="551"/>
			<point x="616" y="652" type="curve"/>
			<point x="412" y="652" type="line"/>
			<point x="415" y="549"/>
			<point x="415" y="445"/>
			<point x="415" y="342" type="curve" smooth="yes"/>
			<point x="415" y="311" type="line" smooth="yes"/>
			<point x="415" y="205"/>
			<point x="415" y="101"/>
		</contour>
		<contour>
			<point x="514" y="602" type="line"/>
			<point x="532" y="602" type="line"/>
			<point x="683" y="617" type="line"/>
			<point x="683" y="652" type="line"/>
			<point x="514" y="652" type="line"/>
		</contour>
		<contour>
			<point x="78" y="38" type="curve"/>
			<point x="120" y="11" type="line"/>
			<point x="217" y="111"/>
			<point x="293" y="328"/>
			<point x="305" y="652" type="curve"/>
			<point x="271" y="652" type="line"/>
			<point x="257" y="331"/>
			<point x="181" y="128"/>
		</contour>
	</outline>
</glyph>
<glyph name="Zhe" format="1">
	<unicode hex="0416"/>
	<advance width="1000"/>
	<outline>
		<contour>
			<point x="338" y="0" type="line"/>
			<point x="662" y="0" type="line"/>
			<point x="662" y="35" type="line"/>
			<point x="515" y="50" type="line"/>
			<point x="482" y="50" type="line"/>
			<point x="338" y="35" type="line"/>
		</contour>
		<contour>
			<point x="338" y="617" type="line"/>
			<point x="482" y="602" type="line"/>
			<point x="515" y="602" type="line"/>
			<point x="662" y="617" type="line"/>
			<point x="662" y="652" type="line"/>
			<point x="338" y="652" type="line"/>
		</contour>
		<contour>
			<point x="406" y="0" type="curve"/>
			<point x="594" y="0" type="line"/>
			<point x="591" y="103"/>
			<point x="591" y="207"/>
			<point x="591" y="321" type="curve" smooth="yes"/>
			<point x="591" y="342" type="line" smooth="yes"/>
			<point x="591" y="447"/>
			<point x="591" y="551"/>
			<point x="594" y="652" type="curve"/>
			<point x="406" y="652" type="line"/>
			<point x="409" y="549"/>
			<point x="409" y="445"/>
			<point x="409" y="342" type="curve" smooth="yes"/>
			<point x="409" y="321" type="line" smooth="yes"/>
			<point x="409" y="205"/>
			<point x="409" y="101"/>
		</contour>
		<contour>
			<point x="726" y="102" type="line" smooth="yes"/>
			<point x="744" y="7"/>
			<point x="782" y="-16"/>
			<point x="875" y="-16" type="curve" smooth="yes"/>
			<point x="918" y="-16"/>
			<point x="951" y="-12"/>
			<point x="1000" y="0" type="curve"/>
			<point x="1000" y="35" type="line"/>
			<point x="842" y="46" type="line"/>
			<point x="946" y="3" type="line"/>
			<point x="914" y="168" type="line" smooth="yes"/>
			<point x="889" y="295"/>
			<point x="814" y="327"/>
			<point x="625" y="336" type="curve"/>
			<point x="625" y="322" type="line"/>
			<point x="701" y="340"/>
			<point x="736" y="372"/>
			<point x="762" y="464" type="curve" smooth="yes"/>
			<point x="775" y="510"/>
			<point x="782" y="531"/>
			<point x="802" y="572" type="curve"/>
			<point x="758" y="546" type="line"/>
			<point x="810" y="514"/>
			<point x="842" y="499"/>
			<point x="875" y="500" type="curve" smooth="yes"/>
			<point x="930" y="501"/>
			<point x="963" y="536"/>
			<point x="963" y="581" type="curve" smooth="yes"/>
			<point x="963" y="626"/>
			<point x="936" y="658"/>
			<point x="877" y="672" type="curve"/>
			<point x="802" y="662"/>
			<point x="758" y="603"/>
			<point x="729" y="473" type="curve" smooth="yes"/>
			<point x="708" y="378"/>
			<point x="662" y="351"/>
			<point x="605" y="351" type="curve" smooth="yes"/>
			<point x="500" y="351" type="line"/>
			<point x="500" y="315" type="line"/>
			<point x="610" y="315" type="line" smooth="yes"/>
			<point x="662" y="315"/>
			<point x="689" y="293"/>
			<point x="706" y="205" type="curve" smooth="yes"/>
		</contour>
		<contour>
			<point x="274" y="102" type="curve" smooth="yes"/>
			<point x="294" y="205" type="line" smooth="yes"/>
			<point x="311" y="293"/>
			<point x="338" y="315"/>
			<point x="390" y="315" type="curve" smooth="yes"/>
			<point x="500" y="315" type="line"/>
			<point x="500" y="351" type="line"/>
			<point x="395" y="351" type="line" smooth="yes"/>
			<point x="338" y="351"/>
			<point x="292" y="378"/>
			<point x="271" y="473" type="curve" smooth="yes"/>
			<point x="242" y="603"/>
			<point x="198" y="662"/>
			<point x="123" y="672" type="curve"/>
			<point x="63" y="658"/>
			<point x="37" y="627"/>
			<point x="37" y="581" type="curve" smooth="yes"/>
			<point x="37" y="536"/>
			<point x="70" y="501"/>
			<point x="125" y="500" type="curve" smooth="yes"/>
			<point x="158" y="499"/>
			<point x="190" y="514"/>
			<point x="242" y="546" type="curve"/>
			<point x="198" y="572" type="line"/>
			<point x="218" y="531"/>
			<point x="225" y="510"/>
			<point x="238" y="464" type="curve" smooth="yes"/>
			<point x="264" y="372"/>
			<point x="299" y="340"/>
			<point x="375" y="322" type="curve"/>
			<point x="375" y="336" type="line"/>
			<point x="186" y="327"/>
			<point x="111" y="295"/>
			<point x="86" y="168" type="curve" smooth="yes"/>
			<point x="54" y="3" type="line"/>
			<point x="158" y="46" type="line"/>
			<point x="0" y="35" type="line"/>
			<point x="0" y="0" type="line"/>
			<point x="49" y="-12"/>
			<point x="82" y="-16"/>
			<point x="125" y="-16" type="curve" smooth="yes"/>
			<point x="218" y="-16"/>
			<point x="256" y="7"/>
		</contour>
		<contour>
			<point name="aboveUC" x="500" y="682" type="move"/>
		</contour>
	</outline>
</glyph>
<glyph name="Icyr" format="1">
	<unicode hex="0418"/>
	<advance width="772"/>
	<outline>
		<contour>
			<point x="28" y="0" type="line"/>
			<point x="357" y="0" type="line"/>
			<point x="357" y="35" type="line"/>
			<point x="205" y="50" type="line"/>
			<point x="172" y="50" type="line"/>
			<point x="28" y="35" type="line"/>
		</contour>
		<contour>
			<point x="28" y="617" type="line"/>
			<point x="172" y="602" type="line"/>
			<point x="205" y="602" type="line"/>
			<point x="357" y="617" type="line"/>
			<point x="357" y="652" type="line"/>
			<point x="28" y="652" type="line"/>
		</contour>
		<contour>
			<point x="93" y="0" type="curve"/>
			<point x="273" y="0" type="line"/>
			<point x="288" y="342" type="line"/>
			<point x="288" y="447"/>
			<point x="288" y="551"/>
			<point x="291" y="652" type="curve"/>
			<point x="93" y="652" type="line"/>
			<point x="96" y="549"/>
			<point x="96" y="445"/>
			<point x="96" y="342" type="curve" smooth="yes"/>
			<point x="96" y="310" type="line" smooth="yes"/>
			<point x="96" y="205"/>
			<point x="96" y="101"/>
		</contour>
		<contour>
			<point x="262" y="68" type="line"/>
			<point x="538" y="558" type="line"/>
			<point x="504" y="576" type="line"/>
			<point x="228" y="86" type="line"/>
		</contour>
		<contour>
			<point x="415" y="0" type="line"/>
			<point x="744" y="0" type="line"/>
			<point x="744" y="35" type="line"/>
			<point x="595" y="50" type="line"/>
			<point x="564" y="50" type="line"/>
			<point x="415" y="35" type="line"/>
		</contour>
		<contour>
			<point x="415" y="617" type="line"/>
			<point x="564" y="602" type="line"/>
			<point x="595" y="602" type="line"/>
			<point x="744" y="617" type="line"/>
			<point x="744" y="652" type="line"/>
			<point x="415" y="652" type="line"/>
		</contour>
		<contour>
			<point x="481" y="0" type="curve"/>
			<point x="679" y="0" type="line"/>
			<point x="676" y="103"/>
			<point x="676" y="207"/>
			<point x="676" y="310" type="curve" smooth="yes"/>
			<point x="676" y="342" type="line" smooth="yes"/>
			<point x="676" y="447"/>
			<point x="676" y="551"/>
			<point x="679" y="652" type="curve"/>
			<point x="499" y="652" type="line"/>
			<point x="484" y="311" type="line"/>
			<point x="484" y="205"/>
			<point x="484" y="101"/>
		</contour>
		<contour>
			<point name="aboveUC" x="386" y="682" type="move"/>
		</contour>
	</outline>
</glyph>
<glyph name="Tse" format="1">
	<unicode hex="0426"/>
	<advance width="762"/>
	<outline>
		<contour>
			<point x="28" y="0" type="line"/>
			<point x="195" y="0" type="line"/>
			<point x="195" y="50" type="line"/>
			<point x="179" y="50" type="line"/>
			<point x="28" y="35" type="line"/>
		</contour>
		<contour>
			<point x="28" y="617" type="line"/>
			<point x="172" y="602" type="line"/>
			<point x="205" y="602" type="line"/>
			<point x="352" y="617" type="line"/>
			<point x="352" y="652" type="line"/>
			<point x="28" y="652" type="line"/>
		</contour>
		<contour>
			<point x="93" y="0" type="curve"/>
			<point x="297" y="0" type="line"/>
			<point x="294" y="101"/>
			<point x="294" y="205"/>
			<point x="294" y="310" type="curve" smooth="yes"/>
			<point x="294" y="341" type="line" smooth="yes"/>
			<point x="294" y="445"/>
			<point x="294" y="549"/>
			<point x="297" y="652" type="curve"/>
			<point x="93" y="652" type="line"/>
			<point x="96" y="551"/>
			<point x="96" y="447"/>
			<point x="96" y="342" type="curve" smooth="yes"/>
			<point x="96" y="310" type="line" smooth="yes"/>
			<point x="96" y="207"/>
			<point x="96" y="103"/>
		</contour>
		<contour>
			<point x="195" y="0" type="line"/>
			<point x="700" y="0" type="line"/>
			<point x="619" y="38" type="line"/>
			<point x="669" y="-200" type="line"/>
			<point x="725" y="-200" type="line"/>
			<point x="745" y="38" type="line"/>
			<point x="195" y="38" type="line"/>
		</contour>
		<contour>
			<point x="390" y="617" type="line"/>
			<point x="534" y="602" type="line"/>
			<point x="565" y="602" type="line"/>
			<point x="714" y="617" type="line"/>
			<point x="714" y="652" type="line"/>
			<point x="390" y="652" type="line"/>
		</contour>
		<contour>
			<point x="445" y="0" type="curve"/>
			<point x="649" y="0" type="line"/>
			<point x="646" y="103"/>
			<point x="646" y="207"/>
			<point x="646" y="310" type="curve" smooth="yes"/>
			<point x="646" y="342" type="line" smooth="yes"/>
			<point x="646" y="447"/>
			<point x="646" y="551"/>
			<point x="649" y="652" type="curve"/>
			<point x="445" y="652" type="line"/>
			<point x="448" y="549"/>
			<point x="448" y="445"/>
			<point x="448" y="342" type="curve" smooth="yes"/>
			<point x="448" y="311" type="line" smooth="yes"/>
			<point x="448" y="205"/>
			<point x="448" y="101"/>
		</contour>
		<contour>
			<point name="aboveUC" x="381" y="682" type="move"/>
		</contour>
	</outline>
</glyph>
<glyph name="Ecyr" format="1">
	<unicode hex="042D"/>
	<advance width="608"/>
	<outline>
		<contour>
			<point x="26" y="32" type="line"/>
			<point x="74" y="5"/>
			<point x="141" y="-20"/>
			<point x="229" y="-20" type="curve" smooth="yes"/>
			<point x="428" y="-20"/>
			<point x="580" y="81"/>
			<point x="580" y="326" type="curve" smooth="yes"/>
			<point x="580" y="577"/>
			<point x="414" y="672"/>
			<point x="219" y="672" type="curve" smooth="yes"/>
			<point x="139" y="672"/>
			<point x="86" y="651"/>
			<point x="32" y="622" type="curve"/>
			<point x="38" y="453" type="line"/>
			<point x="100" y="453" type="line"/>
			<point x="167" y="656" type="line"/>
			<point x="84" y="632" type="line"/>
			<point x="79" y="597" type="line"/>
			<point x="117" y="622"/>
			<point x="151" y="634"/>
			<point x="207" y="634" type="curve" smooth="yes"/>
			<point x="319" y="634"/>
			<point x="383" y="543"/>
			<point x="383" y="325" type="curve" smooth="yes"/>
			<point x="383" y="107"/>
			<point x="321" y="19"/>
			<point x="200" y="19" type="curve" smooth="yes"/>
			<point x="146" y="19"/>
			<point x="116" y="32"/>
			<point x="72" y="63" type="curve"/>
			<point x="88" y="16" type="line"/>
			<point x="164" y="-15" type="line"/>
			<point x="94" y="199" type="line"/>
			<point x="32" y="199" type="line"/>
		</contour>
		<contour>
			<point x="176" y="227" type="line"/>
			<point x="229" y="227" type="line"/>
			<point x="244" y="329" type="line"/>
			<point x="244" y="347" type="line"/>
			<point x="229" y="447" type="line"/>
			<point x="176" y="447" type="line"/>
		</contour>
		<contour>
			<point x="215" y="316" type="line"/>
			<point x="443" y="316" type="line"/>
			<point x="443" y="352" type="line"/>
			<point x="215" y="352" type="line"/>
		</contour>
		<contour>
			<point name="aboveUC" x="260" y="682" type="move"/>
		</contour>
	</outline>
</glyph>
<glyph name="Yu" format="1">
	<unicode hex="042E"/>
	<advance width="1025"/>
	<outline>
		<contour>
			<point x="28" y="0" type="line"/>
			<point x="352" y="0" type="line"/>
			<point x="352" y="35" type="line"/>
			<point x="205" y="50" type="line"/>
			<point x="172" y="50" type="line"/>
			<point x="28" y="35" type="line"/>
		</contour>
		<contour>
			<point x="28" y="617" type="line"/>
			<point x="172" y="602" type="line"/>
			<point x="205" y="602" type="line"/>
			<point x="352" y="617" type="line"/>
			<point x="352" y="652" type="line"/>
			<point x="28" y="652" type="line"/>
		</contour>
		<contour>
			<point x="93" y="0" type="curve"/>
			<point x="287" y="0" type="line"/>
			<point x="284" y="103"/>
			<point x="284" y="207"/>
			<point x="284" y="323" type="curve" smooth="yes"/>
			<point x="284" y="342" type="line" smooth="yes"/>
			<point x="284" y="447"/>
			<point x="284" y="551"/>
			<point x="287" y="652" type="curve"/>
			<point x="93" y="652" type="line"/>
			<point x="96" y="549"/>
			<point x="96" y="445"/>
			<point x="96" y="342" type="curve" smooth="yes"/>
			<point x="96" y="310" type="line" smooth="yes"/>
			<point x="96" y="205"/>
			<point x="96" y="101"/>
		</contour>
		<contour>
			<point x="195" y="313" type="line"/>
			<point x="482" y="313" type="line"/>
			<point x="482" y="351" type="line"/>
			<point x="195" y="351" type="line"/>
		</contour>
		<contour>
			<point x="695" y="-20" type="curve" smooth="yes"/>
			<point x="858" y="-20"/>
			<point x="997" y="83"/>
			<point x="997" y="326" type="curve" smooth="yes"/>
			<point x="997" y="569"/>
			<point x="857" y="672"/>
			<point x="695" y="672" type="curve" smooth="yes"/>
			<point x="533" y="672"/>
			<point x="393" y="561"/>
			<point x="393" y="326" type="curve" smooth="yes"/>
			<point x="393" y="91"/>
			<point x="532" y="-20"/>
		</contour>
		<contour>
			<point x="695" y="19" type="curve" smooth="yes"/>
			<point x="617" y="19"/>
			<point x="588" y="131"/>
			<point x="588" y="326" type="curve" smooth="yes"/>
			<point x="588" y="520"/>
			<point x="617" y="634"/>
			<point x="695" y="634" type="curve" smooth="yes"/>
			<point x="773" y="634"/>
			<point x="802" y="520"/>
			<point x="802" y="326" type="curve" smooth="yes"/>
			<point x="802" y="131"/>
			<point x="773" y="19"/>
		</contour>
		<contour>
			<point name="aboveUC" x="438" y="682" type="move"/>
		</contour>
	</outline>
</glyph>
<glyph name="de" format="1">
	<unicode hex="0434"/>
	<advance width="644"/>
	<outline>
		<contour>
			<point x="67" y="30" type="curve"/>
			<point x="107" y="11" type="line"/>
			<point x="177" y="126"/>
			<point x="243" y="289"/>
			<point x="260" y="487" type="curve"/>
			<point x="223" y="487" type="line"/>
			<point x="209" y="292"/>
			<point x="143" y="141"/>
		</contour>
		<contour>
			<point x="140" y="457" type="line"/>
			<point x="224" y="447" type="line"/>
			<point x="232" y="447" type="line"/>
			<point x="232" y="487" type="line"/>
			<point x="140" y="487" type="line"/>
		</contour>
		<contour>
			<point x="232" y="452" type="line"/>
			<point x="447" y="452" type="line"/>
			<point x="447" y="487" type="line"/>
			<point x="232" y="487" type="line"/>
		</contour>
		<contour>
			<point x="348" y="0" type="curve"/>
			<point x="544" y="0" type="line"/>
			<point x="542" y="45"/>
			<point x="541" y="148"/>
			<point x="541" y="210" type="curve" smooth="yes"/>
			<point x="541" y="277" type="line" smooth="yes"/>
			<point x="541" y="339"/>
			<point x="542" y="442"/>
			<point x="544" y="487" type="curve"/>
			<point x="348" y="487" type="line"/>
			<point x="350" y="442"/>
			<point x="351" y="339"/>
			<point x="351" y="277" type="curve" smooth="yes"/>
			<point x="351" y="210" type="line" smooth="yes"/>
			<point x="351" y="148"/>
			<point x="350" y="45"/>
		</contour>
		<contour>
			<point x="452" y="447" type="line"/>
			<point x="499" y="447" type="line"/>
			<point x="613" y="457" type="line"/>
			<point x="613" y="487" type="line"/>
			<point x="452" y="487" type="line"/>
		</contour>
		<contour>
			<point x="573" y="0" type="line"/>
			<point x="491" y="35" type="line"/>
			<point x="555" y="-180" type="line"/>
			<point x="613" y="-180" type="line"/>
			<point x="621" y="35" type="line"/>
			<point x="5" y="35" type="line"/>
			<point x="13" y="-180" type="line"/>
			<point x="71" y="-180" type="line"/>
			<point x="135" y="35" type="line"/>
			<point x="62" y="0" type="line"/>
		</contour>
	</outline>
</glyph>
<glyph name="el" format="1">
	<unicode hex="043B"/>
	<advance width="613"/>
	<outline>
		<contour>
			<point x="86" y="-10" type="curve" smooth="yes"/>
			<point x="142" y="-10"/>
			<point x="180" y="14"/>
			<point x="215" y="151" type="curve" smooth="yes"/>
			<point x="239" y="246"/>
			<point x="252" y="356"/>
			<point x="254" y="487" type="curve"/>
			<point x="217" y="487" type="line"/>
			<point x="215" y="355"/>
			<point x="202" y="253"/>
			<point x="174" y="162" type="curve" smooth="yes"/>
			<point x="160" y="116"/>
			<point x="137" y="90"/>
			<point x="120" y="74" type="curve"/>
			<point x="164" y="100" type="line"/>
			<point x="142" y="129"/>
			<point x="118" y="144"/>
			<point x="87" y="144" type="curve" smooth="yes"/>
			<point x="51" y="144"/>
			<point x="19" y="128"/>
			<point x="2" y="93" type="curve"/>
			<point x="2" y="21"/>
			<point x="36" y="-10"/>
		</contour>
		<contour>
			<point x="148" y="457" type="line"/>
			<point x="231" y="447" type="line"/>
			<point x="239" y="447" type="line"/>
			<point x="239" y="487" type="line"/>
			<point x="148" y="487" type="line"/>
		</contour>
		<contour>
			<point x="239" y="457" type="line"/>
			<point x="407" y="457" type="line"/>
			<point x="407" y="487" type="line"/>
			<point x="239" y="487" type="line"/>
		</contour>
		<contour>
			<point x="306" y="0" type="line"/>
			<point x="590" y="0" type="line"/>
			<point x="590" y="30" type="line"/>
			<point x="496" y="40" type="line"/>
			<point x="400" y="40" type="line"/>
			<point x="306" y="30" type="line"/>
		</contour>
		<contour>
			<point x="350" y="0" type="curve"/>
			<point x="546" y="0" type="line"/>
			<point x="544" y="45"/>
			<point x="543" y="148"/>
			<point x="543" y="210" type="curve" smooth="yes"/>
			<point x="543" y="277" type="line" smooth="yes"/>
			<point x="543" y="339"/>
			<point x="544" y="442"/>
			<point x="546" y="487" type="curve"/>
			<point x="350" y="487" type="line"/>
			<point x="352" y="442"/>
			<point x="353" y="339"/>
			<point x="353" y="277" type="curve" smooth="yes"/>
			<point x="353" y="210" type="line" smooth="yes"/>
			<point x="353" y="148"/>
			<point x="352" y="45"/>
		</contour>
		<contour>
			<point x="448" y="447" type="line"/>
			<point x="496" y="447" type="line"/>
			<point x="590" y="457" type="line"/>
			<point x="590" y="487" type="line"/>
			<point x="448" y="487" type="line"/>
		</contour>
	</outline>
</glyph>
<glyph name="te" format="1">
	<unicode hex="0442"/>
	<advance width="570"/>
	<outline>
		<contour>
			<point x="17" y="288" type="line"/>
			<point x="66" y="288" type="line"/>
			<point x="139" y="487" type="line"/>
			<point x="52" y="450" type="line"/>
			<point x="518" y="450" type="line"/>
			<point x="431" y="487" type="line"/>
			<point x="505" y="288" type="line"/>
			<point x="553" y="288" type="line"/>
			<point x="551" y="487" type="line"/>
			<point x="19" y="487" type="line"/>
		</contour>
		<contour>
			<point x="132" y="0" type="line"/>
			<point x="438" y="0" type="line"/>
			<point x="438" y="30" type="line"/>
			<point x="348" y="40" type="line"/>
			<point x="222" y="40" type="line"/>
			<point x="132" y="30" type="line"/>
		</contour>
		<contour>
			<point x="187" y="0" type="curve"/>
			<point x="383" y="0" type="line"/>
			<point x="381" y="45"/>
			<point x="380" y="148"/>
			<point x="380" y="210" type="curve" smooth="yes"/>
			<point x="380" y="277" type="line" smooth="yes"/>
			<point x="380" y="339"/>
			<point x="381" y="442"/>
			<point x="383" y="487" type="curve"/>
			<point x="187" y="487" type="line"/>
			<point x="189" y="442"/>
			<point x="190" y="339"/>
			<point x="190" y="277" type="curve" smooth="yes"/>
			<point x="190" y="210" type="line" smooth="yes"/>
			<point x="190" y="148"/>
			<point x="189" y="45"/>
		</contour>
	</outline>
</glyph>
<glyph name="soft" format="1">
	<unicode hex="044C"/>
	<advance width="535"/>
	<outline>
		<contour>
			<point x="23" y="0" type="line"/>
			<point x="165" y="0" type="line"/>
			<point x="165" y="40" type="line"/>
			<point x="117" y="40" type="line"/>
			<point x="23" y="30" type="line"/>
		</contour>
		<contour>
			<point x="23" y="457" type="line"/>
			<point x="117" y="447" type="line"/>
			<point x="213" y="447" type="line"/>
			<point x="307" y="457" type="line"/>
			<point x="307" y="487" type="line"/>
			<point x="23" y="487" type="line"/>
		</contour>
		<contour>
			<point x="67" y="0" type="curve"/>
			<point x="263" y="0" type="line"/>
			<point x="261" y="45"/>
			<point x="260" y="148"/>
			<point x="260" y="210" type="curve" smooth="yes"/>
			<point x="260" y="277" type="line" smooth="yes"/>
			<point x="260" y="339"/>
			<point x="261" y="442"/>
			<point x="263" y="487" type="curve"/>
			<point x="67" y="487" type="line"/>
			<point x="69" y="442"/>
			<point x="70" y="339"/>
			<point x="70" y="277" type="curve" smooth="yes"/>
			<point x="70" y="210" type="line" smooth="yes"/>
			<point x="70" y="148"/>
			<point x="69" y="45"/>
		</contour>
		<contour>
			<point x="165" y="0" type="line"/>
			<point x="287" y="0" type="line" smooth="yes"/>
			<point x="469" y="0"/>
			<point x="523" y="60"/>
			<point x="523" y="151" type="curve" smooth="yes"/>
			<point x="523" y="244"/>
			<point x="461" y="296"/>
			<point x="331" y="296" type="curve" smooth="yes"/>
			<point x="284" y="296"/>
			<point x="229" y="291"/>
			<point x="175" y="279" type="curve"/>
			<point x="175" y="251" type="line"/>
			<point x="203" y="258"/>
			<point x="231" y="261"/>
			<point x="269" y="261" type="curve" smooth="yes"/>
			<point x="322" y="261"/>
			<point x="353" y="237"/>
			<point x="353" y="143" type="curve" smooth="yes"/>
			<point x="353" y="63"/>
			<point x="322" y="30"/>
			<point x="268" y="30" type="curve" smooth="yes"/>
			<point x="165" y="30" type="line"/>
		</contour>
	</outline>
</glyph>
<glyph name="Yat" format="1">
	<unicode hex="0462"/>
	<advance width="759"/>
	<outline>
		<contour>
			<point x="19" y="402" type="line"/>
			<point x="77" y="402" type="line"/>
			<point x="158" y="582" type="line"/>
			<point x="55" y="544" type="line"/>
			<point x="621" y="544" type="line"/>
			<point x="518" y="582" type="line"/>
			<point x="599" y="422" type="line"/>
			<point x="657" y="422" type="line"/>
			<point x="654" y="582" type="line"/>
			<point x="22" y="582" type="line"/>
		</contour>
		<contour>
			<point x="154" y="0" type="line"/>
			<point x="323" y="0" type="line"/>
			<point x="323" y="50" type="line"/>
			<point x="305" y="50" type="line"/>
			<point x="154" y="35" type="line"/>
		</contour>
		<contour>
			<point x="154" y="676" type="line"/>
			<point x="305" y="661" type="line"/>
			<point x="338" y="661" type="line"/>
			<point x="492" y="676" type="line"/>
			<point x="492" y="711" type="line"/>
			<point x="154" y="711" type="line"/>
		</contour>
		<contour>
			<point x="221" y="0" type="curve"/>
			<point x="425" y="0" type="line"/>
			<point x="422" y="103"/>
			<point x="422" y="207"/>
			<point x="422" y="311" type="curve" smooth="yes"/>
			<point x="422" y="372" type="line" smooth="yes"/>
			<point x="422" y="486"/>
			<point x="422" y="610"/>
			<point x="425" y="711" type="curve"/>
			<point x="221" y="711" type="line"/>
			<point x="224" y="608"/>
			<point x="224" y="484"/>
			<point x="224" y="381" type="curve" smooth="yes"/>
			<point x="224" y="310" type="line" smooth="yes"/>
			<point x="224" y="205"/>
			<point x="224" y="101"/>
		</contour>
		<contour>
			<point x="323" y="0" type="line"/>
			<point x="427" y="0" type="line" smooth="yes"/>
			<point x="648" y="0"/>
			<point x="736" y="77"/>
			<point x="736" y="201" type="curve" smooth="yes"/>
			<point x="736" y="306"/>
			<point x="666" y="386"/>
			<point x="450" y="386" type="curve" smooth="yes"/>
			<point x="396" y="386"/>
			<point x="358" y="382"/>
			<point x="322" y="373" type="curve"/>
			<point x="322" y="335" type="line"/>
			<point x="357" y="345"/>
			<point x="393" y="348"/>
			<point x="431" y="348" type="curve" smooth="yes"/>
			<point x="499" y="348"/>
			<point x="544" y="290"/>
			<point x="544" y="197" type="curve" smooth="yes"/>
			<point x="544" y="93"/>
			<point x="502" y="38"/>
			<point x="432" y="38" type="curve" smooth="yes"/>
			<point x="323" y="38" type="line"/>
		</contour>
	</outline>
</glyph>
<glyph name="fita" format="1">
	<unicode hex="0473"/>
	<advance width="572"/>
	<outline>
		<contour>
			<point x="131" y="234" type="line"/>
			<point x="441" y="234" type="line"/>
			<point x="441" y="271" type="line"/>
			<point x="131" y="271" type="line"/>
		</contour>
		<contour>
			<point x="286" y="19" type="curve" smooth="yes"/>
			<point x="235" y="19"/>
			<point x="212" y="71"/>
			<point x="212" y="246" type="curve" smooth="yes"/>
			<point x="212" y="421"/>
			<point x="235" y="468"/>
			<point x="286" y="468" type="curve" smooth="yes"/>
			<point x="337" y="468"/>
			<point x="360" y="421"/>
			<point x="360" y="246" type="curve" smooth="yes"/>
			<point x="360" y="71"/>
			<point x="337" y="19"/>
		</contour>
		<contour>
			<point x="286" y="-16" type="curve" smooth="yes"/>
			<point x="462" y="-16"/>
			<point x="550" y="90"/>
			<point x="550" y="249" type="curve" smooth="yes"/>
			<point x="550" y="408"/>
			<point x="445" y="503"/>
			<point x="286" y="503" type="curve" smooth="yes"/>
			<point x="127" y="503"/>
			<point x="22" y="405"/>
			<point x="22" y="249" type="curve" smooth="yes"/>
			<point x="22" y="93"/>
			<point x="110" y="-16"/>
		</contour>
		<contour>
			<point name="aboveLC" x="286" y="520" type="move"/>
		</contour>
	</outline>
</glyph>
<glyph name="Izhitsa" format="1">
	<unicode hex="0474"/>
	<advance width="692"/>
	<outline>
		<contour>
			<point x="5" y="617" type="line"/>
			<point x="156" y="602" type="line"/>
			<point x="197" y="602" type="line"/>
			<point x="348" y="622" type="line"/>
			<point x="348" y="652" type="line"/>
			<point x="5" y="652" type="line"/>
		</contour>
		<contour>
			<point x="263" y="0" type="line"/>
			<point x="383" y="0" type="line"/>
			<point x="485" y="367" type="line" smooth="yes"/>
			<point x="507" y="445"/>
			<point x="520" y="485"/>
			<point x="551" y="559" type="curve"/>
			<point x="505" y="534" type="line"/>
			<point x="542" y="518"/>
			<point x="577" y="502"/>
			<point x="609" y="502" type="curve" smooth="yes"/>
			<point x="675" y="502"/>
			<point x="705" y="533"/>
			<point x="712" y="579" type="curve"/>
			<point x="708" y="631"/>
			<point x="674" y="672"/>
			<point x="612" y="672" type="curve" smooth="yes"/>
			<point x="549" y="672"/>
			<point x="515" y="631"/>
			<point x="477" y="486" type="curve" smooth="yes"/>
			<point x="381" y="121" type="line"/>
			<point x="402" y="170" type="line"/>
			<point x="246" y="652" type="line"/>
			<point x="33" y="652" type="line"/>
		</contour>
	</outline>
</glyph>
<glyph name="izhitsa" format="1">
	<unicode hex="0475"/>
	<advance width="583"/>
	<outline>
		<contour>
			<point x="-10" y="457" type="line"/>
			<point x="73" y="447" type="line"/>
			<point x="207" y="447" type="line"/>
			<point x="291" y="457" type="line"/>
			<point x="291" y="487" type="line"/>
			<point x="-10" y="487" type="line"/>
		</contour>
		<contour>
			<point x="221" y="0" type="line"/>
			<point x="309" y="1" type="line"/>
			<point x="327" y="86"/>
			<point x="348" y="165"/>
			<point x="370" y="238" type="curve" smooth="yes"/>
			<point x="398" y="328"/>
			<point x="417" y="378"/>
			<point x="454" y="439" type="curve"/>
			<point x="401" y="381" type="line"/>
			<point x="440" y="359"/>
			<point x="470" y="342"/>
			<point x="504" y="342" type="curve" smooth="yes"/>
			<point x="544" y="342"/>
			<point x="581" y="372"/>
			<point x="581" y="420" type="curve" smooth="yes"/>
			<point x="581" y="463"/>
			<point x="558" y="494"/>
			<point x="505" y="503" type="curve"/>
			<point x="446" y="494"/>
			<point x="414" y="454"/>
			<point x="386" y="388" type="curve" smooth="yes"/>
			<point x="369" y="347"/>
			<point x="353" y="300"/>
			<point x="340" y="248" type="curve" smooth="yes"/>
			<point x="323" y="185"/>
			<point x="306" y="114"/>
			<point x="291" y="43" type="curve"/>
			<point x="336" y="171" type="line"/>
			<point x="227" y="487" type="line"/>
			<point x="24" y="487" type="line"/>
		</contour>
	</outline>
</glyph>
<glyph name="Ghestroke" format="1">
	<unicode hex="0492"/>
	<advance width="580"/>
	<outline>
		<contour>
			<point x="28" y="309" type="line"/>
			<point x="390" y="309" type="line"/>
			<point x="390" y="347" type="line"/>
			<point x="28" y="347" type="line"/>
		</contour>
		<component base="Ghe"/>
	</outline>
</glyph>
<glyph name="ghestroke" format="1">
	<unicode hex="0493"/>
	<advance width="465"/>
	<outline>
		<contour>
			<point x="23" y="241" type="line"/>
			<point x="353" y="241" type="line"/>
			<point x="353" y="278" type="line"/>
			<point x="23" y="278" type="line"/>
		</contour>
		<component base="ghe"/>
	</outline>
</glyph>
<glyph name="kabashkir" format="1">
	<unicode hex="04A1"/>
	<advance width="736"/>
	<outline>
		<contour>
			<point x="17" y="288" type="line"/>
			<point x="66" y="288" type="line"/>
			<point x="139" y="487" type="line"/>
			<point x="52" y="450" type="line"/>
			<point x="287" y="450" type="line"/>
			<point x="287" y="487" type="line"/>
			<point x="19" y="487" type="line"/>
		</contour>
		<contour>
			<point x="287" y="447" type="line"/>
			<point x="337" y="447" type="line"/>
			<point x="443" y="457" type="line"/>
			<point x="443" y="487" type="line"/>
			<point x="287" y="487" type="line"/>
		</contour>
		<contour>
			<point x="159" y="0" type="line"/>
			<point x="443" y="0" type="line"/>
			<point x="443" y="30" type="line"/>
			<point x="349" y="40" type="line"/>
			<point x="253" y="40" type="line"/>
			<point x="159" y="30" type="line"/>
		</contour>
		<contour>
			<point x="203" y="0" type="curve"/>
			<point x="399" y="0" type="line"/>
			<point x="397" y="45"/>
			<point x="396" y="148"/>
			<point x="396" y="244" type="curve" smooth="yes"/>
			<point x="396" y="263" type="line" smooth="yes"/>
			<point x="396" y="339"/>
			<point x="397" y="442"/>
			<point x="399" y="487" type="curve"/>
			<point x="203" y="487" type="line"/>
			<point x="205" y="442"/>
			<point x="206" y="339"/>
			<point x="206" y="277" type="curve" smooth="yes"/>
			<point x="206" y="210" type="line" smooth="yes"/>
			<point x="206" y="148"/>
			<point x="205" y="45"/>
		</contour>
		<contour>
			<point x="732" y="30" type="line"/>
			<point x="568" y="50" type="line"/>
			<point x="700" y="7" type="line"/>
			<point x="670" y="135" type="line" smooth="yes"/>
			<point x="651" y="216"/>
			<point x="594" y="249"/>
			<point x="432" y="258" type="curve"/>
			<point x="427" y="249" type="line"/>
			<point x="474" y="257"/>
			<point x="506" y="267"/>
			<point x="531" y="337" type="curve" smooth="yes"/>
			<point x="540" y="362"/>
			<point x="551" y="379"/>
			<point x="577" y="414" type="curve"/>
			<point x="525" y="359" type="line"/>
			<point x="553" y="346"/>
			<point x="576" y="339"/>
			<point x="607" y="339" type="curve" smooth="yes"/>
			<point x="652" y="339"/>
			<point x="697" y="369"/>
			<point x="697" y="420" type="curve" smooth="yes"/>
			<point x="697" y="460"/>
			<point x="677" y="489"/>
			<point x="634" y="503" type="curve"/>
			<point x="570" y="495"/>
			<point x="535" y="451"/>
			<point x="503" y="351" type="curve" smooth="yes"/>
			<point x="477" y="271"/>
			<point x="441" y="271"/>
			<point x="403" y="271" type="curve" smooth="yes"/>
			<point x="301" y="271" type="line"/>
			<point x="301" y="239" type="line"/>
			<point x="401" y="239" type="line" smooth="yes"/>
			<point x="462" y="239"/>
			<point x="481" y="222"/>
			<point x="491" y="168" type="curve" smooth="yes"/>
			<point x="507" y="78" type="line" smooth="yes"/>
			<point x="519" y="13"/>
			<point x="554" y="-12"/>
			<point x="633" y="-12" type="curve" smooth="yes"/>
			<point x="668" y="-12"/>
			<point x="706" y="-6"/>
			<point x="732" y="0" type="curve"/>
		</contour>
	</outline>
</glyph>
<glyph name="Endescender" format="1">
	<unicode hex="04A2"/>
	<advance width="771"/>
	<outline>
		<contour>
			<point x="588" y="0" type="line"/>
			<point x="714" y="0" type="line"/>
			<point x="633" y="38" type="line"/>
			<point x="697" y="-200" type="line"/>
			<point x="753" y="-200" type="line"/>
			<point x="759" y="36" type="line"/>
			<point x="588" y="49" type="line"/>
		</contour>
		<component base="En"/>
	</outline>
</glyph>
<glyph name="hadescender" format="1">
	<unicode hex="04B3"/>
	<advance width="606"/>
	<outline>
		<contour>
			<point x="521" y="0" type="line"/>
			<point x="463" y="35" type="line"/>
			<point x="527" y="-180" type="line"/>
			<point x="585" y="-180" type="line"/>
			<point x="593" y="34" type="line"/>
			<point x="456" y="39" type="line"/>
			<point x="456" y="0" type="line"/>
		</contour>
		<component base="ha"/>
	</outline>
</glyph>
<glyph name="Chedescender" format="1">
	<unicode hex="04B6"/>
	<advance width="734"/>
	<outline>
		<contour>
			<point x="551" y="0" type="line"/>
			<point x="677" y="0" type="line"/>
			<point x="596" y="38" type="line"/>
			<point x="660" y="-200" type="line"/>
			<point x="716" y="-200" type="line"/>
			<point x="722" y="36" type="line"/>
			<point x="551" y="49" type="line"/>
		</contour>
		<component base="Che"/>
	</outline>
</glyph>
<glyph name="Shha" format="1">
	<unicode hex="04BA"/>
	<advance width="723"/>
	<outline>
		<contour>
			<point x="28" y="0" type="line"/>
			<point x="357" y="0" type="line"/>
			<point x="357" y="35" type="line"/>
			<point x="208" y="50" type="line"/>
			<point x="177" y="50" type="line"/>
			<point x="28" y="35" type="line"/>
		</contour>
		<contour>
			<point x="28" y="617" type="line"/>
			<point x="177" y="602" type="line"/>
			<point x="208" y="602" type="line"/>
			<point x="357" y="617" type="line"/>
			<point x="357" y="652" type="line"/>
			<point x="28" y="652" type="line"/>
		</contour>
		<contour>
			<point x="93" y="0" type="curve"/>
			<point x="297" y="0" type="line"/>
			<point x="294" y="103"/>
			<point x="294" y="207"/>
			<point x="294" y="310" type="curve" smooth="yes"/>
			<point x="294" y="352" type="line" smooth="yes"/>
			<point x="294" y="447"/>
			<point x="294" y="551"/>
			<point x="297" y="652" type="curve"/>
			<point x="93" y="652" type="line"/>
			<point x="96" y="549"/>
			<point x="96" y="445"/>
			<point x="96" y="342" type="curve" smooth="yes"/>
			<point x="96" y="310" type="line" smooth="yes"/>
			<point x="96" y="205"/>
			<point x="96" y="101"/>
		</contour>
		<contour>
			<point x="455" y="0" type="curve"/>
			<point x="653" y="0" type="line"/>
			<point x="653" y="167" type="line" smooth="yes"/>
			<point x="653" y="340"/>
			<point x="566" y="378"/>
			<point x="410" y="378" type="curve" smooth="yes"/>
			<point x="336" y="378"/>
			<point x="253" y="367"/>
			<point x="189" y="354" type="curve"/>
			<point x="189" y="319" type="line"/>
			<point x="256" y="331"/>
			<point x="289" y="335"/>
			<point x="341" y="335" type="curve" smooth="yes"/>
			<point x="423" y="335"/>
			<point x="458" y="271"/>
			<point x="458" y="192" type="curve" smooth="yes"/>
			<point x="458" y="149"/>
			<point x="457" y="59"/>
		</contour>
		<contour>
			<point x="395" y="0" type="line"/>
			<point x="710" y="0" type="line"/>
			<point x="710" y="35" type="line"/>
			<point x="580" y="50" type="line"/>
			<point x="547" y="50" type="line"/>
			<point x="395" y="35" type="line"/>
		</contour>
	</outline>
</glyph>
<glyph name="Schwacyr" format="1">
	<unicode hex="04D8"/>
	<advance width="663"/>
	<outline>
		<contour>
			<point x="332" y="-20" type="curve" smooth="yes"/>
			<point x="492" y="-20"/>
			<point x="635" y="99"/>
			<point x="635" y="323" type="curve" smooth="yes"/>
			<point x="635" y="559"/>
			<point x="494" y="673"/>
			<point x="277" y="672" type="curve" smooth="yes"/>
			<point x="185" y="672"/>
			<point x="132" y="651"/>
			<point x="78" y="622" type="curve"/>
			<point x="84" y="453" type="line"/>
			<point x="136" y="453" type="line"/>
			<point x="210" y="652" type="line"/>
			<point x="125" y="597" type="line"/>
			<point x="163" y="622"/>
			<point x="197" y="634"/>
			<point x="253" y="634" type="curve" smooth="yes"/>
			<point x="355" y="634"/>
			<point x="430" y="529"/>
			<point x="430" y="321" type="curve" smooth="yes"/>
			<point x="430" y="87"/>
			<point x="391" y="18"/>
			<point x="333" y="18" type="curve" smooth="yes"/>
			<point x="266" y="18"/>
			<point x="227" y="84"/>
			<point x="227" y="225" type="curve" smooth="yes"/>
			<point x="227" y="258"/>
			<point x="228" y="281"/>
			<point x="232" y="314" type="curve"/>
			<point x="533" y="314" type="line"/>
			<point x="533" y="356" type="line"/>
			<point x="36" y="356" type="line"/>
			<point x="30" y="325"/>
			<point x="28" y="305"/>
			<point x="28" y="270" type="curve" smooth="yes"/>
			<point x="28" y="110"/>
			<point x="130" y="-20"/>
		</contour>
	</outline>
</glyph>
<glyph name="g.sups" format="1">
	<unicode hex="1D4D"/>
	<advance width="365"/>
	<outline>
		<contour>
			<point x="154" y="292" type="curve" smooth="yes"/>
			<point x="104" y="292"/>
			<point x="73" y="313"/>
			<point x="73" y="353" type="curve" smooth="yes"/>
			<point x="73" y="372"/>
			<point x="78" y="384"/>
			<point x="90" y="399" type="curve"/>
			<point x="88" y="400" type="line"/>
			<point x="33" y="389"/>
			<point x="9" y="363"/>
			<point x="9" y="336" type="curve" smooth="yes"/>
			<point x="9" y="299"/>
			<point x="41" y="263"/>
			<point x="153" y="263" type="curve" smooth="yes"/>
			<point x="282" y="263"/>
			<point x="351" y="316"/>
			<point x="351" y="385" type="curve" smooth="yes"/>
			<point x="351" y="438"/>
			<point x="315" y="476"/>
			<point x="212" y="476" type="curve" smooth="yes"/>
			<point x="133" y="476" type="line" smooth="yes"/>
			<point x="101" y="476"/>
			<point x="88" y="486"/>
			<point x="88" y="507" type="curve" smooth="yes"/>
			<point x="88" y="518"/>
			<point x="94" y="530"/>
			<point x="104" y="540" type="curve"/>
			<point x="97" y="544" type="line"/>
			<point x="50" y="520"/>
			<point x="28" y="497"/>
			<point x="28" y="461" type="curve" smooth="yes"/>
			<point x="28" y="410"/>
			<point x="66" y="376"/>
			<point x="147" y="376" type="curve" smooth="yes"/>
			<point x="217" y="376" type="line" smooth="yes"/>
			<point x="253" y="376"/>
			<point x="265" y="360"/>
			<point x="265" y="339" type="curve" smooth="yes"/>
			<point x="265" y="310"/>
			<point x="229" y="292"/>
		</contour>
		<contour>
			<point x="24" y="625" type="curve" smooth="yes"/>
			<point x="24" y="567"/>
			<point x="68" y="519"/>
			<point x="165" y="519" type="curve" smooth="yes"/>
			<point x="262" y="519"/>
			<point x="307" y="567"/>
			<point x="307" y="625" type="curve" smooth="yes"/>
			<point x="307" y="684"/>
			<point x="263" y="731"/>
			<point x="165" y="731" type="curve" smooth="yes"/>
			<point x="68" y="731"/>
			<point x="24" y="684"/>
		</contour>
		<contour>
			<point x="166" y="711" type="curve" smooth="yes"/>
			<point x="194" y="711"/>
			<point x="210" y="680"/>
			<point x="210" y="625" type="curve" smooth="yes"/>
			<point x="210" y="570"/>
			<point x="195" y="539"/>
			<point x="165" y="539" type="curve" smooth="yes"/>
			<point x="135" y="539"/>
			<point x="122" y="570"/>
			<point x="122" y="625" type="curve" smooth="yes"/>
			<point x="122" y="680"/>
			<point x="137" y="711"/>
		</contour>
		<contour>
			<point x="263" y="696" type="line"/>
			<point x="263" y="685" type="line"/>
			<point x="362" y="673" type="line"/>
			<point x="362" y="726" type="line"/>
			<point x="351" y="732" type="line"/>
		</contour>
	</outline>
</glyph>
<glyph name="k.sups" format="1">
	<unicode hex="1D4F"/>
	<advance width="404"/>
	<outline>
		<contour>
			<point x="315" y="694" type="line"/>
			<point x="384" y="701" type="line"/>
			<point x="384" y="719" type="line"/>
			<point x="228" y="719" type="line"/>
			<point x="228" y="701" type="line"/>
			<point x="302" y="694" type="line"/>
		</contour>
		<contour>
			<point x="314" y="719" type="line"/>
			<point x="108" y="526" type="line"/>
			<point x="108" y="501" type="line"/>
			<point x="357" y="719" type="line"/>
		</contour>
		<contour>
			<point x="14" y="836" type="line"/>
			<point x="14" y="820" type="line"/>
			<point x="54" y="815" type="line"/>
			<point x="54" y="406" type="line"/>
			<point x="165" y="406" type="line"/>
			<point x="165" y="859" type="line"/>
			<point x="157" y="865" type="line"/>
		</contour>
		<contour>
			<point x="133" y="433" type="line"/>
			<point x="80" y="433" type="line"/>
			<point x="18" y="426" type="line"/>
			<point x="18" y="406" type="line"/>
			<point x="201" y="406" type="line"/>
			<point x="201" y="426" type="line"/>
		</contour>
		<contour>
			<point x="375" y="416" type="line"/>
			<point x="259" y="645" type="line"/>
			<point x="182" y="573" type="line"/>
			<point x="262" y="406" type="line"/>
			<point x="402" y="406" type="line"/>
			<point x="402" y="426" type="line"/>
			<point x="311" y="438" type="line"/>
		</contour>
	</outline>
</glyph>
<glyph name="m.sups" format="1">
	<unicode hex="1D50"/>
	<advance width="607"/>
	<outline>
		<contour>
			<point x="464" y="731" type="curve" smooth="yes"/>
			<point x="418" y="731"/>
			<point x="382" y="713"/>
			<point x="334" y="641" type="curve"/>
			<point x="361" y="664" type="line"/>
			<point x="313" y="664" type="line"/>
			<point x="313" y="624" type="line"/>
			<point x="337" y="624" type="line"/>
			<point x="363" y="656"/>
			<point x="389" y="678"/>
			<point x="417" y="678" type="curve" smooth="yes"/>
			<point x="444" y="678"/>
			<point x="454" y="667"/>
			<point x="454" y="622" type="curve" smooth="yes"/>
			<point x="454" y="406" type="line"/>
			<point x="562" y="406" type="line"/>
			<point x="562" y="616" type="line" smooth="yes"/>
			<point x="562" y="692"/>
			<point x="533" y="731"/>
		</contour>
		<contour>
			<point x="268" y="731" type="curve" smooth="yes"/>
			<point x="217" y="731"/>
			<point x="179" y="703"/>
			<point x="138" y="641" type="curve"/>
			<point x="157" y="661" type="line"/>
			<point x="115" y="661" type="line"/>
			<point x="115" y="624" type="line"/>
			<point x="140" y="624" type="line"/>
			<point x="160" y="649"/>
			<point x="190" y="678"/>
			<point x="219" y="678" type="curve" smooth="yes"/>
			<point x="247" y="678"/>
			<point x="256" y="663"/>
			<point x="256" y="622" type="curve" smooth="yes"/>
			<point x="256" y="406" type="line"/>
			<point x="365" y="406" type="line"/>
			<point x="365" y="622" type="line" smooth="yes"/>
			<point x="365" y="693"/>
			<point x="331" y="731"/>
		</contour>
		<contour>
			<point x="134" y="433" type="line"/>
			<point x="81" y="433" type="line"/>
			<point x="19" y="426" type="line"/>
			<point x="19" y="406" type="line"/>
			<point x="197" y="406" type="line"/>
			<point x="197" y="426" type="line"/>
		</contour>
		<contour>
			<point x="280" y="433" type="line"/>
			<point x="222" y="426" type="line"/>
			<point x="222" y="406" type="line"/>
			<point x="396" y="406" type="line"/>
			<point x="396" y="426" type="line"/>
			<point x="335" y="433" type="line"/>
		</contour>
		<contour>
			<point x="477" y="433" type="line"/>
			<point x="422" y="426" type="line"/>
			<point x="422" y="406" type="line"/>
			<point x="596" y="406" type="line"/>
			<point x="596" y="426" type="line"/>
			<point x="533" y="433" type="line"/>
		</contour>
		<contour>
			<point x="166" y="406" type="line"/>
			<point x="166" y="665" type="line"/>
			<point x="160" y="725" type="line"/>
			<point x="151" y="731" type="line"/>
			<point x="13" y="687" type="line"/>
			<point x="13" y="673" type="line"/>
			<point x="55" y="667" type="line"/>
			<point x="55" y="406" type="line"/>
		</contour>
	</outline>
</glyph>
<glyph name="u.sups" format="1">
	<unicode hex="1D58"/>
	<advance width="400"/>
	<outline>
		<contour>
			<point x="387" y="406" type="line"/>
			<point x="387" y="426" type="line"/>
			<point x="306" y="433" type="line"/>
			<point x="353" y="408" type="line"/>
			<point x="354" y="721" type="line"/>
			<point x="346" y="727" type="line"/>
			<point x="208" y="702" type="line"/>
			<point x="208" y="688" type="line"/>
			<point x="266" y="675" type="line"/>
			<point x="243" y="693" type="line"/>
			<point x="242" y="465" type="line"/>
			<point x="247" y="400" type="line"/>
		</contour>
		<contour>
			<point x="151" y="721" type="line"/>
			<point x="143" y="727" type="line"/>
			<point x="5" y="705" type="line"/>
			<point x="5" y="688" type="line"/>
			<point x="64" y="675" type="line"/>
			<point x="43" y="692" type="line"/>
			<point x="40" y="512" type="line" smooth="yes"/>
			<point x="39" y="427"/>
			<point x="77" y="396"/>
			<point x="135" y="396" type="curve" smooth="yes"/>
			<point x="191" y="396"/>
			<point x="241" y="444"/>
			<point x="267" y="493" type="curve"/>
			<point x="246" y="466" type="line"/>
			<point x="290" y="466" type="line"/>
			<point x="290" y="503" type="line"/>
			<point x="266" y="503" type="line"/>
			<point x="247" y="478"/>
			<point x="220" y="456"/>
			<point x="192" y="456" type="curve" smooth="yes"/>
			<point x="167" y="456"/>
			<point x="151" y="466"/>
			<point x="151" y="501" type="curve"/>
		</contour>
	</outline>
</glyph>
<glyph name="v.sups" format="1">
	<unicode hex="1D5B"/>
	<advance width="357"/>
	<outline>
		<contour>
			<point x="125" y="694" type="line"/>
			<point x="187" y="701" type="line"/>
			<point x="187" y="719" type="line"/>
			<point x="-5" y="719" type="line"/>
			<point x="-5" y="701" type="line"/>
			<point x="53" y="694" type="line"/>
		</contour>
		<contour>
			<point x="303" y="694" type="line"/>
			<point x="350" y="701" type="line"/>
			<point x="350" y="719" type="line"/>
			<point x="234" y="719" type="line"/>
			<point x="234" y="701" type="line"/>
			<point x="287" y="694" type="line"/>
		</contour>
		<contour>
			<point x="18" y="719" type="line"/>
			<point x="148" y="405" type="line"/>
			<point x="196" y="405" type="line"/>
			<point x="320" y="719" type="line"/>
			<point x="286" y="719" type="line"/>
			<point x="187" y="431" type="line"/>
			<point x="222" y="493" type="line"/>
			<point x="137" y="719" type="line"/>
		</contour>
	</outline>
</glyph>
<glyph name="f.sups" format="1">
	<unicode hex="1DA0"/>
	<advance width="234"/>
	<outline>
		<contour>
			<point x="150" y="433" type="line"/>
			<point x="78" y="433" type="line"/>
			<point x="12" y="426" type="line"/>
			<point x="12" y="406" type="line"/>
			<point x="212" y="406" type="line"/>
			<point x="212" y="426" type="line"/>
		</contour>
		<contour>
			<point x="105" y="719" type="line"/>
			<point x="105" y="692" type="line"/>
			<point x="223" y="692" type="line"/>
			<point x="223" y="719" type="line"/>
		</contour>
		<contour>
			<point x="50" y="406" type="line"/>
			<point x="160" y="406" type="line"/>
			<point x="160" y="703" type="line"/>
			<point x="154" y="774"/>
			<point x="158" y="822"/>
			<point x="178" y="855" type="curve" smooth="yes"/>
			<point x="184" y="864"/>
			<point x="204" y="874"/>
			<point x="227" y="874" type="curve" smooth="yes"/>
			<point x="235" y="874"/>
			<point x="243" y="867"/>
			<point x="250" y="860" type="curve"/>
			<point x="243" y="879" type="line"/>
			<point x="177" y="871" type="line"/>
			<point x="193" y="841" type="line" smooth="yes"/>
			<point x="213" y="804"/>
			<point x="228" y="789"/>
			<point x="253" y="789" type="curve" smooth="yes"/>
			<point x="284" y="789"/>
			<point x="302" y="809"/>
			<point x="302" y="836" type="curve"/>
			<point x="294" y="873"/>
			<point x="258" y="885"/>
			<point x="221" y="885" type="curve" smooth="yes"/>
			<point x="182" y="885"/>
			<point x="143" y="873"/>
			<point x="107" y="842" type="curve" smooth="yes"/>
			<point x="80" y="818"/>
			<point x="56" y="783"/>
			<point x="50" y="709" type="curve"/>
			<point x="87" y="723" type="line"/>
			<point x="10" y="713" type="line"/>
			<point x="10" y="692" type="line"/>
			<point x="50" y="692" type="line"/>
		</contour>
	</outline>
</glyph>
<glyph name="Germandbls" format="1">
	<unicode hex="1E9E"/>
	<advance width="760"/>
	<outline>
		<contour>
			<point x="28" y="0" type="line"/>
			<point x="197" y="0" type="line"/>
			<point x="197" y="50" type="line"/>
			<point x="179" y="50" type="line"/>
			<point x="28" y="35" type="line"/>
		</contour>
		<contour>
			<point x="95" y="0" type="curve"/>
			<point x="299" y="0" type="line"/>
			<point x="296" y="103"/>
			<point x="295" y="207"/>
			<point x="296" y="281" type="curve" smooth="yes"/>
			<point x="297" y="451" type="line" smooth="yes"/>
			<point x="298" y="599"/>
			<point x="357" y="634"/>
			<point x="470" y="634" type="curve" smooth="yes"/>
			<point x="526" y="634"/>
			<point x="566" y="624"/>
			<point x="616" y="598" type="curve"/>
			<point x="616" y="609" type="line"/>
			<point x="475" y="569"/>
			<point x="402" y="504"/>
			<point x="402" y="410" type="curve" smooth="yes"/>
			<point x="402" y="351"/>
			<point x="419" y="322"/>
			<point x="468" y="268" type="curve" smooth="yes"/>
			<point x="498" y="235" type="line" smooth="yes"/>
			<point x="544" y="185"/>
			<point x="555" y="161"/>
			<point x="555" y="110" type="curve" smooth="yes"/>
			<point x="555" y="60"/>
			<point x="526" y="16"/>
			<point x="469" y="16" type="curve" smooth="yes"/>
			<point x="460" y="16"/>
			<point x="443" y="18"/>
			<point x="425" y="23" type="curve"/>
			<point x="473" y="0" type="line"/>
			<point x="429" y="194" type="line"/>
			<point x="367" y="194" type="line"/>
			<point x="362" y="32" type="line"/>
			<point x="405" y="-2"/>
			<point x="464" y="-20"/>
			<point x="517" y="-20" type="curve" smooth="yes"/>
			<point x="652" y="-20"/>
			<point x="740" y="64"/>
			<point x="740" y="169" type="curve" smooth="yes"/>
			<point x="740" y="249"/>
			<point x="714" y="290"/>
			<point x="641" y="366" type="curve" smooth="yes"/>
			<point x="618" y="390" type="line" smooth="yes"/>
			<point x="586" y="424"/>
			<point x="578" y="458"/>
			<point x="578" y="485" type="curve" smooth="yes"/>
			<point x="578" y="541"/>
			<point x="599" y="574"/>
			<point x="642" y="597" type="curve"/>
			<point x="642" y="618" type="line"/>
			<point x="593" y="646"/>
			<point x="521" y="672"/>
			<point x="424" y="672" type="curve" smooth="yes"/>
			<point x="221" y="672"/>
			<point x="98" y="617"/>
			<point x="98" y="407" type="curve" smooth="yes"/>
			<point x="98" y="320" type="line" smooth="yes"/>
			<point x="98" y="215"/>
			<point x="98" y="101"/>
		</contour>
	</outline>
</glyph>
<glyph name="endash" format="1">
	<unicode hex="2013"/>
	<advance width="550"/>
	<outline>
		<contour>
			<point x="40" y="215" type="line"/>
			<point x="510" y="215" type="line"/>
			<point x="510" y="295" type="line"/>
			<point x="40" y="295" type="line"/>
		</contour>
	</outline>
</glyph>
<glyph name="daggerdbl" format="1">
	<unicode hex="2021"/>
	<advance width="540"/>
	<outline>
		<contour>
			<point x="33" y="123" type="curve" smooth="yes"/>
			<point x="33" y="78"/>
			<point x="64" y="44"/>
			<point x="120" y="44" type="curve" smooth="yes"/>
			<point x="153" y="44"/>
			<point x="177" y="59"/>
			<point x="205" y="77" type="curve" smooth="yes"/>
			<point x="270" y="120" type="line"/>
			<point x="270" y="126" type="line"/>
			<point x="205" y="168" type="line" smooth="yes"/>
			<point x="178" y="185"/>
			<point x="153" y="201"/>
			<point x="120" y="201" type="curve" smooth="yes"/>
			<point x="64" y="201"/>
			<point x="33" y="168"/>
		</contour>
		<contour>
			<point x="507" y="123" type="curve" smooth="yes"/>
			<point x="507" y="168"/>
			<point x="476" y="202"/>
			<point x="420" y="202" type="curve" smooth="yes"/>
			<point x="387" y="202"/>
			<point x="363" y="187"/>
			<point x="335" y="169" type="curve" smooth="yes"/>
			<point x="270" y="126" type="line"/>
			<point x="270" y="120" type="line"/>
			<point x="335" y="78" type="line" smooth="yes"/>
			<point x="362" y="61"/>
			<point x="387" y="45"/>
			<point x="420" y="45" type="curve" smooth="yes"/>
			<point x="476" y="45"/>
			<point x="507" y="78"/>
		</contour>
		<contour>
			<point x="270" y="-109" type="curve" smooth="yes"/>
			<point x="315" y="-109"/>
			<point x="349" y="-80"/>
			<point x="349" y="-30" type="curve" smooth="yes"/>
			<point x="349" y="2"/>
			<point x="335" y="30"/>
			<point x="316" y="58" type="curve" smooth="yes"/>
			<point x="272" y="123" type="line"/>
			<point x="268" y="123" type="line"/>
			<point x="225" y="58" type="line" smooth="yes"/>
			<point x="207" y="31"/>
			<point x="192" y="2"/>
			<point x="192" y="-30" type="curve" smooth="yes"/>
			<point x="192" y="-80"/>
			<point x="225" y="-109"/>
		</contour>
		<contour>
			<point x="507" y="487" type="curve" smooth="yes"/>
			<point x="507" y="532"/>
			<point x="476" y="565"/>
			<point x="420" y="565" type="curve" smooth="yes"/>
			<point x="387" y="565"/>
			<point x="362" y="549"/>
			<point x="335" y="532" type="curve" smooth="yes"/>
			<point x="270" y="490" type="line"/>
			<point x="270" y="484" type="line"/>
			<point x="335" y="441" type="line" smooth="yes"/>
			<point x="363" y="423"/>
			<point x="387" y="408"/>
			<point x="420" y="408" type="curve" smooth="yes"/>
			<point x="476" y="408"/>
			<point x="507" y="442"/>
		</contour>
		<contour>
			<point x="270" y="719" type="curve" smooth="yes"/>
			<point x="225" y="719"/>
			<point x="192" y="690"/>
			<point x="192" y="640" type="curve" smooth="yes"/>
			<point x="192" y="608"/>
			<point x="207" y="579"/>
			<point x="225" y="552" type="curve" smooth="yes"/>
			<point x="268" y="487" type="line"/>
			<point x="272" y="487" type="line"/>
			<point x="316" y="552" type="line" smooth="yes"/>
			<point x="335" y="580"/>
			<point x="349" y="608"/>
			<point x="349" y="640" type="curve" smooth="yes"/>
			<point x="349" y="690"/>
			<point x="315" y="719"/>
		</contour>
		<contour>
			<point x="33" y="487" type="curve" smooth="yes"/>
			<point x="33" y="442"/>
			<point x="64" y="409"/>
			<point x="120" y="409" type="curve" smooth="yes"/>
			<point x="153" y="409"/>
			<point x="178" y="425"/>
			<point x="205" y="442" type="curve" smooth="yes"/>
			<point x="270" y="484" type="line"/>
			<point x="270" y="490" type="line"/>
			<point x="205" y="533" type="line" smooth="yes"/>
			<point x="177" y="551"/>
			<point x="153" y="566"/>
			<point x="120" y="566" type="curve" smooth="yes"/>
			<point x="64" y="566"/>
			<point x="33" y="532"/>
		</contour>
		<contour>
			<point x="344" y="305" type="curve" smooth="yes"/>
			<point x="344" y="347"/>
			<point x="330" y="394"/>
			<point x="272" y="487" type="curve"/>
			<point x="268" y="487" type="line"/>
			<point x="208" y="394"/>
			<point x="196" y="347"/>
			<point x="196" y="305" type="curve" smooth="yes"/>
			<point x="196" y="263"/>
			<point x="208" y="216"/>
			<point x="268" y="123" type="curve"/>
			<point x="272" y="123" type="line"/>
			<point x="330" y="216"/>
			<point x="344" y="263"/>
		</contour>
	</outline>
</glyph>
<glyph name="guilsinglleft" format="1">
	<unicode hex="2039"/>
	<advance width="354"/>
	<outline>
		<contour>
			<point x="279" y="31" type="line"/>
			<point x="300" y="52" type="line"/>
			<point x="117" y="297" type="line"/>
			<point x="117" y="208" type="line"/>
			<point x="300" y="453" type="line"/>
			<point x="279" y="474" type="line"/>
			<point x="25" y="288" type="line"/>
			<point x="25" y="217" type="line"/>
		</contour>
	</outline>
</glyph>
<glyph name="six.sups" format="1">
	<unicode hex="2076"/>
	<advance width="374"/>
	<outline>
		<contour>
			<point x="194" y="421" type="curve" smooth="yes"/>
			<point x="166" y="421"/>
			<point x="143" y="467"/>
			<point x="143" y="579" type="curve" smooth="yes"/>
			<point x="143" y="687"/>
			<point x="205" y="756"/>
			<point x="318" y="786" type="curve"/>
			<point x="314" y="803" type="line"/>
			<point x="146" y="788"/>
			<point x="24" y="689"/>
			<point x="24" y="567" type="curve" smooth="yes"/>
			<point x="24" y="458"/>
			<point x="91" y="397"/>
			<point x="194" y="397" type="curve" smooth="yes"/>
			<point x="292" y="397"/>
			<point x="349" y="446"/>
			<point x="349" y="527" type="curve" smooth="yes"/>
			<point x="349" y="599"/>
			<point x="309" y="647"/>
			<point x="233" y="647" type="curve" smooth="yes"/>
			<point x="187" y="647"/>
			<point x="150" y="628"/>
			<point x="127" y="591" type="curve"/>
			<point x="134" y="583" type="line"/>
			<point x="148" y="604"/>
			<point x="167" y="610"/>
			<point x="185" y="610" type="curve" smooth="yes"/>
			<point x="219" y="610"/>
			<point x="233" y="581"/>
			<point x="233" y="520" type="curve" smooth="yes"/>
			<point x="233" y="450"/>
			<point x="217" y="421"/>
		</contour>
	</outline>
</glyph>
<glyph name="parenleft.sups" format="1">
	<unicode hex="207D"/>
	<advance width="292"/>
	<outline>
		<contour>
			<point x="156" y="576" type="curve" smooth="yes"/>
			<point x="156" y="674"/>
			<point x="177" y="746"/>
			<point x="250" y="838" type="curve"/>
			<point x="233" y="852" type="line"/>
			<point x="126" y="785"/>
			<point x="61" y="690"/>
			<point x="61" y="576" type="curve" smooth="yes"/>
			<point x="61" y="462"/>
			<point x="127" y="367"/>
			<point x="233" y="300" type="curve"/>
			<point x="250" y="313" type="line"/>
			<point x="181" y="404"/>
			<point x="156" y="477"/>
		</contour>
	</outline>
</glyph>
<glyph name="colonmonetary" format="1">
	<unicode hex="20A1"/>
	<advance width="560"/>
	<outline>
		<contour>
			<point x="315" y="-16" type="curve" smooth="yes"/>
			<point x="440" y="-16"/>
			<point x="515" y="41"/>
			<point x="515" y="117" type="curve"/>
			<point x="511" y="154"/>
			<point x="485" y="167"/>
			<point x="461" y="167" type="curve" smooth="yes"/>
			<point x="426" y="167"/>
			<point x="390" y="155"/>
			<point x="383" y="87" type="curve" smooth="yes"/>
			<point x="375" y="9" type="line"/>
			<point x="459" y="51" type="line"/>
			<point x="419" y="32"/>
			<point x="385" y="19"/>
			<point x="327" y="19" type="curve" smooth="yes"/>
			<point x="247" y="19"/>
			<point x="172" y="78"/>
			<point x="172" y="314" type="curve" smooth="yes"/>
			<point x="172" y="526"/>
			<point x="260" y="605"/>
			<point x="378" y="605" type="curve" smooth="yes"/>
			<point x="405" y="605"/>
			<point x="442" y="598"/>
			<point x="494" y="573" type="curve"/>
			<point x="417" y="617" type="line"/>
			<point x="428" y="537" type="line" smooth="yes"/>
			<point x="437" y="470"/>
			<point x="465" y="457"/>
			<point x="492" y="457" type="curve" smooth="yes"/>
			<point x="520" y="457"/>
			<point x="546" y="470"/>
			<point x="550" y="507" type="curve"/>
			<point x="550" y="583"/>
			<point x="465" y="640"/>
			<point x="349" y="640" type="curve" smooth="yes"/>
			<point x="147" y="640"/>
			<point x="15" y="506"/>
			<point x="15" y="298" type="curve" smooth="yes"/>
			<point x="15" y="75"/>
			<point x="145" y="-16"/>
		</contour>
		<contour>
			<point x="179" y="-115" type="line"/>
			<point x="219" y="-115" type="line"/>
			<point x="323" y="731" type="line"/>
			<point x="283" y="731" type="line"/>
		</contour>
		<contour>
			<point x="275" y="-115" type="line"/>
			<point x="315" y="-115" type="line"/>
			<point x="419" y="731" type="line"/>
			<point x="379" y="731" type="line"/>
		</contour>
	</outline>
</glyph>
<glyph name="naira" format="1">
	<unicode hex="20A6"/>
	<advance width="560"/>
	<outline>
		<contour>
			<point x="10" y="366" type="line"/>
			<point x="550" y="366" type="line"/>
			<point x="550" y="416" type="line"/>
			<point x="10" y="416" type="line"/>
		</contour>
		<contour>
			<point x="10" y="250" type="line"/>
			<point x="550" y="250" type="line"/>
			<point x="550" y="300" type="line"/>
			<point x="10" y="300" type="line"/>
		</contour>
		<contour>
			<point x="478" y="0" type="line"/>
			<point x="485" y="579" type="line"/>
			<point x="560" y="591" type="line"/>
			<point x="560" y="625" type="line"/>
			<point x="357" y="625" type="line"/>
			<point x="357" y="591" type="line"/>
			<point x="435" y="578" type="line"/>
			<point x="439" y="130" type="line"/>
			<point x="436" y="130" type="line"/>
			<point x="416" y="208"/>
			<point x="378" y="325"/>
			<point x="354" y="397" type="curve" smooth="yes"/>
			<point x="278" y="625" type="line"/>
			<point x="10" y="625" type="line"/>
			<point x="10" y="591" type="line"/>
			<point x="83" y="580" type="line"/>
			<point x="77" y="46" type="line"/>
			<point x="0" y="34" type="line"/>
			<point x="0" y="0" type="line"/>
			<point x="224" y="0" type="line"/>
			<point x="224" y="34" type="line"/>
			<point x="127" y="47" type="line"/>
			<point x="122" y="534" type="line"/>
			<point x="125" y="534" type="line"/>
			<point x="149" y="432"/>
			<point x="175" y="355"/>
			<point x="203" y="275" type="curve" smooth="yes"/>
			<point x="301" y="0" type="line"/>
		</contour>
	</outline>
</glyph>
<glyph name="dong" format="1">
	<unicode hex="20AB"/>
	<advance width="560"/>
	<outline>
		<contour>
			<point x="45" y="0" type="line"/>
			<point x="515" y="0" type="line"/>
			<point x="515" y="50" type="line"/>
			<point x="45" y="50" type="line"/>
		</contour>
		<contour>
			<point x="211" y="93" type="curve" smooth="yes"/>
			<point x="255" y="93"/>
			<point x="296" y="109"/>
			<point x="338" y="157" type="curve"/>
			<point x="342" y="182" type="line"/>
			<point x="306" y="168"/>
			<point x="297" y="166"/>
			<point x="288" y="166" type="curve" smooth="yes"/>
			<point x="248" y="166"/>
			<point x="219" y="204"/>
			<point x="219" y="299" type="curve" smooth="yes"/>
			<point x="219" y="385"/>
			<point x="251" y="424"/>
			<point x="289" y="424" type="curve" smooth="yes"/>
			<point x="298" y="424"/>
			<point x="306" y="422"/>
			<point x="341" y="405" type="curve"/>
			<point x="340" y="431" type="line"/>
			<point x="302" y="480"/>
			<point x="267" y="495"/>
			<point x="223" y="495" type="curve" smooth="yes"/>
			<point x="129" y="495"/>
			<point x="48" y="423"/>
			<point x="48" y="292" type="curve" smooth="yes"/>
			<point x="48" y="161"/>
			<point x="123" y="93"/>
		</contour>
		<contour>
			<point x="145" y="525" type="line"/>
			<point x="521" y="525" type="line"/>
			<point x="521" y="575" type="line"/>
			<point x="145" y="575" type="line"/>
		</contour>
		<contour>
			<point x="325" y="97" type="line"/>
			<point x="515" y="105" type="line"/>
			<point x="515" y="135" type="line"/>
			<point x="476" y="138" type="line"/>
			<point x="476" y="555" type="line"/>
			<point x="478" y="665" type="line"/>
			<point x="469" y="672" type="line"/>
			<point x="258" y="646" type="line"/>
			<point x="258" y="616" type="line"/>
			<point x="320" y="612" type="line"/>
			<point x="320" y="441" type="line"/>
			<point x="314" y="436" type="line"/>
			<point x="314" y="152" type="line"/>
		</contour>
	</outline>
</glyph>
<glyph name="tugrik" format="1">
	<unicode hex="20AE"/>
	<advance width="560"/>
	<outline>
		<contour>
			<point x="15" y="433" type="line"/>
			<point x="76" y="433" type="line"/>
			<point x="137" y="624" type="line"/>
			<point x="48" y="588" type="line"/>
			<point x="512" y="588" type="line"/>
			<point x="424" y="624" type="line"/>
			<point x="485" y="433" type="line"/>
			<point x="545" y="433" type="line"/>
			<point x="544" y="624" type="line"/>
			<point x="16" y="624" type="line"/>
		</contour>
		<contour>
			<point x="102" y="114" type="line"/>
			<point x="280" y="185" type="line"/>
			<point x="280" y="238" type="line"/>
			<point x="102" y="167" type="line"/>
		</contour>
		<contour>
			<point x="102" y="240" type="line"/>
			<point x="280" y="311" type="line"/>
			<point x="280" y="364" type="line"/>
			<point x="102" y="293" type="line"/>
		</contour>
		<contour>
			<point x="108" y="0" type="line"/>
			<point x="453" y="0" type="line"/>
			<point x="453" y="34" type="line"/>
			<point x="304" y="48" type="line"/>
			<point x="253" y="48" type="line"/>
			<point x="108" y="34" type="line"/>
		</contour>
		<contour>
			<point x="182" y="0" type="curve"/>
			<point x="378" y="0" type="line"/>
			<point x="375" y="99"/>
			<point x="375" y="198"/>
			<point x="375" y="250" type="curve" smooth="yes"/>
			<point x="375" y="367" type="line" smooth="yes"/>
			<point x="375" y="428"/>
			<point x="375" y="527"/>
			<point x="378" y="624" type="curve"/>
			<point x="182" y="624" type="line"/>
			<point x="185" y="525"/>
			<point x="185" y="427"/>
			<point x="185" y="300" type="curve" smooth="yes"/>
			<point x="185" y="172" type="line" smooth="yes"/>
			<point x="185" y="152"/>
			<point x="185" y="97"/>
		</contour>
		<contour>
			<point x="280" y="175" type="line"/>
			<point x="458" y="245" type="line"/>
			<point x="458" y="298" type="line"/>
			<point x="280" y="228" type="line"/>
		</contour>
		<contour>
			<point x="280" y="301" type="line"/>
			<point x="458" y="371" type="line"/>
			<point x="458" y="424" type="line"/>
			<point x="280" y="354" type="line"/>
		</contour>
	</outline>
</glyph>
<glyph name="cedi" format="1">
	<unicode hex="20B5"/>
	<advance width="560"/>
	<outline>
		<contour>
			<point x="351" y="-16" type="curve" smooth="yes"/>
			<point x="463" y="-16"/>
			<point x="538" y="39"/>
			<point x="538" y="119" type="curve"/>
			<point x="528" y="155"/>
			<point x="508" y="172"/>
			<point x="480" y="172" type="curve" smooth="yes"/>
			<point x="449" y="172"/>
			<point x="414" y="159"/>
			<point x="406" y="88" type="curve" smooth="yes"/>
			<point x="397" y="4" type="line"/>
			<point x="484" y="47" type="line"/>
			<point x="439" y="26"/>
			<point x="418" y="19"/>
			<point x="351" y="19" type="curve" smooth="yes"/>
			<point x="281" y="19"/>
			<point x="233" y="109"/>
			<point x="233" y="319" type="curve" smooth="yes"/>
			<point x="233" y="529"/>
			<point x="275" y="605"/>
			<point x="359" y="605" type="curve" smooth="yes"/>
			<point x="401" y="605"/>
			<point x="428" y="601"/>
			<point x="480" y="577" type="curve"/>
			<point x="393" y="620" type="line"/>
			<point x="402" y="536" type="line" smooth="yes"/>
			<point x="410" y="465"/>
			<point x="445" y="452"/>
			<point x="480" y="452" type="curve" smooth="yes"/>
			<point x="504" y="452"/>
			<point x="526" y="470"/>
			<point x="534" y="505" type="curve"/>
			<point x="534" y="585"/>
			<point x="463" y="640"/>
			<point x="357" y="640" type="curve" smooth="yes"/>
			<point x="199" y="639"/>
			<point x="66" y="550"/>
			<point x="66" y="314" type="curve" smooth="yes"/>
			<point x="66" y="78"/>
			<point x="184" y="-16"/>
		</contour>
		<contour>
			<point x="316" y="-115" type="line"/>
			<point x="367" y="-115" type="line"/>
			<point x="367" y="731" type="line"/>
			<point x="316" y="731" type="line"/>
		</contour>
	</outline>
</glyph>
<glyph name="servicemark" format="1">
	<unicode hex="2120"/>
	<advance width="727"/>
	<outline>
		<contour>
			<point x="334" y="652" type="line"/>
			<point x="330" y="355" type="line"/>
			<point x="356" y="355" type="line"/>
			<point x="358" y="652" type="line"/>
		</contour>
		<contour>
			<point x="595" y="386" type="line"/>
			<point x="519" y="379" type="line"/>
			<point x="519" y="355" type="line"/>
			<point x="688" y="355" type="line"/>
			<point x="688" y="379" type="line"/>
			<point x="612" y="386" type="line"/>
		</contour>
		<contour>
			<point x="301" y="652" type="line"/>
			<point x="301" y="628" type="line"/>
			<point x="368" y="622" type="line"/>
			<point x="322" y="647" type="line"/>
			<point x="449" y="355" type="line"/>
			<point x="469" y="355" type="line"/>
			<point x="585" y="652" type="line"/>
			<point x="556" y="652" type="line"/>
			<point x="490" y="481" type="line"/>
			<point x="511" y="481" type="line"/>
			<point x="435" y="652" type="line"/>
		</contour>
		<contour>
			<point x="335" y="386" type="line"/>
			<point x="279" y="379" type="line"/>
			<point x="279" y="355" type="line"/>
			<point x="405" y="355" type="line"/>
			<point x="405" y="379" type="line"/>
			<point x="350" y="386" type="line"/>
		</contour>
		<contour>
			<point x="549" y="355" type="line"/>
			<point x="661" y="355" type="line"/>
			<point x="661" y="652" type="line"/>
			<point x="578" y="652" type="line"/>
			<point x="551" y="598" type="line"/>
		</contour>
		<contour>
			<point x="588" y="621" type="line"/>
			<point x="612" y="621" type="line"/>
			<point x="688" y="628" type="line"/>
			<point x="688" y="652" type="line"/>
			<point x="588" y="652" type="line"/>
		</contour>
		<contour>
			<point x="140" y="369" type="curve" smooth="yes"/>
			<point x="114" y="369"/>
			<point x="102" y="372"/>
			<point x="74" y="385" type="curve"/>
			<point x="104" y="353" type="line"/>
			<point x="85" y="441" type="line"/>
			<point x="58" y="441" type="line"/>
			<point x="43" y="369" type="line"/>
			<point x="74" y="350"/>
			<point x="114" y="345"/>
			<point x="142" y="345" type="curve" smooth="yes"/>
			<point x="243" y="345"/>
			<point x="278" y="392"/>
			<point x="278" y="448" type="curve" smooth="yes"/>
			<point x="278" y="492"/>
			<point x="256" y="516"/>
			<point x="198" y="546" type="curve" smooth="yes"/>
			<point x="173" y="558" type="line" smooth="yes"/>
			<point x="151" y="570"/>
			<point x="140" y="579"/>
			<point x="140" y="602" type="curve" smooth="yes"/>
			<point x="140" y="623"/>
			<point x="157" y="638"/>
			<point x="179" y="638" type="curve" smooth="yes"/>
			<point x="198" y="638"/>
			<point x="215" y="632"/>
			<point x="241" y="613" type="curve"/>
			<point x="208" y="650" type="line"/>
			<point x="228" y="571" type="line"/>
			<point x="253" y="571" type="line"/>
			<point x="268" y="639" type="line"/>
			<point x="243" y="654"/>
			<point x="204" y="662"/>
			<point x="169" y="662" type="curve" smooth="yes"/>
			<point x="95" y="662"/>
			<point x="47" y="624"/>
			<point x="47" y="568" type="curve" smooth="yes"/>
			<point x="47" y="525"/>
			<point x="75" y="487"/>
			<point x="136" y="458" type="curve" smooth="yes"/>
			<point x="159" y="447" type="line" smooth="yes"/>
			<point x="176" y="439"/>
			<point x="183" y="426"/>
			<point x="183" y="407" type="curve" smooth="yes"/>
			<point x="183" y="386"/>
			<point x="166" y="369"/>
		</contour>
	</outline>
</glyph>
<glyph name="trademark" format="1">
	<unicode hex="2122"/>
	<advance width="803"/>
	<outline>
		<contour>
			<point x="396" y="652" type="line"/>
			<point x="392" y="355" type="line"/>
			<point x="418" y="355" type="line"/>
			<point x="420" y="652" type="line"/>
		</contour>
		<contour>
			<point x="363" y="652" type="line"/>
			<point x="363" y="628" type="line"/>
			<point x="430" y="622" type="line"/>
			<point x="384" y="647" type="line"/>
			<point x="511" y="355" type="line"/>
			<point x="531" y="355" type="line"/>
			<point x="647" y="652" type="line"/>
			<point x="618" y="652" type="line"/>
			<point x="552" y="481" type="line"/>
			<point x="573" y="481" type="line"/>
			<point x="497" y="652" type="line"/>
		</contour>
		<contour>
			<point x="650" y="621" type="line"/>
			<point x="674" y="621" type="line"/>
			<point x="750" y="628" type="line"/>
			<point x="750" y="652" type="line"/>
			<point x="650" y="652" type="line"/>
		</contour>
		<contour>
			<point x="611" y="355" type="line"/>
			<point x="723" y="355" type="line"/>
			<point x="723" y="652" type="line"/>
			<point x="640" y="652" type="line"/>
			<point x="613" y="598" type="line"/>
		</contour>
		<contour>
			<point x="657" y="386" type="line"/>
			<point x="581" y="379" type="line"/>
			<point x="581" y="355" type="line"/>
			<point x="750" y="355" type="line"/>
			<point x="750" y="379" type="line"/>
			<point x="674" y="386" type="line"/>
		</contour>
		<contour>
			<point x="397" y="386" type="line"/>
			<point x="341" y="379" type="line"/>
			<point x="341" y="355" type="line"/>
			<point x="467" y="355" type="line"/>
			<point x="467" y="379" type="line"/>
			<point x="412" y="386" type="line"/>
		</contour>
		<contour>
			<point x="181" y="386" type="line"/>
			<point x="109" y="379" type="line"/>
			<point x="109" y="355" type="line"/>
			<point x="285" y="355" type="line"/>
			<point x="285" y="379" type="line"/>
			<point x="211" y="386" type="line"/>
		</contour>
		<contour>
			<point x="140" y="355" type="line"/>
			<point x="253" y="355" type="line"/>
			<point x="253" y="652" type="line"/>
			<point x="140" y="652" type="line"/>
		</contour>
		<contour>
			<point x="326" y="628" type="line"/>
			<point x="292" y="652" type="line"/>
			<point x="301" y="553" type="line"/>
			<point x="341" y="553" type="line"/>
			<point x="342" y="652" type="line"/>
			<point x="52" y="652" type="line"/>
			<point x="52" y="553" type="line"/>
			<point x="92" y="553" type="line"/>
			<point x="102" y="652" type="line"/>
			<point x="67" y="628" type="line"/>
		</contour>
	</outline>
</glyph>
<glyph name="arrowup" format="1">
	<unicode hex="2191"/>
	<advance width="660"/>
	<outline>
		<contour>
			<point x="644" y="259" type="line"/>
			<point x="341" y="605" type="line"/>
			<point x="319" y="605" type="line"/>
			<point x="16" y="259" type="line"/>
			<point x="36" y="239" type="line"/>
			<point x="317" y="449" type="line"/>
			<point x="270" y="115" type="line"/>
			<point x="270" y="-35" type="line"/>
			<point x="390" y="-35" type="line"/>
			<point x="390" y="115" type="line"/>
			<point x="343" y="449" type="line"/>
			<point x="624" y="239" type="line"/>
		</contour>
	</outline>
</glyph>
<glyph name="arrowupleft" format="1">
	<unicode hex="2196"/>
	<advance width="660"/>
	<outline>
		<contour>
			<point x="570" y="489" type="line"/>
			<point x="112" y="519" type="line"/>
			<point x="96" y="503" type="line"/>
			<point x="126" y="45" type="line"/>
			<point x="155" y="45" type="line"/>
			<point x="205" y="392" type="line"/>
			<point x="408" y="122" type="line"/>
			<point x="514" y="16" type="line"/>
			<point x="599" y="101" type="line"/>
			<point x="493" y="207" type="line"/>
			<point x="223" y="410" type="line"/>
			<point x="570" y="460" type="line"/>
		</contour>
	</outline>
</glyph>
<glyph name="arrowupright" format="1">
	<unicode hex="2197"/>
	<advance width="660"/>
	<outline>
		<contour>
			<point x="534" y="45" type="line"/>
			<point x="564" y="503" type="line"/>
			<point x="548" y="519" type="line"/>
			<point x="90" y="489" type="line"/>
			<point x="90" y="460" type="line"/>
			<point x="437" y="410" type="line"/>
			<point x="167" y="207" type="line"/>
			<point x="61" y="101" type="line"/>
			<point x="146" y="16" type="line"/>
			<point x="252" y="122" type="line"/>
			<point x="455" y="392" type="line"/>
			<point x="505" y="45" type="line"/>
		</contour>
	</outline>
</glyph>
<glyph name="arrowdownright" format="1">
	<unicode hex="2198"/>
	<advance width="660"/>
	<outline>
		<contour>
			<point x="90" y="81" type="line"/>
			<point x="548" y="51" type="line"/>
			<point x="564" y="67" type="line"/>
			<point x="534" y="525" type="line"/>
			<point x="505" y="525" type="line"/>
			<point x="455" y="178" type="line"/>
			<point x="252" y="448" type="line"/>
			<point x="146" y="554" type="line"/>
			<point x="61" y="469" type="line"/>
			<point x="167" y="363" type="line"/>
			<point x="437" y="160" type="line"/>
			<point x="90" y="110" type="line"/>
		</contour>
	</outline>
</glyph>
<glyph name="arrowdownleft" format="1">
	<unicode hex="2199"/>
	<advance width="660"/>
	<outline>
		<contour>
			<point x="126" y="525" type="line"/>
			<point x="96" y="67" type="line"/>
			<point x="112" y="51" type="line"/>
			<point x="570" y="81" type="line"/>
			<point x="570" y="110" type="line"/>
			<point x="223" y="160" type="line"/>
			<point x="493" y="363" type="line"/>
			<point x="599" y="469" type="line"/>
			<point x="514" y="554" type="line"/>
			<point x="408" y="448" type="line"/>
			<point x="205" y="178" type="line"/>
			<point x="155" y="525" type="line"/>
		</contour>
	</outline>
</glyph>
<glyph name="radical" format="1">
	<unicode hex="221A"/>
	<advance width="580"/>
	<outline>
		<contour>
			<point x="157" y="323" type="line"/>
			<point x="293" y="-110" type="line"/>
			<point x="363" y="-110" type="line"/>
			<point x="580" y="772" type="line"/>
			<point x="502" y="772" type="line"/>
			<point x="323" y="-41" type="line"/>
			<point x="351" y="-74" type="line"/>
			<point x="230" y="350" type="line"/>
			<point x="30" y="350" type="line"/>
			<point x="30" y="290" type="line"/>
			<point x="182" y="290" type="line"/>
		</contour>
	</outline>
</glyph>
<glyph name="infinity" format="1">
	<unicode hex="221E"/>
	<advance width="790"/>
	<outline>
		<contour>
			<point x="335" y="252" type="curve" smooth="yes"/>
			<point x="387" y="174"/>
			<point x="457" y="111"/>
			<point x="568" y="111" type="curve" smooth="yes"/>
			<point x="689" y="111"/>
			<point x="761" y="206"/>
			<point x="761" y="330" type="curve" smooth="yes"/>
			<point x="761" y="454"/>
			<point x="697" y="528"/>
			<point x="608" y="528" type="curve" smooth="yes"/>
			<point x="536" y="528"/>
			<point x="482" y="482"/>
			<point x="430" y="366" type="curve"/>
			<point x="443" y="355" type="line"/>
			<point x="483" y="405"/>
			<point x="539" y="419"/>
			<point x="600" y="419" type="curve" smooth="yes"/>
			<point x="674" y="419"/>
			<point x="721" y="385"/>
			<point x="721" y="334" type="curve" smooth="yes"/>
			<point x="721" y="281"/>
			<point x="685" y="253"/>
			<point x="639" y="253" type="curve" smooth="yes"/>
			<point x="578" y="253"/>
			<point x="521" y="290"/>
			<point x="456" y="387" type="curve" smooth="yes"/>
			<point x="404" y="465"/>
			<point x="334" y="528"/>
			<point x="223" y="528" type="curve" smooth="yes"/>
			<point x="102" y="528"/>
			<point x="30" y="433"/>
			<point x="30" y="309" type="curve" smooth="yes"/>
			<point x="30" y="185"/>
			<point x="94" y="111"/>
			<point x="183" y="111" type="curve" smooth="yes"/>
			<point x="255" y="111"/>
			<point x="309" y="157"/>
			<point x="361" y="273" type="curve"/>
			<point x="348" y="284" type="line"/>
			<point x="304" y="231"/>
			<point x="245" y="220"/>
			<point x="191" y="220" type="curve" smooth="yes"/>
			<point x="117" y="220"/>
			<point x="70" y="254"/>
			<point x="70" y="305" type="curve" smooth="yes"/>
			<point x="70" y="358"/>
			<point x="106" y="386"/>
			<point x="152" y="386" type="curve" smooth="yes"/>
			<point x="213" y="386"/>
			<point x="270" y="349"/>
		</contour>
	</outline>
</glyph>
<glyph name="lessequal" format="1">
	<unicode hex="2264"/>
	<advance width="550"/>
	<outline>
		<contour>
			<point x="520" y="0" type="line"/>
			<point x="520" y="60" type="line"/>
			<point x="30" y="60" type="line"/>
			<point x="30" y="0" type="line"/>
		</contour>
		<contour>
			<point x="40" y="330" type="line"/>
			<point x="481" y="134" type="line"/>
			<point x="503" y="185" type="line"/>
			<point x="87" y="366" type="line"/>
			<point x="87" y="334" type="line"/>
			<point x="503" y="515" type="line"/>
			<point x="481" y="566" type="line"/>
			<point x="40" y="370" type="line"/>
		</contour>
	</outline>
</glyph>
<glyph name="greaterequal" format="1">
	<unicode hex="2265"/>
	<advance width="550"/>
	<outline>
		<contour>
			<point x="30" y="0" type="line"/>
			<point x="520" y="0" type="line"/>
			<point x="520" y="60" type="line"/>
			<point x="30" y="60" type="line"/>
		</contour>
		<contour>
			<point x="510" y="330" type="line"/>
			<point x="510" y="370" type="line"/>
			<point x="69" y="566" type="line"/>
			<point x="47" y="515" type="line"/>
			<point x="463" y="334" type="line"/>
			<point x="463" y="366" type="line"/>
			<point x="47" y="185" type="line"/>
			<point x="69" y="134" type="line"/>
		</contour>
	</outline>
</glyph>
